<svg width="30" height="30" xmlns="http://www.w3.org/2000/svg" viewBox="3 0 10.28 10.28">
    <g fill="none" fill-rule="evenodd" opacity=".8">
        <path d="m6.79 16 .241-.989H8.09l.246.989h.79l-1.08-4H7.08L6 16h.79zm1.147-1.64H7.19l.372-1.637.375 1.637zM10.429 16c.653 0 1.124-.157 1.412-.47.287-.314.43-.825.43-1.534 0-.707-.143-1.217-.43-1.528-.288-.312-.759-.468-1.412-.468h-.847v4h.847zm.158-.713h-.215v-2.574h.215c.31 0 .532.097.664.292.132.194.198.525.198.991 0 .47-.066.802-.198.998-.132.196-.353.293-.664.293zM6.847 6.449a.373.373 0 0 1 .414.32.363.363 0 0 1-.338.39c-1.164.137-2.064 1.029-2.153 2.133h8.746c-.082-1.107-.986-2.003-2.153-2.132a.363.363 0 0 1-.339-.391.373.373 0 0 1 .414-.32c.028 0 2.848.303 2.848 3.196a.366.366 0 0 1-.377.355H4.376A.366.366 0 0 1 4 9.645c0-2.893 2.82-3.196 2.847-3.196zM9.143 1c1.382 0 2.509 1.275 2.509 2.843s-1.127 2.843-2.51 2.843c-1.379 0-2.508-1.275-2.508-2.843S7.761 1 9.143 1zm0 .71c-.971 0-1.756.948-1.756 2.133 0 1.184.785 2.132 1.756 2.132.97 0 1.756-.948 1.756-2.132 0-1.185-.785-2.132-1.756-2.132z" fill="none"/>
    </g>
</svg>
