<svg width="30" height="30" xmlns="http://www.w3.org/2000/svg" viewBox="2 0 14 14">
    <g fill="none" fill-rule="evenodd">
        <path d="m6.79 16 .241-.989H8.09l.246.989h.79l-1.08-4H7.08L6 16h.79zm1.147-1.64H7.19l.372-1.637.375 1.637zM10.429 16c.653 0 1.124-.157 1.412-.47.287-.314.43-.825.43-1.534 0-.707-.143-1.217-.43-1.528-.288-.312-.759-.468-1.412-.468h-.847v4h.847zm.158-.713h-.215v-2.574h.215c.31 0 .532.097.664.292.132.194.198.525.198.991 0 .47-.066.802-.198.998-.132.196-.353.293-.664.293zM14.047 5.8c.626-.515.842-1.333.544-2.057-.298-.723-1.048-1.201-1.886-1.2a2.148 2.148 0 0 0-1.26.418C11.272 1.836 10.23 1 9 1c-1.23 0-2.273.836-2.446 1.96a2.148 2.148 0 0 0-1.26-.418c-1.114 0-2.017.835-2.017 1.865-.002.53.245 1.034.675 1.385a3.546 3.546 0 0 0-.873.517C2.383 6.893 1.99 7.724 2 8.592v.761c0 .357.314.647.7.647H15.3c.387 0 .7-.29.7-.647v-.609c.033-1.25-.73-2.403-1.952-2.945zm-6.76-1.165c.068.062.143.118.222.167-.099 0-.19.077-.288.115.03-.092.053-.187.066-.282zm3.491.282-.296-.107c.08-.054.157-.113.23-.175.014.095.036.19.066.282zm1.927-1.614c.488-.003.93.267 1.118.683a1.05 1.05 0 0 1-.26 1.214 1.275 1.275 0 0 1-1.314.24c-.45-.175-.741-.582-.738-1.033 0-.61.535-1.104 1.194-1.104zM9 1.507c.91 0 1.646.682 1.646 1.522S9.91 4.551 9 4.551c-.91 0-1.647-.681-1.647-1.522 0-.84.737-1.522 1.647-1.522zM5.294 3.303c.488-.003.93.267 1.117.683A1.05 1.05 0 0 1 6.152 5.2a1.275 1.275 0 0 1-1.314.24c-.45-.175-.741-.582-.738-1.033 0-.61.535-1.104 1.194-1.104zm-.37 5.868h-2.1v-.617c0-1.26 1.106-2.283 2.47-2.283h.255c-.099.152-.19.312-.271.472-.1.205-.174.42-.223.64 0 .052 0 .106-.041.159-.052.23-.08.465-.082.7l-.009.929zm.823.045v-.928c.004-.197.029-.394.074-.586a1.01 1.01 0 0 1 .05-.168c.03-.132.075-.262.131-.388l.115-.198c.055-.108.119-.212.19-.312l.156-.205c.108-.128.226-.247.354-.358A3.35 3.35 0 0 1 9 5.313h.32c.943.095 1.79.571 2.315 1.3l.123.16c.058.092.099.19.148.29.05.099.083.152.116.228.044.106.077.215.098.327 0 .076.058.152.075.228.035.194.055.39.057.586v.761h-2.14l-4.365.023zm9.429-.045h-2.1V8.41a4.61 4.61 0 0 0-.066-.67l-.05-.145a3.13 3.13 0 0 0-.14-.472l-.065-.175a5.008 5.008 0 0 0-.272-.502l-.041-.076v-.06c.18-.02.363-.02.543 0 1.268.17 2.204 1.182 2.19 2.366v.495z" fill="none"/>
    </g>
</svg>
