<svg xmlns="http://www.w3.org/2000/svg" viewBox="0 0 18.17 14.97">
  <defs>
    <style>
      .cls-1 {
        fill: #231f20;
      }
    </style>
  </defs>
  <title>Add table</title>
  <g id="Layer_2" data-name="Layer 2">
    <g id="Layer_1-2" data-name="Layer 1">
      <path class="cls-1" d="M16,6.85V1a1,1,0,0,0-1-1H1A1,1,0,0,0,0,1V11.46a1,1,0,0,0,1,1H9.87A4.35,4.35,0,1,0,16,6.85ZM8.5,3.16H15V6.43a4.08,4.08,0,0,0-3.31.38H8.5Zm-1,8.3H1V7.81H7.5Zm0-4.65H1V3.16H7.5Zm2,4.65h-1V7.81h2a4.33,4.33,0,0,0-1,2.8A4.71,4.71,0,0,0,9.52,11.46ZM13.81,14a3.37,3.37,0,1,1,3.36-3.36A3.37,3.37,0,0,1,13.81,14Z"/>
      <path class="cls-1" d="M16.1,10.11H14.31V8.31a.5.5,0,0,0-.5-.5.5.5,0,0,0-.5.5v1.8h-1.8a.5.5,0,0,0-.5.5.5.5,0,0,0,.5.5h1.8v1.8a.5.5,0,0,0,.5.5.51.51,0,0,0,.5-.5v-1.8H16.1a.5.5,0,0,0,.5-.5A.5.5,0,0,0,16.1,10.11Z"/>
    </g>
  </g>
</svg>
