<svg xmlns="http://www.w3.org/2000/svg" viewBox="0 0 15.81 15.75">
  <defs>
    <style>
      .cls-1 {
        fill: #fff;
      }
    </style>
  </defs>
  <title>Admin</title>
  <g id="Layer_2" data-name="Layer 2">
    <g id="Layer_1-2" data-name="Layer 1">
      <g>
        <path class="cls-1" d="M14.92,10.38a3.07,3.07,0,0,0-4.34-4.33,3.11,3.11,0,0,0-.81,1.54A5.66,5.66,0,0,0,8.5,7,3.8,3.8,0,1,0,4.31,7,6.57,6.57,0,0,0,2.1,8.28,6.47,6.47,0,0,0,0,13v1.62a1.09,1.09,0,0,0,1.09,1.09H11.76a1.09,1.09,0,0,0,1.09-1.09V13.29a6.74,6.74,0,0,0-.32-2A3.07,3.07,0,0,0,14.92,10.38ZM3.62,3.81a2.81,2.81,0,1,1,2.8,2.8A2.81,2.81,0,0,1,3.62,3.81ZM1,14.66V13A5.45,5.45,0,0,1,2.78,9,5.34,5.34,0,0,1,6.42,7.61l.54,0a5.19,5.19,0,0,1,2.8,1.18s0,.08,0,.12L5.36,13.36a.51.51,0,0,0-.15.35v1H1.09A.09.09,0,0,1,1,14.66Zm10.85,0a.09.09,0,0,1-.09.09H8.46l0,0a.5.5,0,0,0,.15-.43l-.06-.4L9,14a.51.51,0,0,0,.42-.14l.91-.91a.52.52,0,0,0,.14-.43L10.37,12l.24-.24.47.07a.52.52,0,0,0,.43-.14l.08-.08a5.55,5.55,0,0,1,.26,1.67Zm.2-4.51a.52.52,0,0,0-.53.12l-.54.54-.46-.07a.52.52,0,0,0-.43.14l-.61.61a.52.52,0,0,0-.14.43l.07.46-.55.55-.81-.11a.51.51,0,0,0-.42.14.48.48,0,0,0-.15.42l.12.82L7,14.75H6.21v-.83L10.7,9.44a.5.5,0,0,0,.11-.52,2.41,2.41,0,0,1-.08-.42h0a2.05,2.05,0,0,1,3.49-1.73,2.08,2.08,0,0,1,0,2.92A2.05,2.05,0,0,1,12.05,10.15Z"/>
        <circle class="cls-1" cx="13.25" cy="7.64" r="0.66"/>
      </g>
    </g>
  </g>
</svg>
