<?xml version="1.0" encoding="UTF-8"?>
<svg width="18px" height="16px" viewBox="0 0 18 16" version="1.1" xmlns="http://www.w3.org/2000/svg" xmlns:xlink="http://www.w3.org/1999/xlink">
    <title>APIs</title>
    <g id="APIs" stroke="none" stroke-width="1" fill="none" fill-rule="evenodd">
        <path d="M5.41384837,6.29411765 C5.73976792,6.29411765 6.00958787,6.53452691 6.05595249,6.84783754 L6.06299086,6.94385027 L6.06299086,7.61524064 L6.17226318,7.65963904 L6.17226318,7.65963904 L6.27937169,7.70620321 L6.75324571,7.2318984 C6.98134209,7.0038786 7.33671657,6.98107662 7.59026857,7.16349246 L7.67070043,7.2318984 L8.58815515,8.15018717 C8.81596785,8.3784909 8.83874912,8.73418846 8.65649896,8.98797095 L8.58815515,9.06847594 L8.11428113,9.54278075 L8.16188492,9.64998663 L8.16188492,9.64998663 L8.20516108,9.75935829 L8.87594166,9.75935829 C9.04885355,9.75820447 9.21507943,9.82614854 9.33775485,9.94812233 C9.43589518,10.0457014 9.49967387,10.1714072 9.52125776,10.3063997 L9.52941176,10.4090909 L9.52941176,11.7085561 C9.52941176,12.034772 9.28922086,12.3048372 8.97619479,12.351244 L8.88026927,12.3582888 L8.2094887,12.3582888 L8.16513063,12.4676604 L8.16513063,12.4676604 L8.11860875,12.5748663 L8.58382754,13.0491711 C8.81164023,13.2774749 8.8344215,13.6331724 8.65217135,13.8869549 L8.58382754,13.9674599 L7.66637282,14.8857487 C7.43827644,15.1137685 7.08290195,15.1365704 6.82934996,14.9541546 L6.7489181,14.8857487 L6.27504408,14.4114439 L6.16793557,14.4590909 L6.16793557,14.4590909 L6.05866325,14.5024064 L6.05866325,15.1737968 C6.05866325,15.5000126 5.81847234,15.7700779 5.50544628,15.8164846 L5.40952076,15.8235294 L4.11123577,15.8235294 C3.78531623,15.8235294 3.51549628,15.5831202 3.46913166,15.2698095 L3.46209328,15.1737968 L3.46209328,14.5024064 L3.35282096,14.458008 L3.35282096,14.458008 L3.24571245,14.4114439 L2.77183844,14.8857487 C2.54374206,15.1137685 2.18836757,15.1365704 1.93481558,14.9541546 L1.85438372,14.8857487 L0.936928995,13.9674599 C0.709116298,13.7391562 0.686335028,13.3834586 0.868585186,13.1296761 L0.936928995,13.0491711 L1.41080301,12.5748663 L1.36319923,12.4676604 L1.36319923,12.4676604 L1.31992306,12.3582888 L0.649142491,12.3582888 C0.323222947,12.3582888 0.0534029946,12.1178795 0.00703837135,11.8045689 L0,11.7085561 L0,10.4090909 C0,10.0828751 0.240190903,9.81280983 0.553216971,9.76640306 L0.649142491,9.75935829 L1.31992306,9.75935829 L1.36428113,9.64998663 L1.36428113,9.64998663 L1.41080301,9.54278075 L0.941256612,9.06847594 C0.713443915,8.8401722 0.690662645,8.48447465 0.872912802,8.23069215 L0.941256612,8.15018717 L1.85871133,7.2318984 C2.08680771,7.0038786 2.44218219,6.98107662 2.69573419,7.16349246 L2.77616605,7.2318984 L3.25004007,7.70620321 L3.35714858,7.65855615 L3.35714858,7.65855615 L3.4664209,7.61524064 L3.4664209,6.94385027 C3.4664209,6.61763443 3.7066118,6.34756919 4.01963787,6.30116242 L4.11556339,6.29411765 L5.41384837,6.29411765 Z M5.41384837,6.94385027 L4.11556339,6.94385027 L4.11556339,8.09820856 C3.83623557,8.1597449 3.56746667,8.26076431 3.31725178,8.3979354 L3.13319442,8.50754011 L2.31743869,7.69104278 L1.39998397,8.60933155 L2.2157397,9.42582888 C2.0608418,9.66648564 1.94123065,9.92771388 1.86023462,10.2015112 L1.80677993,10.4090909 L0.653470107,10.4090909 L0.653470107,11.7085561 L1.7981247,11.7085561 C1.85960515,11.9881379 1.96053281,12.2571511 2.09757931,12.5075935 L2.20708447,12.6918182 L1.39132874,13.5083155 L2.30878346,14.4266043 L3.12453919,13.610107 C3.36497737,13.7651457 3.62596834,13.8848656 3.89951701,13.9659352 L4.10690816,14.0194385 L4.10690816,15.1737968 L5.40519314,15.1737968 L5.40519314,14.0194385 C5.68452096,13.9579022 5.95328987,13.8568827 6.20350475,13.7197117 L6.38756211,13.610107 L7.21197307,14.4266043 L8.12942779,13.5083155 L7.31367206,12.6918182 C7.46856997,12.4511614 7.58818111,12.1899332 7.66917715,11.9161358 L7.72263183,11.7085561 L8.87594166,11.7085561 L8.87594166,10.4090909 L7.72263183,10.4090909 C7.66115138,10.1295092 7.56022372,9.86049591 7.42317722,9.61005356 L7.31367206,9.42582888 L8.12942779,8.60933155 L7.21197307,7.69104278 L6.39621734,8.50754011 C6.15577916,8.35250139 5.89478819,8.2327815 5.62123952,8.15171184 L5.41384837,8.09820856 L5.41384837,6.94385027 Z M4.76470588,9.47058824 C5.64186401,9.47058824 6.35294118,10.1816654 6.35294118,11.0588235 C6.35294118,11.9359817 5.64186401,12.6470588 4.76470588,12.6470588 C3.88754775,12.6470588 3.17647059,11.9359817 3.17647059,11.0588235 C3.17647059,10.1816654 3.88754775,9.47058824 4.76470588,9.47058824 Z M4.76470588,10.0661765 C4.21648205,10.0661765 3.77205882,10.5105997 3.77205882,11.0588235 C3.77205882,11.6070474 4.21648205,12.0514706 4.76470588,12.0514706 C5.31292971,12.0514706 5.75735294,11.6070474 5.75735294,11.0588235 C5.75735294,10.5105997 5.31292971,10.0661765 4.76470588,10.0661765 Z M13.8844366,1 C14.2103562,1 14.4801761,1.24040926 14.5265407,1.5537199 L14.5335791,1.64973262 L14.5335791,2.32112299 L14.6428514,2.36552139 L14.6428514,2.36552139 L14.7499599,2.41208556 L15.2238339,1.93778075 C15.4519303,1.70976095 15.8073048,1.68695897 16.0608568,1.86937481 L16.1412887,1.93778075 L17.0587434,2.85606952 C17.2865561,3.08437325 17.3093374,3.44007081 17.1270872,3.69385331 L17.0587434,3.77435829 L16.5848694,4.2486631 L16.6324732,4.35586898 L16.6324732,4.35586898 L16.6757493,4.46524064 L17.3465299,4.46524064 C17.5194418,4.46408682 17.6856677,4.53203089 17.8083431,4.65400468 C17.9064834,4.75158371 17.9702621,4.87728951 17.991846,5.01228201 L18,5.11497326 L18,6.4144385 C18,6.74065434 17.7598091,7.01071958 17.446783,7.05712635 L17.3508575,7.06417112 L16.6800769,7.06417112 L16.6357189,7.17354278 L16.6357189,7.17354278 L16.589197,7.28074866 L17.0544158,7.75505348 C17.2822285,7.98335721 17.3050097,8.33905477 17.1227596,8.59283726 L17.0544158,8.67334225 L16.1369611,9.59163102 C15.9088647,9.81965082 15.5534902,9.8424528 15.2999382,9.66003696 L15.2195063,9.59163102 L14.7456323,9.1173262 L14.6385238,9.16497326 L14.6385238,9.16497326 L14.5292515,9.20828877 L14.5292515,9.87967914 C14.5292515,10.205895 14.2890606,10.4759602 13.9760345,10.522367 L13.880109,10.5294118 L12.581824,10.5294118 C12.2559045,10.5294118 11.9860845,10.2890025 11.9397199,9.97569187 L11.9326815,9.87967914 L11.9326815,9.20828877 L11.8234092,9.16389037 L11.8234092,9.16389037 L11.7163007,9.1173262 L11.2424267,9.59163102 C11.0143303,9.81965082 10.6589558,9.8424528 10.4054038,9.66003696 L10.324972,9.59163102 L9.40751723,8.67334225 C9.17970453,8.44503851 9.15692326,8.08934096 9.33917342,7.83555846 L9.40751723,7.75505348 L9.88139125,7.28074866 L9.83378747,7.17354278 L9.83378747,7.17354278 L9.7905113,7.06417112 L9.11973073,7.06417112 C8.79381118,7.06417112 8.52399123,6.82376186 8.47762661,6.51045123 L8.47058824,6.4144385 L8.47058824,5.11497326 C8.47058824,4.78875743 8.71077914,4.51869218 9.02380521,4.47228541 L9.11973073,4.46524064 L9.7905113,4.46524064 L9.83486937,4.35586898 L9.83486937,4.35586898 L9.88139125,4.2486631 L9.41184485,3.77435829 C9.18403215,3.54605455 9.16125088,3.190357 9.34350104,2.9365745 L9.41184485,2.85606952 L10.3292996,1.93778075 C10.5573959,1.70976095 10.9127704,1.68695897 11.1663224,1.86937481 L11.2467543,1.93778075 L11.7206283,2.41208556 L11.8277368,2.3644385 L11.8277368,2.3644385 L11.9370091,2.32112299 L11.9370091,1.64973262 C11.9370091,1.32351679 12.1772,1.05345154 12.4902261,1.00704477 L12.5861516,1 L13.8844366,1 Z M13.8844366,1.64973262 L12.5861516,1.64973262 L12.5861516,2.80409091 C12.3068238,2.86562726 12.0380549,2.96664666 11.78784,3.10381775 L11.6037827,3.21342246 L10.7880269,2.39692513 L9.87057221,3.3152139 L10.6863279,4.13171123 C10.53143,4.37236799 10.4118189,4.63359623 10.3308229,4.90739358 L10.2773682,5.11497326 L9.12405834,5.11497326 L9.12405834,6.4144385 L10.2687129,6.4144385 C10.3301934,6.69402026 10.431121,6.9630335 10.5681675,7.21347585 L10.6776727,7.39770053 L9.86191697,8.21419786 L10.7793717,9.13248663 L11.5951274,8.3159893 C11.8355656,8.47102802 12.0965566,8.59074791 12.3701052,8.67181757 L12.5774964,8.72532086 L12.5774964,9.87967914 L13.8757814,9.87967914 L13.8757814,8.72532086 C14.1551092,8.66378451 14.4238781,8.5627651 14.674093,8.42559401 L14.8581503,8.3159893 L15.6825613,9.13248663 L16.600016,8.21419786 L15.7842603,7.39770053 C15.9391582,7.15704377 16.0587693,6.89581554 16.1397654,6.62201819 L16.1932201,6.4144385 L17.3465299,6.4144385 L17.3465299,5.11497326 L16.1932201,5.11497326 C16.1317396,4.83539151 16.030812,4.56637827 15.8937655,4.31593592 L15.7842603,4.13171123 L16.600016,3.3152139 L15.6825613,2.39692513 L14.8668056,3.21342246 C14.6263674,3.05838374 14.3653764,2.93866386 14.0918278,2.85759419 L13.8844366,2.80409091 L13.8844366,1.64973262 Z M13.2352941,4.17647059 C14.1124522,4.17647059 14.8235294,4.88754775 14.8235294,5.76470588 C14.8235294,6.64186401 14.1124522,7.35294118 13.2352941,7.35294118 C12.358136,7.35294118 11.6470588,6.64186401 11.6470588,5.76470588 C11.6470588,4.88754775 12.358136,4.17647059 13.2352941,4.17647059 Z M13.2352941,4.77205882 C12.6870703,4.77205882 12.2426471,5.21648205 12.2426471,5.76470588 C12.2426471,6.31292971 12.6870703,6.75735294 13.2352941,6.75735294 C13.783518,6.75735294 14.2279412,6.31292971 14.2279412,5.76470588 C14.2279412,5.21648205 13.783518,4.77205882 13.2352941,4.77205882 Z" id="Combined-Shape" fill="#6B778C"></path>
    </g>
</svg>