<?xml version="1.0" encoding="utf-8"?>
<!-- Generator: Adobe Illustrator 25.0.0, SVG Export Plug-In . SVG Version: 6.00 Build 0)  -->
<svg version="1.1" id="Calque_1" xmlns="http://www.w3.org/2000/svg" xmlns:xlink="http://www.w3.org/1999/xlink" x="0px" y="0px"
	 width="30" height="30" viewBox="0 0 18 16" style="enable-background:new 0 0 18 16;" xml:space="preserve">
<title>Applications</title>
<style type="text/css">
	.st0{fill:#FFFFFF;}
</style>
<ellipse class="st0" cx="3.2" cy="2.7" rx="0.7" ry="0.7"/>
<ellipse class="st0" cx="5.6" cy="2.7" rx="0.7" ry="0.7"/>
<path class="st0" d="M15.9,0H2.1C0.9,0,0,0.9,0,2V14c0,1.1,0.9,2,2.1,2h13.8c1.2,0,2.1-0.9,2.1-2V2C18,0.9,17.1,0,15.9,0z M16.6,14
	c0,0.4-0.3,0.7-0.7,0.7H2.1c-0.4,0-0.7-0.3-0.7-0.7V5.4h15.2V14z M16.6,4.1H1.4V2c0-0.4,0.3-0.7,0.7-0.7h13.8c0.4,0,0.7,0.3,0.7,0.7
	V4.1z"/>
</svg>