<?xml version="1.0" encoding="UTF-8"?>
<svg width="18px" height="16px" viewBox="0 0 18 16" version="1.1" xmlns="http://www.w3.org/2000/svg" xmlns:xlink="http://www.w3.org/1999/xlink">
    <title>Applications</title>
    <g id="Applications" stroke="none" stroke-width="1" fill="none" fill-rule="evenodd">
        <path d="M15.890625,0 C17.0537344,0 18,0.91240678 18,2.03389831 L18,2.03389831 L18,13.9661017 C18,15.0875932 17.0537344,16 15.890625,16 L15.890625,16 L2.109375,16 C0.946265625,16 -2.30926389e-14,15.0875932 -2.30926389e-14,13.9661017 L-2.30926389e-14,13.9661017 L-2.30926389e-14,2.03389831 C-2.30926389e-14,0.91240678 0.946265625,0 2.109375,0 L2.109375,0 Z M16.59375,5.42372881 L1.40625,5.42372881 L1.40625,13.9661017 C1.40625,14.3399322 1.72167187,14.6440678 2.109375,14.6440678 L2.109375,14.6440678 L15.890625,14.6440678 C16.2783281,14.6440678 16.59375,14.3399322 16.59375,13.9661017 L16.59375,13.9661017 L16.59375,5.42372881 Z M15.890625,1.3559322 L2.109375,1.3559322 C1.72167187,1.3559322 1.40625,1.6600678 1.40625,2.03389831 L1.40625,2.03389831 L1.40625,4.06779661 L16.59375,4.06779661 L16.59375,2.03389831 C16.59375,1.6600678 16.2783281,1.3559322 15.890625,1.3559322 L15.890625,1.3559322 Z M5.625,2.03389831 C6.01332521,2.03389831 6.328125,2.33743407 6.328125,2.71186441 C6.328125,3.08629475 6.01332521,3.38983051 5.625,3.38983051 C5.23667479,3.38983051 4.921875,3.08629475 4.921875,2.71186441 C4.921875,2.33743407 5.23667479,2.03389831 5.625,2.03389831 Z M3.1640625,2.03389831 C3.55238771,2.03389831 3.8671875,2.33743407 3.8671875,2.71186441 C3.8671875,3.08629475 3.55238771,3.38983051 3.1640625,3.38983051 C2.77573729,3.38983051 2.4609375,3.08629475 2.4609375,2.71186441 C2.4609375,2.33743407 2.77573729,2.03389831 3.1640625,2.03389831 Z" id="browser-2" fill="#6B778C"></path>
    </g>
</svg>