<svg xmlns="http://www.w3.org/2000/svg" viewBox="0 0 17 17" height="30" width="30">
  <defs>
    <style>
      .cls-1 {
        fill: #fff;
      }
    </style>
  </defs>
  <title>AreaChart</title>
  <g id="Layer_2" data-name="Layer 2">
    <g id="Layer_1-2" data-name="Layer 1">
      <path class="cls-1" d="M16.77,2.21a.53.53,0,0,0-.49,0L11.69,4.4,7.87,3.75a.5.5,0,0,0-.4.1L3.89,6.76,1,6.19V.5A.5.5,0,0,0,.5,0,.5.5,0,0,0,0,.5V15.92A1.06,1.06,0,0,0,1,17H16.5a.5.5,0,0,0,.5-.5V2.63A.5.5,0,0,0,16.77,2.21ZM3.93,7.79H4a.52.52,0,0,0,.32-.11L7.93,4.77l3.75.64a.45.45,0,0,0,.3,0l4-1.94V6.48L11.68,9.21,7.91,8.29a.5.5,0,0,0-.41.07L3.91,10.89,1,10.32V7.21ZM8.68,16,1,15.92V13.81l2.93.58h.12a.57.57,0,0,0,.26-.08l3.53-2.49,3.72,1.72a.49.49,0,0,0,.52-.07L16,10.28V16Z"/>
    </g>
  </g>
</svg>
