<svg version="1.1" id="bi-icon" xmlns="http://www.w3.org/2000/svg" xmlns:xlink="http://www.w3.org/1999/xlink" x="0px" y="0px"
	 viewBox="0 0 21 18" style="enable-background:new 0 0 21 18;" xml:space="preserve">
  <title>BarChart</title>
  <style type="text/css">
    .st0{fill-rule:evenodd;clip-rule:evenodd;fill:#6B778C;}
  </style>
  <path class="st0" d="M18.6,16.9H2.2v-0.2V0.5C2.2,0.2,2,0,1.7,0C1.4,0,1.1,0.2,1.1,0.5v16.2c-0.1,0.6,0.4,1.2,1,1.3h16.5
    c0.3,0,0.5-0.2,0.5-0.5C19.1,17.2,18.9,16.9,18.6,16.9z"/>
  <path class="st0" d="M17.5,16c0.3,0,0.5-0.2,0.5-0.5V7.7c0-0.4-0.4-0.8-0.8-0.8h-2.7c-0.4,0-0.8,0.3-0.8,0.8v7.8
    c0,0.3,0.2,0.5,0.5,0.5H17.5z M14.9,8H17v0v7h-2.1V8z"/>
  <polygon class="st0" points="1.7,0 1.7,0 1.7,0 "/>
  <path class="st0" d="M6.9,16c0.3,0,0.5-0.2,0.5-0.5v-11c0-0.2-0.1-0.4-0.2-0.6C7.1,3.7,6.9,3.6,6.6,3.6l-2.6,0
    C3.6,3.7,3.3,4,3.3,4.5v11c0,0.3,0.2,0.5,0.5,0.5H6.9z M4.3,4.7h2.1v0v10.2H4.3V4.7z"/>
  <path class="st0" d="M12.2,16c0.3,0,0.5-0.2,0.5-0.5v-14c0-0.5-0.4-0.9-0.9-0.9H9.4C8.9,0.6,8.6,1,8.5,1.5v14c0,0.3,0.2,0.5,0.5,0.5
    H12.2z M9.6,1.7h2.1v0v13.2H9.6V1.7z"/>
</svg>