<svg xmlns="http://www.w3.org/2000/svg" width="21" height="18" viewBox="0 0 21 18">
    <g fill="none" fill-rule="evenodd">
        <g fill="#6B778C">
            <g>
                <g>
                    <g>
                        <path d="M1.663 0c.292 0 .53.237.53.53v16.189c-.016.073-.016.149 0 .222h16.41c.293 0 .53.237.53.53 0 .292-.237.529-.53.529H2.13c-.627-.083-1.07-.654-.996-1.281V.529c0-.292.237-.529.53-.529zm4.976 3.642c.22 0 .43.087.584.242.155.155.242.365.242.584v10.99c0 .293-.237.53-.53.53H3.76c-.284-.011-.508-.245-.508-.53V4.469c0-.448.357-.814.805-.826zM11.88.625c.482 0 .873.387.88.868v13.955c-.006.29-.24.524-.53.53H9.053c-.281-.017-.503-.248-.508-.53V1.493c.006-.473.385-.857.858-.868zm5.39 6.279c.428 0 .777.344.783.772v7.772c-.005.29-.24.524-.53.53h-3.176c-.29-.006-.523-.24-.529-.53V7.676c.006-.428.355-.772.783-.772zM6.427 4.7H4.31V14.93h2.117V4.701zm5.294-3.017H9.604v13.235h2.117V1.684zm5.295 6.278h-2.118v6.957h2.118V7.962z" transform="translate(-424 -181) translate(410 164) translate(8 8) translate(6 9)"/>
                    </g>
                </g>
            </g>
        </g>
    </g>
</svg>
