<svg xmlns="http://www.w3.org/2000/svg" viewBox="0 0 15.26 16">
  <defs>
    <style>
      .cls-1 {
        fill: #231f20;
      }
    </style>
  </defs>
  <title>BarChart</title>
  <g id="Layer_2" data-name="Layer 2">
    <g id="Layer_1-2" data-name="Layer 1">
      <g>
        <path class="cls-1" d="M4,16H.5a.5.5,0,0,1-.5-.5v-11A.5.5,0,0,1,.5,4H4a.5.5,0,0,1,.5.5v11A.5.5,0,0,1,4,16ZM1,15H3.46V5H1Z"/>
        <path class="cls-1" d="M9.36,16H5.9a.5.5,0,0,1-.5-.5V7.41a.5.5,0,0,1,.5-.5H9.36a.5.5,0,0,1,.5.5V15.5A.5.5,0,0,1,9.36,16Zm-3-1H8.86V7.91H6.4Z"/>
        <path class="cls-1" d="M14.76,16H11.3a.5.5,0,0,1-.5-.5V.5a.5.5,0,0,1,.5-.5h3.46a.5.5,0,0,1,.5.5v15A.5.5,0,0,1,14.76,16Zm-3-1h2.46V1H11.8Z"/>
      </g>
    </g>
  </g>
</svg>
