<svg xmlns="http://www.w3.org/2000/svg" viewBox="0 0 11.22 8.53">
  <defs>
    <style>
      .cls-1 {
        fill: #fff;
      }
    </style>
  </defs>
  <title>Binary</title>
  <g id="Layer_2" data-name="Layer 2">
    <g id="Layer_1-2" data-name="Layer 1">
      <g>
        <path class="cls-1" d="M6.29,1.1a4.81,4.81,0,0,1,.93,3.17,4.78,4.78,0,0,1-.93,3.16,3.35,3.35,0,0,1-2.68,1.1A3.31,3.31,0,0,1,.94,7.43,4.73,4.73,0,0,1,0,4.27,4.76,4.76,0,0,1,.94,1.1,3.31,3.31,0,0,1,3.61,0,3.35,3.35,0,0,1,6.29,1.1ZM2.14,2a4.19,4.19,0,0,0-.48,2.27,4.21,4.21,0,0,0,.48,2.27,1.63,1.63,0,0,0,1.47.73,1.64,1.64,0,0,0,1.48-.73,4.21,4.21,0,0,0,.48-2.27A4.19,4.19,0,0,0,5.09,2a1.64,1.64,0,0,0-1.48-.73A1.63,1.63,0,0,0,2.14,2Z"/>
        <path class="cls-1" d="M7.85.07h3.37v8.4H9.61v-7H7.85Z"/>
      </g>
    </g>
  </g>
</svg>
