<svg xmlns="http://www.w3.org/2000/svg" width="30" height="30" viewBox="0 0 10.84 8.51">
  <defs>
    <style>
      .cls-1 {
        fill: white;
      }
    </style>
  </defs>
  <title>Binary</title>
  <g id="Layer_2" data-name="Layer 2">
    <g id="Layer_1-2" data-name="Layer 1">
      <path class="cls-1" d="M6.12,1.1A4.79,4.79,0,0,1,7,4.25,4.79,4.79,0,0,1,6.12,7.4a3.18,3.18,0,0,1-2.6,1.11A3.16,3.16,0,0,1,.91,7.4,4.79,4.79,0,0,1,0,4.25,4.79,4.79,0,0,1,.91,1.1,3.19,3.19,0,0,1,3.52,0,3.21,3.21,0,0,1,6.12,1.1ZM1.19,4.25a4.28,4.28,0,0,0,.59,2.49,2,2,0,0,0,1.74.84,2,2,0,0,0,1.74-.84,4.36,4.36,0,0,0,.58-2.49C5.84,2,5.07.91,3.52.91S1.19,2,1.19,4.25Z"/>
      <path class="cls-1" d="M7.78.05h3.06v8.4H9.68V1.09H7.78Z"/>
    </g>
  </g>
</svg>
