<svg xmlns="http://www.w3.org/2000/svg" viewBox="0 0 14 16">
  <defs>
    <style>
      .cls-1 {
        fill: #fff;
      }
    </style>
  </defs>
  <title>Bundle</title>
  <g id="Layer_2" data-name="Layer 2">
    <g id="Layer_1-2" data-name="Layer 1">
      <path class="cls-1" d="M14,4.26a.53.53,0,0,0,0-.12.44.44,0,0,0-.22-.31L7.24.07a.5.5,0,0,0-.5,0L.27,3.83a.6.6,0,0,0-.08.08.32.32,0,0,0-.1.1s0,0,0,0a.65.65,0,0,0,0,.2l0,7.48a.48.48,0,0,0,.25.43l6.51,3.76a.48.48,0,0,0,.5,0h0l6.47-3.76a.5.5,0,0,0,.25-.43l0-7.48ZM7,7.44,3.09,5.16l-1.57-.9,2-1.18L9.06,6.26ZM7,1.08,12.5,4.26,10.35,5.51,4.84,2.33Zm-6,4L6.53,8.31l0,6.33L1,11.45Zm6.49,9.51,0-6.32L13,5.13l0,6.32Z"/>
    </g>
  </g>
</svg>
