<svg xmlns="http://www.w3.org/2000/svg" viewBox="0 0 16 16" height="30" width="30">
  <defs>
    <style>
      .cls-1 {
        fill: #fff;
      }
    </style>
  </defs>
  <title>Canceled</title>
  <g id="Layer_2" data-name="Layer 2">
    <g id="Layer_1-2" data-name="Layer 1">
      <path class="cls-1" d="M10.12,5.17,8,7.29,5.88,5.17a.5.5,0,0,0-.71.71L7.29,8,5.17,10.12a.5.5,0,0,0,.71.71L8,8.71l2.12,2.12a.5.5,0,0,0,.71-.71L8.71,8l2.12-2.12a.5.5,0,0,0-.71-.71Z"/>
      <path class="cls-1" d="M8,16a8,8,0,1,1,8-8A8,8,0,0,1,8,16ZM8,1a7,7,0,1,0,7,7A7,7,0,0,0,8,1Z"/>
    </g>
  </g>
</svg>
