<svg xmlns="http://www.w3.org/2000/svg" height="30" width="30" viewBox="0 0 28 18">
  <defs>
    <style>
      .cls-1 {
        fill: #fff;
      }
    </style>
  </defs>
  <title>CatalogNavIcon</title>
  <g id="Layer_2" data-name="Layer 2">
    <g id="Layer_1-2" data-name="Layer 1">
      <g>
        <g>
          <path class="cls-1" d="M14,17.83a.45.45,0,0,1-.27-.1.45.45,0,0,1-.18-.36V3.13a.44.44,0,0,1,.24-.39A27.32,27.32,0,0,1,19.05.64,18.19,18.19,0,0,1,24.42,0a.47.47,0,0,1,.42.46V15.39a.45.45,0,0,1-.45.45,26,26,0,0,0-5.1.7c-2.89.67-5.15,1.27-5.17,1.27Zm.46-14.42V16.79c.85-.22,2.58-.65,4.62-1.13A28.1,28.1,0,0,1,23.94,15V.9a18.62,18.62,0,0,0-4.65.61A27.46,27.46,0,0,0,14.46,3.41Z"/>
          <path class="cls-1" d="M14,17.83l-.12,0s-2.28-.6-5.17-1.27a26.11,26.11,0,0,0-5.1-.7.45.45,0,0,1-.45-.45V.47A.47.47,0,0,1,3.58,0,18.19,18.19,0,0,1,9,.64a27.32,27.32,0,0,1,5.26,2.1.44.44,0,0,1,.24.39V17.37a.45.45,0,0,1-.18.36A.45.45,0,0,1,14,17.83ZM4.06,15a28.1,28.1,0,0,1,4.86.71c2,.48,3.77.91,4.63,1.13V3.41a27.66,27.66,0,0,0-4.84-1.9A18.62,18.62,0,0,0,4.06.9Z"/>
        </g>
        <path class="cls-1" d="M27.55,18H.45a.44.44,0,0,1-.32-.13A.46.46,0,0,1,0,17.55L.06,2.26a.46.46,0,0,1,.46-.45h3.1a.45.45,0,1,1,0,.9H1L.9,17.1H27.1V2.71H24.4a.45.45,0,0,1,0-.9h3.15a.45.45,0,0,1,.45.45V17.55A.45.45,0,0,1,27.55,18Z"/>
      </g>
    </g>
  </g>
</svg>
