<svg xmlns="http://www.w3.org/2000/svg" width="30" height="30" viewBox="0 0 16 10.76">
  <defs>
    <style>
      .cls-1 {
        fill: #fff;
      }
    </style>
  </defs>
  <title>Catalog</title>
  <g id="Layer_2" data-name="Layer 2">
    <g id="Layer_1-2" data-name="Layer 1">
      <path class="cls-1" d="M15.5,1H14.25V.51a.5.5,0,0,0-.47-.5,9.91,9.91,0,0,0-3,.35A16.72,16.72,0,0,0,8,1.42,16.72,16.72,0,0,0,5.27.36a9.91,9.91,0,0,0-3-.35.5.5,0,0,0-.47.5V1H.54a.5.5,0,0,0-.5.5L0,10a.48.48,0,0,0,.15.36.51.51,0,0,0,.35.15H7.31l.44.22a.45.45,0,0,0,.25.07H8a.45.45,0,0,0,.25-.07l.44-.22H15.5A.5.5,0,0,0,16,10V1.5A.5.5,0,0,0,15.5,1Zm-7,1.29a15.76,15.76,0,0,1,2.49-1A9.59,9.59,0,0,1,13.25,1V8.29a17.49,17.49,0,0,0-2.49.38,12.39,12.39,0,0,0-2.26.78ZM5,1.33a14.83,14.83,0,0,1,2.49,1V9.45a12.39,12.39,0,0,0-2.26-.78,17.49,17.49,0,0,0-2.49-.38V1A9.59,9.59,0,0,1,5,1.33ZM1,2h.72V8.77a.5.5,0,0,0,.5.5,13,13,0,0,1,1.86.2H1ZM15,9.47H11.89a13,13,0,0,1,1.86-.2.5.5,0,0,0,.5-.5V2H15Z"/>
    </g>
  </g>
</svg>
