<svg xmlns="http://www.w3.org/2000/svg" viewBox="0 0 17 11.79" height="30" width="30">
  <defs>
    <style>
      .cls-1 {
        fill: #fff;
      }
    </style>
  </defs>
  <title>catalog</title>
  <g id="Layer_2" data-name="Layer 2">
    <g id="Layer_1-2" data-name="Layer 1">
      <path class="cls-1" d="M16.5,1.76H15.13c0-.34,0-.65,0-.86,0-.44,0-.9-.52-.9h0A13.26,13.26,0,0,0,8.5,1.57,13.26,13.26,0,0,0,2.42,0h0c-.5,0-.52.46-.53.9,0,.21,0,.52,0,.86H.5a.5.5,0,0,0-.5.5v9a.5.5,0,0,0,.5.5h16a.5.5,0,0,0,.5-.5v-9A.5.5,0,0,0,16.5,1.76Zm-2.37.48v0c0,2.28,0,5.91,0,7.13h0A34.7,34.7,0,0,0,9,10.57V2.42A12.62,12.62,0,0,1,14.11,1C14.12,1.31,14.13,1.74,14.13,2.24ZM8,2.42v8.15A35.73,35.73,0,0,0,2.89,9.41h0c0-1.22-.05-4.85,0-7.13v0c0-.5,0-.93,0-1.22A12.62,12.62,0,0,1,8,2.42ZM1,10.79v-8h.86c0,1.89,0,3.31,0,4.37V8.31c0,2.06.17,2.08.52,2.08,0,0,1,.11,2.35.4Zm15,0H12.29c1.39-.29,2.31-.4,2.3-.4.42,0,.56,0,.58-2.68V7.08c0-1,0-2.46,0-4.32H16Z"/>
    </g>
  </g>
</svg>
