<?xml version="1.0" encoding="utf-8"?>
<!-- Generator: Adobe Illustrator 24.3.0, SVG Export Plug-In . SVG Version: 6.00 Build 0)  -->
<svg version="1.1" id="Calque_1" xmlns="http://www.w3.org/2000/svg" xmlns:xlink="http://www.w3.org/1999/xlink" x="0px" y="0px"
	 viewBox="0 0 16 16" style="enable-background:new 0 0 16 16;" xml:space="preserve">
<path d="M13.5,16h-11C1.1,16,0,14.9,0,13.5v-11C0,1.1,1.1,0,2.5,0h11C14.9,0,16,1.1,16,2.5v11C16,14.9,14.9,16,13.5,16z M2.5,1
	C1.7,1,1,1.7,1,2.5v11C1,14.3,1.7,15,2.5,15h11c0.8,0,1.5-0.7,1.5-1.5v-11C15,1.7,14.3,1,13.5,1H2.5z"/>
</svg>
