<svg xmlns="http://www.w3.org/2000/svg" width="30" height="30" viewBox="0 0 12.41 15.7">
  <defs>
    <style>
      .cls-1 {
        fill: #fff;
      }
    </style>
  </defs>
  <title>ChevronUpDown</title>
  <g id="Layer_2" data-name="Layer 2">
    <g id="Layer_1-2" data-name="Layer 1">
      <g>
        <path class="cls-1" d="M11.91,6.7a.5.5,0,0,1-.35-.15L6.21,1.2.85,6.55a.48.48,0,0,1-.7,0,.48.48,0,0,1,0-.7L5.85.14a.51.51,0,0,1,.71,0l5.71,5.71a.5.5,0,0,1,0,.7A.51.51,0,0,1,11.91,6.7Z"/>
        <path class="cls-1" d="M6.21,15.7a.49.49,0,0,1-.36-.15L.15,9.85a.5.5,0,0,1,0-.71.5.5,0,0,1,.7,0l5.36,5.35,5.35-5.35a.5.5,0,0,1,.71.71l-5.71,5.7A.47.47,0,0,1,6.21,15.7Z"/>
      </g>
    </g>
  </g>
</svg>
