<?xml version="1.0" encoding="utf-8"?>
<!-- Generator: Adobe Illustrator 23.0.3, SVG Export Plug-In . SVG Version: 6.00 Build 0)  -->
<svg version="1.1" id="Calque_1" xmlns="http://www.w3.org/2000/svg" xmlns:xlink="http://www.w3.org/1999/xlink" x="0px" y="0px"
	 viewBox="0 0 16.4 6.8" style="enable-background:new 0 0 16.4 6.8;" xml:space="preserve">
<style type="text/css">
	.st0{fill:#231F20;}
</style>
<title>ChevronDown</title>
<path class="st0" d="M8.2,16.1l-8-5.9C0,10-0.1,9.7,0.1,9.5s0.5-0.3,0.7-0.1l0,0l7.4,5.5l7.4-5.5c0.2-0.2,0.5-0.1,0.7,0.1
	c0,0,0,0,0,0c0.2,0.2,0.1,0.5-0.1,0.7l0,0L8.2,16.1z"/>
<path class="st0" d="M8.2,0l8,5.9c0.2,0.2,0.3,0.5,0.1,0.7c-0.2,0.2-0.5,0.3-0.7,0.1l0,0L8.2,1.3L0.8,6.7C0.6,6.9,0.3,6.9,0.1,6.7
	c0,0,0,0,0,0C-0.1,6.4,0,6.1,0.2,5.9l0,0L8.2,0z"/>
</svg>
