<svg xmlns="http://www.w3.org/2000/svg" viewBox="0 0 20 16.46">
  <defs>
    <style>
      .cls-1 {
        fill: #231f20;
      }
    </style>
  </defs>
  <title>Collections</title>
  <g id="Layer_2" data-name="Layer 2">
    <g id="Layer_1-2" data-name="Layer 1">
      <path class="cls-1" d="M15,4H1A1,1,0,0,0,0,5V15.46a1,1,0,0,0,1,1H15a1,1,0,0,0,1-1V5A1,1,0,0,0,15,4ZM7.5,7.16v3.65H1V7.16ZM1,11.81H7.5v3.65H1ZM15,16v-.5H8.5V11.81H15v3.65h0Zm0-5.15H8.5V7.16H15Z"/>
      <path class="cls-1" d="M17,2H3A1,1,0,0,0,2,3v.66H17V8.81h-.66v1H17v3.65h-.66v1H17a1,1,0,0,0,1-1V3A1,1,0,0,0,17,2Z"/>
      <path class="cls-1" d="M19,0H5A1,1,0,0,0,4,1v.66H19V6.81h-.66v1H19v3.65h-.66v1H19a1,1,0,0,0,1-1V1A1,1,0,0,0,19,0Z"/>
    </g>
  </g>
</svg>
