<svg xmlns="http://www.w3.org/2000/svg" viewBox="0 0 16.77 15.51" height="30" width="30">
  <defs>
    <style>
      .cls-1 {
        fill: #fff;
      }
    </style>
  </defs>
  <title>Color</title>
  <g id="Layer_2" data-name="Layer 2">
    <g id="Layer_1-2" data-name="Layer 1">
      <path class="cls-1" d="M16.68,10,15.43,6.38A8.22,8.22,0,0,0,13.88,4s0,0-.05,0a12.69,12.69,0,0,0-1.05-1.18A11.93,11.93,0,0,0,9.69.43C8.23-.27,7.5,0,7.14.37a0,0,0,0,1,0,0h0L6,1.47A3.33,3.33,0,0,0,3.44,1,3.17,3.17,0,0,0,1.49,3.09a2.57,2.57,0,0,0,.11,2.2c.07.13.15.26.23.39L.37,7.14C-.71,8.22.74,10.8,2.73,12.78a11.71,11.71,0,0,0,3.09,2.3,3.72,3.72,0,0,0,1.56.43,1.29,1.29,0,0,0,1-.37l5.71-5.71c0,.07,0,.14,0,.24l-.18,1.25a.45.45,0,0,0,0,.11,1.29,1.29,0,0,0,.82,1.11,1.24,1.24,0,0,0,.5.1,1.51,1.51,0,0,0,1-.42A1.76,1.76,0,0,0,16.68,10ZM8.14,1a2.85,2.85,0,0,1,1.12.33,10.85,10.85,0,0,1,2.81,2.1l.2.22a.58.58,0,0,0-.14.05,4.24,4.24,0,0,0-1.74,1.77l-.18-.17A10.77,10.77,0,0,1,8.1,2.48c-.42-.88-.35-1.31-.25-1.4A.41.41,0,0,1,8.14,1ZM2.48,4.83a1.62,1.62,0,0,1,0-1.38A2.2,2.2,0,0,1,3.72,2a2.24,2.24,0,0,1,1.59.23L2.57,5Zm5.18,9.6c-.1.1-.52.17-1.41-.25a11,11,0,0,1-2.82-2.1C1.39,10,.74,8.18,1.07,7.85L2.51,6.41A11.27,11.27,0,0,0,6.28,8.33a1,1,0,0,0,.24.48,1,1,0,0,0,1.33,0,.94.94,0,0,0,0-1.32.93.93,0,0,0-1.2-.09A10.59,10.59,0,0,1,3.23,5.7L6.88,2.05a5.6,5.6,0,0,0,.32.87A11.93,11.93,0,0,0,9.5,6c.2.2.42.4.63.59a.83.83,0,0,0,.07.13,8.23,8.23,0,0,0,3.11,2Z"/>
    </g>
  </g>
</svg>
