<svg xmlns="http://www.w3.org/2000/svg" width="30" height="30" viewBox="0 0 16 15.99">
  <defs>
    <style>
      .cls-1 {
        fill: #fff;
      }
    </style>
  </defs>
  <title>Columns_1</title>
  <g id="Layer_2" data-name="Layer 2">
    <g id="Layer_1-2" data-name="Layer 1">
      <path class="cls-1" d="M15.13,2.81a.5.5,0,0,0,.71,0,.51.51,0,0,0,0-.71L14,.15a.52.52,0,0,0-.73,0l-1.9,2a.49.49,0,0,0,.36.84.51.51,0,0,0,.37-.15l1-1.09v12.4l-1-1.08a.5.5,0,0,0-.71,0,.49.49,0,0,0,0,.7l1.9,2a.47.47,0,0,0,.37.16.46.46,0,0,0,.36-.16l1.85-2a.5.5,0,0,0-.74-.68l-1,1.08V1.73Z"/>
      <path class="cls-1" d="M9.51,2.81a.49.49,0,0,0,.7,0,.5.5,0,0,0,0-.71L8.39.15a.52.52,0,0,0-.73,0l-1.9,2a.5.5,0,0,0,0,.71A.47.47,0,0,0,6.13,3a.51.51,0,0,0,.36-.15l1-1.09v12.4l-1-1.08a.49.49,0,0,0-.7,0,.48.48,0,0,0,0,.7l1.9,2A.49.49,0,0,0,8,16a.45.45,0,0,0,.36-.16l1.85-2a.5.5,0,0,0-.73-.68l-1,1.08V1.73Z"/>
      <path class="cls-1" d="M3.88,2.81a.5.5,0,1,0,.73-.68L2.77.15A.52.52,0,0,0,2,.15l-1.91,2a.51.51,0,0,0,0,.71A.5.5,0,0,0,.5,3a.53.53,0,0,0,.37-.15l1-1.09v12.4l-1-1.08a.5.5,0,0,0-.74.68l1.91,2A.45.45,0,0,0,2.4,16a.49.49,0,0,0,.37-.16l1.84-2a.49.49,0,0,0,0-.7.5.5,0,0,0-.71,0l-1,1.08V1.73Z"/>
    </g>
  </g>
</svg>
