<svg xmlns="http://www.w3.org/2000/svg" viewBox="0 0 12.75 15.32" width="30" height="30">
  <defs>
    <style>
      .cls-1 {
        fill: #fff;
      }
    </style>
  </defs>
  <title>Columns_1</title>
  <g id="Layer_2" data-name="Layer 2">
    <g id="Layer_1-2" data-name="Layer 1">
      <path class="cls-1" d="M12,15.32a.75.75,0,0,1-.75-.75V.75a.75.75,0,0,1,1.5,0V14.57A.74.74,0,0,1,12,15.32Z"/>
      <path class="cls-1" d="M6.38,15.32a.74.74,0,0,1-.75-.75V.75a.75.75,0,0,1,1.5,0V14.57A.75.75,0,0,1,6.38,15.32Z"/>
      <path class="cls-1" d="M.75,15.32A.75.75,0,0,1,0,14.57V.75A.76.76,0,0,1,.75,0,.76.76,0,0,1,1.5.75V14.57A.75.75,0,0,1,.75,15.32Z"/>
    </g>
  </g>
</svg>
