<svg xmlns="http://www.w3.org/2000/svg" viewBox="0 0 15.2 17" width="30" height="30">
  <defs>
    <style>
      .cls-1 {
        fill: #fff;
      }
    </style>
  </defs>
  <title>Convert</title>
  <g id="Layer_2" data-name="Layer 2">
    <g id="Layer_1-2" data-name="Layer 1">
      <path class="cls-1" d="M5.94,7.24V2.19s0,0,0-.07a.13.13,0,0,1,0-.06.53.53,0,0,0-.13-.23L4.11.15A.53.53,0,0,0,3.88,0H.5A.5.5,0,0,0,0,.5V7.24a.5.5,0,0,0,.5.5H5.44A.5.5,0,0,0,5.94,7.24ZM1,6.74V1H3.25V2.19a.51.51,0,0,0,.5.5H4.94V6.74Z"/>
      <path class="cls-1" d="M15.19,11.38s0,0,0-.06a.57.57,0,0,0-.12-.23L13.37,9.41a.46.46,0,0,0-.23-.12h-.05l-.07,0H9.76a.51.51,0,0,0-.5.5V16.5a.5.5,0,0,0,.5.5H14.7a.5.5,0,0,0,.5-.5V11.45S15.19,11.41,15.19,11.38ZM10.26,16V10.26h2.26v1.19a.5.5,0,0,0,.5.5H14.2V16Z"/>
      <path class="cls-1" d="M11.15,5.18l-.71-.41A.49.49,0,0,0,9.76,5a.51.51,0,0,0,.18.69l1.81,1.05a.57.57,0,0,0,.25.06.51.51,0,0,0,.43-.23l1.1-1.8a.5.5,0,1,0-.86-.52l-.5.82a4.17,4.17,0,0,0-1.08-1.49,4.27,4.27,0,0,0-2.48-1,.5.5,0,1,0-.07,1,3.25,3.25,0,0,1,1.9.78A3.4,3.4,0,0,1,11.15,5.18Z"/>
      <path class="cls-1" d="M6.67,13.5a3.17,3.17,0,0,1-1.9-.79,3,3,0,0,1-.72-.9l.71.42a.51.51,0,0,0,.69-.18.52.52,0,0,0-.19-.69l-1.81-1a.51.51,0,0,0-.68.17l-1.1,1.8a.51.51,0,0,0,.17.69A.48.48,0,0,0,2.1,13a.5.5,0,0,0,.43-.24L3,12A4.17,4.17,0,0,0,6.59,14.5h0a.5.5,0,0,0,0-1Z"/>
    </g>
  </g>
</svg>
