<svg xmlns="http://www.w3.org/2000/svg" width="30" height="30" viewBox="0 0 16 16">
  <defs>
    <style>
      .cls-1 {
        fill: #fff;
      }
    </style>
  </defs>
  <title>Copy</title>
  <g id="Layer_2" data-name="Layer 2">
    <g id="Layer_1-2" data-name="Layer 1">
      <path class="cls-1" d="M15.13,12.52H13.88a.5.5,0,0,1-.5-.5.51.51,0,0,1,.5-.5H15V1H4.34V2.25a.5.5,0,0,1-.5.5.51.51,0,0,1-.5-.5V1A.92.92,0,0,1,4.2,0H15.13A.92.92,0,0,1,16,1V11.62A.88.88,0,0,1,15.13,12.52Z"/>
      <path class="cls-1" d="M11.69,16H.86A.92.92,0,0,1,0,15V4.48a.91.91,0,0,1,.86-1H11.69a.92.92,0,0,1,.86,1V15A.91.91,0,0,1,11.69,16ZM1,15H11.55V4.49H1Z"/>
    </g>
  </g>
</svg>
