<svg xmlns="http://www.w3.org/2000/svg" viewBox="0 0 16 11">
  <defs>
    <style>
      .cls-1 {
        fill: #fff;
      }
    </style>
  </defs>
  <title>Counter</title>
  <g id="Layer_2" data-name="Layer 2">
    <g id="Layer_1-2" data-name="Layer 1">
      <g id="Layer_1-2-2" data-name="Layer 1-2">
        <g>
          <path class="cls-1" d="M6,3.53a3,3,0,0,1,.58,2,3,3,0,0,1-.58,2,2.08,2.08,0,0,1-1.67.69,2.08,2.08,0,0,1-1.67-.69A3,3,0,0,1,2,5.5a3,3,0,0,1,.58-2,2.08,2.08,0,0,1,1.67-.69A2,2,0,0,1,6,3.53Zm-2.59.56a2.56,2.56,0,0,0-.3,1.41,2.7,2.7,0,0,0,.3,1.42,1,1,0,0,0,.92.45,1,1,0,0,0,.92-.45,2.7,2.7,0,0,0,.3-1.42,2.56,2.56,0,0,0-.3-1.41,1,1,0,0,0-.92-.46,1,1,0,0,0-1,.46Z"/>
          <polygon class="cls-1" points="10.58 1.38 9.55 3.35 9.55 4.09 12.06 4.09 12.06 5.32 12.99 5.32 12.99 4.09 13.74 4.09 13.74 3.23 12.99 3.23 12.99 2.02 12.06 2.02 12.06 3.23 10.62 3.23 11.56 1.38 10.58 1.38"/>
          <path class="cls-1" d="M13.52,7.09V6.22H10.16V9.05h1.39a1.4,1.4,0,0,1,.85.21.62.62,0,0,1,.24.42h1.1A1.23,1.23,0,0,0,13.51,9a1.6,1.6,0,0,0-.69-.57,2.66,2.66,0,0,0-1-.2h-.69v-1Z"/>
          <path class="cls-1" d="M15.5,0H.5A.5.5,0,0,0,0,.5v10a.5.5,0,0,0,.5.5h15a.5.5,0,0,0,.5-.5V.5A.5.5,0,0,0,15.5,0ZM1,1H7.5v9H1Zm14,9H8.5V1H15Z"/>
        </g>
      </g>
    </g>
  </g>
</svg>
