<svg xmlns="http://www.w3.org/2000/svg" height="30" width="30" viewBox="0 0 16.78 17.38">
  <defs>
    <style>
      .cls-1 {
        fill: #fff;
      }
    </style>
  </defs>
  <title>DataConsumer</title>
  <g id="Layer_2" data-name="Layer 2">
    <g id="Layer_1-2" data-name="Layer 1">
      <path class="cls-1" d="M12.28,11.66c-2.17,0-4,1.14-4.49,2.77a.54.54,0,0,0,0,.18c.47,1.63,2.32,2.77,4.49,2.77s4-1.14,4.49-2.77a.54.54,0,0,0,0-.18C16.3,12.8,14.45,11.66,12.28,11.66Zm0,4.12a1.26,1.26,0,1,1,1.26-1.26A1.25,1.25,0,0,1,12.28,15.78Z"/>
      <path class="cls-1" d="M7.06,14.75h-6A.09.09,0,0,1,1,14.66V13A5.41,5.41,0,0,1,2.78,9,5.34,5.34,0,0,1,6.42,7.62a4.87,4.87,0,0,1,.54,0,5.44,5.44,0,0,1,4.46,3.48c.14,0,.27,0,.41,0s.44,0,.66,0A6.62,6.62,0,0,0,8.51,7a3.8,3.8,0,1,0-4.2,0A6.44,6.44,0,0,0,0,13v1.62a1.09,1.09,0,0,0,1.09,1.09H7.73A3.65,3.65,0,0,1,7.06,14.75ZM3.62,3.81a2.81,2.81,0,1,1,2.8,2.8A2.81,2.81,0,0,1,3.62,3.81Z"/>
    </g>
  </g>
</svg>
