<svg xmlns="http://www.w3.org/2000/svg" viewBox="0 0 17 17" height="30" width="30">
  <defs>
    <style>
      .cls-1 {
        fill: #fff;
      }
    </style>
  </defs>
  <title>connect_1</title>
  <g id="Layer_2" data-name="Layer 2">
    <g id="Layer_1-2" data-name="Layer 1">
      <g>
        <path class="cls-1" d="M5.51,7.2A.75.75,0,0,0,4.45,8.26l4.22,4.21a.77.77,0,0,0,.53.21.74.74,0,0,0,.53-.22.75.75,0,0,0,0-1.06Z"/>
        <path class="cls-1" d="M7.2,5.52a.76.76,0,0,0-1.07,0,.75.75,0,0,0,0,1.06l4.21,4.2a.79.79,0,0,0,.53.22.75.75,0,0,0,.53-.22.74.74,0,0,0,0-1.06Z"/>
        <path class="cls-1" d="M17,5.29a1.5,1.5,0,0,0-.65-1.1,1.53,1.53,0,0,0-1.91.21L12.49,6.33,10.64,4.49l1.92-1.91a1.51,1.51,0,0,0,.1-2.09A1.5,1.5,0,0,0,10.5.43l-2,2L7,.88,3.14,4.74C1,6.89,1.89,10,2.83,11.62L.29,14.22a1,1,0,0,0,0,1.46l1,1a1,1,0,0,0,.73.3,1.06,1.06,0,0,0,.74-.3l2.54-2.53c1.08.58,4.38,2.08,6.64-.17l4.1-4.09L14.6,8.44l2-2A1.47,1.47,0,0,0,17,5.29Zm-1.13.48L13.18,8.44l1.49,1.47-3.39,3.38c-2.11,2.1-5.72-.15-5.75-.17l-.34-.22L2,16,1,14.92,4.1,11.75l-.22-.34c-.1-.14-2.37-3.64,0-6L7,2.29,8.53,3.8,11.2,1.14A.6.6,0,0,1,11.56,1a.5.5,0,0,1,.36.16.54.54,0,0,1-.06.71L9.22,4.49l3.27,3.26,2.64-2.64A.52.52,0,0,1,15.78,5h0a.51.51,0,0,1,.22.36A.5.5,0,0,1,15.86,5.77Z"/>
      </g>
    </g>
  </g>
</svg>
