<svg xmlns="http://www.w3.org/2000/svg" width="30" height="30" viewBox="0 0 12.7 15.96">
  <defs>
    <style>
      .cls-1 {
        fill: #fff;
      }
    </style>
  </defs>
  <title>Database</title>
  <g id="Layer_2" data-name="Layer 2">
    <g id="Layer_1-2" data-name="Layer 1">
      <path class="cls-1" d="M12.7,2.53C12.7-.84,0-.84,0,2.53v0H0V13.4C0,15.08,3.19,16,6.35,16s6.35-.88,6.35-2.56V2.57h0S12.7,2.54,12.7,2.53Zm-1,7.24c0,.63-2.14,1.57-5.35,1.57S1,10.4,1,9.77V7.59A11,11,0,0,0,6.35,8.72,11.07,11.07,0,0,0,11.7,7.59Zm0-3.62c0,.62-2.14,1.57-5.35,1.57S1,6.77,1,6.15V4A11.05,11.05,0,0,0,6.35,5.09,11.08,11.08,0,0,0,11.7,4ZM6.35,1c3.21,0,5.35.94,5.35,1.57S9.56,4.09,6.35,4.09,1,3.15,1,2.53,3.13,1,6.35,1Zm0,14C3.13,15,1,14,1,13.4V11.22a11.05,11.05,0,0,0,5.35,1.12,11.08,11.08,0,0,0,5.35-1.12V13.4C11.7,14,9.56,15,6.35,15Z"/>
    </g>
  </g>
</svg>
