<svg xmlns="http://www.w3.org/2000/svg" height="30" width="30" viewBox="0 0 14.8 16.88">
  <defs>
    <style>
      .cls-1 {
        fill: #fff;
      }
    </style>
  </defs>
  <title>DataSteward</title>
  <g id="Layer_2" data-name="Layer 2">
    <g id="Layer_1-2" data-name="Layer 1">
      <path class="cls-1" d="M14.65,12.28l-.71-.12a.18.18,0,0,1-.15-.13,2.76,2.76,0,0,0-.2-.47.18.18,0,0,1,0-.2l.38-.53c.09-.13.08-.23,0-.3l-.69-.69a.19.19,0,0,0-.25,0l-.58.41a.18.18,0,0,1-.2,0,2.46,2.46,0,0,0-.47-.2.19.19,0,0,1-.13-.14l-.11-.65c0-.16-.1-.22-.19-.22h-1a.19.19,0,0,0-.19.16l-.11.71a.2.2,0,0,1-.13.14,2.46,2.46,0,0,0-.47.2.18.18,0,0,1-.2,0l-.53-.38c-.13-.09-.23-.08-.3,0l-.69.69a.2.2,0,0,0,0,.25l.42.58a.21.21,0,0,1,0,.2A2.76,2.76,0,0,0,8,12a.18.18,0,0,1-.15.13l-.65.11c-.15,0-.21.1-.21.19v1a.19.19,0,0,0,.15.19l.71.11a.22.22,0,0,1,.15.13,2.46,2.46,0,0,0,.2.47.2.2,0,0,1,0,.2l-.38.54c-.09.12-.08.22,0,.29l.69.7a.21.21,0,0,0,.25,0l.58-.42a.18.18,0,0,1,.2,0,3.29,3.29,0,0,0,.47.19.22.22,0,0,1,.13.15l.11.65c0,.15.1.22.19.22h1a.18.18,0,0,0,.18-.16l.12-.71a.2.2,0,0,1,.13-.15,3.29,3.29,0,0,0,.47-.19.18.18,0,0,1,.2,0l.53.38c.13.09.23.08.3,0l.69-.7a.19.19,0,0,0,0-.25l-.41-.58a.2.2,0,0,1,0-.2,2.46,2.46,0,0,0,.2-.47.22.22,0,0,1,.15-.13l.65-.1c.15,0,.21-.11.21-.2v-1A.17.17,0,0,0,14.65,12.28Zm-3.77,1.65a1,1,0,1,1,1-1A1,1,0,0,1,10.88,13.93Z"/>
      <path class="cls-1" d="M7.06,15.23c-.07-.07-.08-.18,0-.32l.11-.16H1.09A.09.09,0,0,1,1,14.66V13A5.41,5.41,0,0,1,2.78,9,5.34,5.34,0,0,1,6.42,7.62a4.87,4.87,0,0,1,.54,0A5.18,5.18,0,0,1,9.69,8.76l.06-.33a.2.2,0,0,1,.2-.18h.64A6.17,6.17,0,0,0,8.51,7a3.8,3.8,0,1,0-4.2,0A6.44,6.44,0,0,0,0,13v1.62a1.09,1.09,0,0,0,1.09,1.09H7.58ZM3.62,3.81a2.81,2.81,0,1,1,2.8,2.8A2.81,2.81,0,0,1,3.62,3.81Z"/>
    </g>
  </g>
</svg>
