<svg xmlns="http://www.w3.org/2000/svg" height="30" width="30" viewBox="0 0 29 26.59">
  <defs>
    <style>
      .cls-1 {
        fill: #fff;
      }
    </style>
  </defs>
  <title>DataConsumptionNavIcon</title>
  <g id="Layer_2" data-name="Layer 2">
    <g id="Layer_1-2" data-name="Layer 1">
      <g>
        <path class="cls-1" d="M24.79,17.46H21.57a.5.5,0,0,1-.5-.5V9.76a.8.8,0,0,1,.8-.8h2.62a.8.8,0,0,1,.8.8V17A.5.5,0,0,1,24.79,17.46Zm-2.72-1h2.22V10H22.07Z"/>
        <path class="cls-1" d="M19,17.46H15.78a.5.5,0,0,1-.5-.5V4.62a.88.88,0,0,1,.89-.88h2.45a.87.87,0,0,1,.88.88V17A.5.5,0,0,1,19,17.46Zm-2.72-1H18.5V4.74H16.28Z"/>
        <path class="cls-1" d="M9.88,26.59H6.57a.5.5,0,0,1-.5-.5v-7h-2a.49.49,0,0,1-.45-.29.47.47,0,0,1,.07-.53L7.84,13.5a.53.53,0,0,1,.37-.17.49.49,0,0,1,.38.16L13,18.29a.51.51,0,0,1,.09.54.51.51,0,0,1-.46.3H10.38v7A.51.51,0,0,1,9.88,26.59Zm-2.81-1H9.38v-7a.5.5,0,0,1,.5-.5h1.61L8.23,14.58l-3,3.55H6.57a.5.5,0,0,1,.5.5Z"/>
        <path class="cls-1" d="M4.21,16.67a.5.5,0,0,1-.5-.5V5.28a.88.88,0,0,1,.88-.88H7.05a.87.87,0,0,1,.88.88v7.14a.5.5,0,1,1-1,0v-7H4.71V16.17A.5.5,0,0,1,4.21,16.67Z"/>
        <path class="cls-1" d="M13.22,17a.5.5,0,0,1-.5-.5V7.66H10.5v5.92a.51.51,0,0,1-.5.5.5.5,0,0,1-.5-.5V7.5a.84.84,0,0,1,.83-.84h2.55a.85.85,0,0,1,.84.84v9A.5.5,0,0,1,13.22,17Z"/>
        <path class="cls-1" d="M27.49,21.2H11.56a.5.5,0,0,1-.5-.5.5.5,0,0,1,.5-.5H27.49a.52.52,0,0,0,.51-.52V1.51A.51.51,0,0,0,27.49,1h-26A.51.51,0,0,0,1,1.51V19.68a.52.52,0,0,0,.51.52H4.75a.5.5,0,0,1,.5.5.5.5,0,0,1-.5.5H1.51A1.52,1.52,0,0,1,0,19.68V1.51A1.52,1.52,0,0,1,1.51,0h26A1.52,1.52,0,0,1,29,1.51V19.68A1.52,1.52,0,0,1,27.49,21.2Z"/>
      </g>
    </g>
  </g>
</svg>
