<svg xmlns="http://www.w3.org/2000/svg" height="30" width="30" viewBox="0 0 15.92 17.38">
  <defs>
    <style>
      .cls-1 {
        fill: #fff;
      }
    </style>
  </defs>
  <title>DataExpert</title>
  <g id="Layer_2" data-name="Layer 2">
    <g id="Layer_1-2" data-name="Layer 1">
      <path class="cls-1" d="M12.15,9.89l1,2.11a.24.24,0,0,0,.19.14l2.32.34a.25.25,0,0,1,.14.43l-1.68,1.64a.23.23,0,0,0-.07.22l.39,2.32a.25.25,0,0,1-.36.26L12,16.26a.25.25,0,0,0-.24,0L9.72,17.35a.25.25,0,0,1-.37-.26l.4-2.32a.23.23,0,0,0-.07-.22L8,12.91a.25.25,0,0,1,.14-.43l2.32-.34a.25.25,0,0,0,.19-.14l1-2.11A.26.26,0,0,1,12.15,9.89Z"/>
      <path class="cls-1" d="M9.09,14.75h-8A.09.09,0,0,1,1,14.66V13A5.41,5.41,0,0,1,2.78,9,5.34,5.34,0,0,1,6.42,7.62a4.87,4.87,0,0,1,.54,0A5.31,5.31,0,0,1,10.83,10l.44-.89a.34.34,0,0,1,.08-.09A6.38,6.38,0,0,0,8.51,7a3.8,3.8,0,1,0-4.2,0A6.44,6.44,0,0,0,0,13v1.62a1.09,1.09,0,0,0,1.09,1.09H8.92ZM3.62,3.81a2.81,2.81,0,1,1,2.8,2.8A2.81,2.81,0,0,1,3.62,3.81Z"/>
    </g>
  </g>
</svg>
