<svg xmlns="http://www.w3.org/2000/svg" height="30" width="30" viewBox="0 0 15 16.25">
  <defs>
    <style>
      .cls-1 {
        fill: #fff;
      }
    </style>
  </defs>
  <title>DataOwner</title>
  <g id="Layer_2" data-name="Layer 2">
    <g id="Layer_1-2" data-name="Layer 1">
      <path class="cls-1" d="M14.35,8.57a2.23,2.23,0,0,0-3.67,2.33l-4,4v1.33H8l.76-.76-.13-.92.92.13.79-.79-.1-.62.53-.53.62.1.63-.63a2.22,2.22,0,0,0,2.33-3.66Zm-1.14,1.64a.57.57,0,0,1-.58-.57.58.58,0,0,1,1.15,0A.57.57,0,0,1,13.21,10.21Z"/>
      <path class="cls-1" d="M5.83,14.79l0,0H1.09A.09.09,0,0,1,1,14.66V13A5.43,5.43,0,0,1,6.42,7.61l.54,0A5.24,5.24,0,0,1,10.15,9.2a2.44,2.44,0,0,1,.38-1A6.14,6.14,0,0,0,8.51,7a3.8,3.8,0,1,0-4.2,0A6.57,6.57,0,0,0,2.1,8.28,6.47,6.47,0,0,0,0,13v1.62a1.09,1.09,0,0,0,1.09,1.09H5.83Zm-2.21-11a2.81,2.81,0,1,1,2.8,2.8A2.81,2.81,0,0,1,3.62,3.81Z"/>
    </g>
  </g>
</svg>
