<svg xmlns="http://www.w3.org/2000/svg" viewBox="0 0 13.03 17">
  <defs>
    <style>
      .cls-1 {
        fill: #fff;
      }
    </style>
  </defs>
  <title>Delete</title>
  <g id="Layer_2" data-name="Layer 2">
    <g id="Layer_1-2" data-name="Layer 1">
      <g>
        <path class="cls-1" d="M3.39,6A.49.49,0,0,0,3,6.54l.94,7.17a.49.49,0,0,0,.49.43h.07a.51.51,0,0,0,.43-.57L4,6.41A.5.5,0,0,0,3.39,6Z"/>
        <path class="cls-1" d="M9.64,6a.5.5,0,0,0-.56.43l-.94,7.16a.51.51,0,0,0,.43.57h.07a.49.49,0,0,0,.49-.43l.94-7.17A.49.49,0,0,0,9.64,6Z"/>
        <path class="cls-1" d="M6.51,4.67a.51.51,0,0,0-.5.5v9.3a.51.51,0,0,0,.5.5.5.5,0,0,0,.5-.5V5.17A.5.5,0,0,0,6.51,4.67Z"/>
        <path class="cls-1" d="M12.13,1.22H8.59V1.1A1.1,1.1,0,0,0,7.5,0H5.32A1.1,1.1,0,0,0,4.24,1.12v.1H.9a.91.91,0,0,0-.9.92V3a.88.88,0,0,0,.47.78l.79,12.3a.91.91,0,0,0,.9.92h8.71a.9.9,0,0,0,.9-.88l.79-12.34A.88.88,0,0,0,13,3V2.14A.91.91,0,0,0,12.13,1.22ZM10.78,16H2.25L1.48,3.92H11.55Z"/>
      </g>
    </g>
  </g>
</svg>
