<svg xmlns="http://www.w3.org/2000/svg" width="30" height="30" viewBox="0 0 17 14.97">
  <defs>
    <style>
      .cls-1 {
        fill: #fff;
      }
    </style>
  </defs>
  <title>Deploy</title>
  <g id="Layer_2" data-name="Layer 2">
    <g id="Layer_1-2" data-name="Layer 1">
      <path class="cls-1" d="M6.46,3.25,8,1.71v9.54a.5.5,0,0,0,1,0V1.71l1.54,1.54a.51.51,0,0,0,.36.15.49.49,0,0,0,.35-.15.5.5,0,0,0,0-.71L8.85.15a.48.48,0,0,0-.7,0L5.75,2.54a.5.5,0,0,0,.71.71Z"/>
      <path class="cls-1" d="M16.5,7.18a.5.5,0,0,0-.5.5V14H1V7.68a.5.5,0,0,0-.5-.5.5.5,0,0,0-.5.5V14a1,1,0,0,0,1,1H16a1,1,0,0,0,1-1V7.68A.5.5,0,0,0,16.5,7.18Z"/>
    </g>
  </g>
</svg>
