<svg xmlns="http://www.w3.org/2000/svg" width="30" height="30" viewBox="0 0 14.86 17">
  <defs>
    <style>
      .cls-1 {
        fill: white;
      }
    </style>
  </defs>
  <title>Dimension</title>
  <g id="Layer_2" data-name="Layer 2">
    <g id="Layer_1-2" data-name="Layer 1">
      <path class="cls-1" d="M14.86,4.51a.42.42,0,0,0,0-.12.44.44,0,0,0-.22-.31L7.67.07a.5.5,0,0,0-.5,0l-6.9,4s-.06.06-.1.09l-.08.09a.53.53,0,0,0,0,.12.5.5,0,0,0,0,.13l0,8a.5.5,0,0,0,.25.44l6.94,4a.47.47,0,0,0,.25.07.45.45,0,0,0,.25-.07h0l6.9-4a.48.48,0,0,0,.25-.43l0-8ZM7.42,1.08l5.95,3.43L7.46,7.94,1.52,4.51ZM1,5.37,3.47,6.79,7,8.81l0,6.83L1,12.2ZM7.94,15.63l0-5.05V8.81l5.9-3.43,0,6.82Z"/>
    </g>
  </g>
</svg>
