<svg xmlns="http://www.w3.org/2000/svg" viewBox="0 0 17 14.97" height="30" width="30">
  <defs>
    <style>
      .cls-1 {
        fill: #fff;
      }
    </style>
  </defs>
  <title>download</title>
  <g id="Layer_2" data-name="Layer 2">
    <g id="Layer_1-2" data-name="Layer 1">
      <path class="cls-1" d="M10.54,8.5,9,10.05V.5a.5.5,0,0,0-1,0V10L6.46,8.5a.51.51,0,0,0-.36-.15.49.49,0,0,0-.35.15.5.5,0,0,0,0,.71l2.4,2.4a.5.5,0,0,0,.7,0l2.4-2.4a.5.5,0,0,0,0-.71A.51.51,0,0,0,10.54,8.5Z"/>
      <path class="cls-1" d="M16.5,7.18a.5.5,0,0,0-.5.5V14H1V7.68a.5.5,0,0,0-.5-.5.5.5,0,0,0-.5.5V14a1,1,0,0,0,1,1H16a1,1,0,0,0,1-1V7.68A.5.5,0,0,0,16.5,7.18Z"/>
    </g>
  </g>
</svg>
