<?xml version="1.0" encoding="utf-8"?>
<!-- Generator: Adobe Illustrator 23.0.3, SVG Export Plug-In . SVG Version: 6.00 Build 0)  -->
<svg version="1.1" id="Calque_1" xmlns="http://www.w3.org/2000/svg" xmlns:xlink="http://www.w3.org/1999/xlink" x="0px" y="0px"
	 viewBox="0 0 12.8 12.8" style="enable-background:new 0 0 12.8 12.8;" xml:space="preserve">
<style type="text/css">
	.st0{fill:#231F20;}
	.st1{fill:none;}
</style>
<title>Time</title>
<path class="st0" d="M6.4,12.8C2.9,12.8,0,9.9,0,6.4C0,2.9,2.9,0,6.4,0c3.5,0,6.4,2.9,6.4,6.4S9.9,12.8,6.4,12.8
	C6.4,12.8,6.4,12.8,6.4,12.8z M6.4,1C3.4,1,1,3.4,1,6.4c0,3,2.4,5.4,5.4,5.4s5.4-2.4,5.4-5.4c0,0,0,0,0,0C11.8,3.4,9.4,1,6.4,1
	C6.4,1,6.4,1,6.4,1z"/>
<line class="st1" x1="6.4" y1="3.3" x2="6.4" y2="6.9"/>
<line class="st1" x1="6.6" y1="7" x2="7.8" y2="8.6"/>
</svg>
