<svg xmlns="http://www.w3.org/2000/svg" viewBox="0 0 17 15.63">
  <defs>
    <style>
      .cls-1 {
        fill: #231f20;
      }
    </style>
  </defs>
  <title>Endpoint</title>
  <g id="Layer_2" data-name="Layer 2">
    <g id="Layer_1-2" data-name="Layer 1">
      <path class="cls-1" d="M14.62,10.87a2.38,2.38,0,0,0-2.1,1.28L4.62,8.6a2.57,2.57,0,0,0,.14-.79A2.51,2.51,0,0,0,4.62,7l7.9-3.55a2.36,2.36,0,1,0-.28-1.1s0,.08,0,.13L4.09,6.17a2.38,2.38,0,1,0,0,3.29l8.16,3.66s0,.08,0,.13a2.38,2.38,0,1,0,2.38-2.38Zm0-9.87a1.38,1.38,0,1,1-1.38,1.38A1.38,1.38,0,0,1,14.62,1ZM2.38,9.19A1.38,1.38,0,1,1,3.76,7.81,1.38,1.38,0,0,1,2.38,9.19Zm12.24,5.43A1.38,1.38,0,1,1,16,13.25,1.37,1.37,0,0,1,14.62,14.62Z"/>
    </g>
  </g>
</svg>
