<svg xmlns="http://www.w3.org/2000/svg" height="30" width="30" viewBox="0 0 17 17">
  <defs>
    <style>
      .cls-1 {
        fill: #fff;
      }
    </style>
  </defs>
  <title>EventGapDetection</title>
  <g id="Layer_2" data-name="Layer 2">
    <g id="Layer_1-2" data-name="Layer 1">
      <g>
        <path class="cls-1" d="M16.5,16H10.79V.18H6.39v15.6a.85.85,0,0,0,0,.23H1.07A.29.29,0,0,1,1,15.79V.5A.5.5,0,0,0,.5,0,.5.5,0,0,0,0,.5V15.79A1.12,1.12,0,0,0,1,17H16.5a.5.5,0,0,0,0-1Z"/>
        <path class="cls-1" d="M3.3,13.16a.49.49,0,1,0-.49-.49A.49.49,0,0,0,3.3,13.16Z"/>
        <path class="cls-1" d="M5.3,12.16a.49.49,0,1,0-.49-.49A.49.49,0,0,0,5.3,12.16Z"/>
        <path class="cls-1" d="M4.3,7.16a.49.49,0,1,0-.49-.49A.49.49,0,0,0,4.3,7.16Z"/>
        <path class="cls-1" d="M13.76,5.22a.49.49,0,0,0,1,0,.49.49,0,0,0-1,0Z"/>
        <path class="cls-1" d="M12.51,6.71A.49.49,0,1,0,13,6.22.49.49,0,0,0,12.51,6.71Z"/>
        <path class="cls-1" d="M16.3,4.16a.49.49,0,1,0-.49-.49A.49.49,0,0,0,16.3,4.16Z"/>
        <path class="cls-1" d="M12.3,9.16a.49.49,0,1,0-.49-.49A.49.49,0,0,0,12.3,9.16Z"/>
        <path class="cls-1" d="M13.84,3.61a.48.48,0,0,0,.48-.49.47.47,0,0,0-.48-.48.48.48,0,0,0-.49.48A.49.49,0,0,0,13.84,3.61Z"/>
        <path class="cls-1" d="M3.3,8.16a.49.49,0,1,0-.49-.49A.49.49,0,0,0,3.3,8.16Z"/>
        <path class="cls-1" d="M2.3,11.16a.49.49,0,1,0-.49-.49A.49.49,0,0,0,2.3,11.16Z"/>
        <path class="cls-1" d="M4.3,10.16a.49.49,0,1,0-.49-.49A.49.49,0,0,0,4.3,10.16Z"/>
        <path class="cls-1" d="M3.3,5.16a.49.49,0,1,0-.49-.49A.49.49,0,0,0,3.3,5.16Z"/>
        <path class="cls-1" d="M5.3,6.16a.49.49,0,1,0-.49-.49A.49.49,0,0,0,5.3,6.16Z"/>
        <path class="cls-1" d="M12.3,3.16a.49.49,0,1,0-.49-.49A.49.49,0,0,0,12.3,3.16Z"/>
        <path class="cls-1" d="M15.3,2.16a.49.49,0,1,0-.49-.49A.49.49,0,0,0,15.3,2.16Z"/>
        <path class="cls-1" d="M12.3,1.16a.49.49,0,1,0-.49-.49A.49.49,0,0,0,12.3,1.16Z"/>
      </g>
    </g>
  </g>
</svg>
