<svg xmlns="http://www.w3.org/2000/svg" height="30" width="30" viewBox="0 0 16 16">
  <defs>
    <style>
      .cls-1 {
        fill: #fff;
      }
    </style>
  </defs>
  <title>Expand</title>
  <g id="Layer_2" data-name="Layer 2">
    <g id="Layer_1-2" data-name="Layer 1">
      <path class="cls-1" d="M15.5,0H12.26a.5.5,0,0,0-.5.5.5.5,0,0,0,.5.5h1.92L10.45,4.84a.51.51,0,0,0,0,.71.54.54,0,0,0,.35.14.51.51,0,0,0,.36-.15L15,1.59V3.84a.5.5,0,0,0,1,0V.5A.5.5,0,0,0,15.5,0Z"/>
      <path class="cls-1" d="M1.82,1H3.74a.5.5,0,0,0,.5-.5.5.5,0,0,0-.5-.5H.5A.5.5,0,0,0,0,.5V3.84a.5.5,0,0,0,.5.5.5.5,0,0,0,.5-.5V1.59l3.83,4a.51.51,0,0,0,.36.15.54.54,0,0,0,.35-.14.51.51,0,0,0,0-.71Z"/>
      <path class="cls-1" d="M4.83,10.46,1,14.41V12.16a.5.5,0,0,0-.5-.5.5.5,0,0,0-.5.5V15.5a.5.5,0,0,0,.5.5H3.74a.5.5,0,1,0,0-1H1.82l3.73-3.84a.5.5,0,1,0-.72-.7Z"/>
      <path class="cls-1" d="M15.5,11.66a.5.5,0,0,0-.5.5v2.25l-3.83-3.95a.5.5,0,1,0-.72.7L14.18,15H12.26a.5.5,0,1,0,0,1H15.5a.5.5,0,0,0,.5-.5V12.16A.5.5,0,0,0,15.5,11.66Z"/>
    </g>
  </g>
</svg>
