<svg xmlns="http://www.w3.org/2000/svg" viewBox="0 0 20.96 17">
  <defs>
    <style>
      .cls-1 {
        fill: #231f20;
      }
    </style>
  </defs>
  <title>Explore</title>
  <g id="Layer_2" data-name="Layer 2">
    <g id="Layer_1-2" data-name="Layer 1">
      <path class="cls-1" d="M20.74,15.67l-2.68-2.9a4.55,4.55,0,0,0-1.27-6.22V1.05a1,1,0,0,0-1-1H1.05A1,1,0,0,0,0,1.05V12a1.05,1.05,0,0,0,1.05,1.06h9.51a4.51,4.51,0,0,0,6.42.86l2.6,2.81a.79.79,0,1,0,1.16-1.08ZM8.92,3.32h6.81V6A4.45,4.45,0,0,0,10.9,7.14h-2ZM7.86,12H1.06V8.2h6.8Zm0-4.88H1.06V3.32h6.8ZM8.92,12V8.2h1.23A4.48,4.48,0,0,0,9.94,12Zm1.75-1.7a3.53,3.53,0,1,1,3.52,3.53A3.53,3.53,0,0,1,10.67,10.32Z"/>
    </g>
  </g>
</svg>
