<svg xmlns="http://www.w3.org/2000/svg" viewBox="0 0 20.95 16.93">
  <defs>
    <style>
      .cls-1 {
        fill: #fff;
      }
    </style>
  </defs>
  <title>Explore</title>
  <g id="Layer_2" data-name="Layer 2">
    <g id="Layer_1-2" data-name="Layer 1">
      <g id="Layer_1-2-2" data-name="Layer 1-2">
        <path class="cls-1" d="M20.74,15.62l-2.68-2.9A4.55,4.55,0,0,0,16.79,6.5V1a1,1,0,0,0-1-1H1.05A1,1,0,0,0,0,1V12A1,1,0,0,0,1,13h9.52a4.52,4.52,0,0,0,6.31,1l.11-.09,2.6,2.81a.79.79,0,1,0,1.16-1.08h0ZM8.92,3.27h6.81V6A4.46,4.46,0,0,0,10.9,7.09h-2ZM7.86,12H1.06V8.15h6.8Zm0-4.88H1.06V3.27h6.8ZM8.92,12V8.15h1.23A4.48,4.48,0,0,0,9.94,12Zm1.75-1.7a3.53,3.53,0,1,1,3.53,3.53h0a3.52,3.52,0,0,1-3.52-3.51Z"/>
      </g>
    </g>
  </g>
</svg>
