<svg xmlns="http://www.w3.org/2000/svg" viewBox="0 0 13.73 15.99" height="30" width="30">
  <defs>
    <style>
      .cls-1 {
        fill: #fff;
      }
    </style>
  </defs>
  <title>External</title>
  <g id="Layer_2" data-name="Layer 2">
    <g id="Layer_1-2" data-name="Layer 1">
      <path class="cls-1" d="M13.44,8.51,10,5a.51.51,0,0,0-.71,0,.5.5,0,0,0,0,.71l3.39,3.39L6.87,14.92,1.08,9.14,4,6.21A.5.5,0,0,0,3.3,5.5L.22,8.58a.82.82,0,0,0,0,1.14l6,6A.94.94,0,0,0,6.9,16h0a.7.7,0,0,0,.52-.21l6.1-6.09A.83.83,0,0,0,13.44,8.51Z"/>
      <path class="cls-1" d="M4.8,3.3,6.32,1.78V10.3a.5.5,0,0,0,1,0V1.62L9,3.3a.47.47,0,0,0,.35.15.5.5,0,0,0,.35-.85L7.26.14a.51.51,0,0,0-.71,0L4.09,2.6a.5.5,0,0,0,0,.7A.5.5,0,0,0,4.8,3.3Z"/>
    </g>
  </g>
</svg>
