<?xml version="1.0" encoding="utf-8"?>
<!-- Generator: Adobe Illustrator 25.2.3, SVG Export Plug-In . SVG Version: 6.00 Build 0)  -->
<svg version="1.1" id="Calque_1" xmlns="http://www.w3.org/2000/svg" xmlns:xlink="http://www.w3.org/1999/xlink" x="0px"
	y="0px" viewBox="0 0 16 16" style="enable-background:new 0 0 16 16;" xml:space="preserve" width="30" height="30">
	<style type="text/css">
		.st0 {
			fill-rule: evenodd;
			clip-rule: evenodd;
			fill: #FFFFFF;
		}
	</style>
	<polygon class="st0" points="10.4,7.4 10.4,7.4 10.5,7.4 " />
	<path class="st0" d="M10.3,7.5L9.6,8.1c-0.8,0.8-0.8,2.1,0,2.9c0.8,0.8,2,0.8,2.8,0.1l0.1-0.1l0.7-0.7c0,0,0.1-0.1,0.1-0.2
	c0,0,0-0.1,0-0.1l0-0.1l-0.5-0.5c0,0-0.1-0.1-0.2-0.1c-0.1,0-0.1,0-0.2,0.1c-0.1,0.1-0.1,0.2,0,0.3l0,0.1l0.3,0.3l-0.5,0.5
	c-0.6,0.6-1.6,0.6-2.2,0c-0.6-0.6-0.6-1.5-0.1-2.1L10,8.5L10.5,8l0.3,0.3c0,0,0.1,0.1,0.2,0.1c0.1,0,0.1,0,0.2-0.1
	c0.1-0.1,0.1-0.2,0-0.3l0-0.1l-0.5-0.5c0,0-0.1-0.1-0.2-0.1C10.4,7.4,10.4,7.4,10.3,7.5L10.3,7.5z" />
	<path class="st0" d="M0,3.6v9.4c0,0.5,0.4,0.9,0.9,0.9h8.6l0.3-0.9H5.5V9.6h2.5l0.3-0.9H5.5V5.5h5.1l1.1-2.8H0.9
	C0.4,2.7,0,3.1,0,3.6z M4.1,12.9H0.9V9.6h3.2h0L4.1,12.9z M4.1,5.5l0,3.3H0.9V5.5H4.1L4.1,5.5z" />
	<path class="st0" d="M14.1,6.5c-0.1-0.1-0.3-0.1-0.5-0.1l-0.1,0.1l-2.8,2.8c-0.1,0.1-0.1,0.4,0,0.5c0.1,0.1,0.3,0.1,0.5,0.1l0.1-0.1
	L14.1,7C14.3,6.9,14.3,6.7,14.1,6.5z" />
	<path class="st0" d="M12.6,5.1l-0.1,0.1L11.8,6c-0.1,0.1-0.1,0.2,0,0.3l0,0.1l0.5,0.5c0,0,0.1,0.1,0.2,0.1c0.1,0,0.1,0,0.2-0.1
	c0.1-0.1,0.1-0.2,0-0.3l0-0.1l-0.3-0.3l0.5-0.5C13.4,5,14.4,5,15,5.6c0.3,0.3,0.5,0.7,0.5,1.1c0,0.4-0.1,0.7-0.4,1L15,7.8l-0.5,0.5
	L14.2,8c0,0-0.1-0.1-0.2-0.1s-0.1,0-0.2,0.1c-0.1,0.1-0.1,0.2,0,0.3l0,0.1l0.5,0.5c0.1,0.1,0.2,0.1,0.3,0l0.1,0l0.7-0.7
	c0.8-0.8,0.8-2.1,0-2.9C14.6,4.5,13.4,4.5,12.6,5.1z" />
</svg>