<svg xmlns="http://www.w3.org/2000/svg" viewBox="0 0 10.7 14">
  <defs>
    <style>
      .cls-1 {
        fill: #fff;
      }
    </style>
  </defs>
  <title>ExternalDB</title>
  <g id="Layer_2" data-name="Layer 2">
    <g id="Layer_1-2" data-name="Layer 1">
      <g>
        <path class="cls-1" d="M5.35,3.13c3.21,0,5.35-.94,5.35-1.57S8.56,0,5.35,0,0,.94,0,1.56,2.13,3.13,5.35,3.13Z"/>
        <path class="cls-1" d="M0,3v9.42C0,13.06,2.13,14,5.35,14s5.35-.94,5.35-1.57V3A11.08,11.08,0,0,1,5.35,4.13,11.05,11.05,0,0,1,0,3Zm7.82,5.1V9.56H4.48v1.32h3.8v1.46H2.65v-7H8.18V6.8H4.48V8.11Z"/>
      </g>
    </g>
  </g>
</svg>
