<svg xmlns="http://www.w3.org/2000/svg" width="30" height="30" viewBox="0 0 15.13 8.58">
  <defs>
    <style>
      .cls-1 {
        fill: #fff;
      }
    </style>
  </defs>
  <title>Float</title>
  <g id="Layer_2" data-name="Layer 2">
    <g id="Layer_1-2" data-name="Layer 1">
      <g>
        <path class="cls-1" d="M0,.07H3.37v8.4H1.76v-7H0Z"/>
        <path class="cls-1" d="M6.51,7.09a.83.83,0,0,1,.23.61.85.85,0,0,1-.23.63.82.82,0,0,1-1.18,0A.92.92,0,0,1,5.1,7.7a.87.87,0,0,1,.23-.61.85.85,0,0,1,1.18,0Z"/>
        <path class="cls-1" d="M14.2,1.1a4.81,4.81,0,0,1,.93,3.17,4.78,4.78,0,0,1-.93,3.16,3.35,3.35,0,0,1-2.68,1.1,3.35,3.35,0,0,1-2.68-1.1,4.78,4.78,0,0,1-.93-3.16A4.81,4.81,0,0,1,8.84,1.1,3.35,3.35,0,0,1,11.52,0,3.35,3.35,0,0,1,14.2,1.1ZM10,2a4.19,4.19,0,0,0-.48,2.27A4.21,4.21,0,0,0,10,6.54a1.65,1.65,0,0,0,1.48.73A1.65,1.65,0,0,0,13,6.54a4.21,4.21,0,0,0,.48-2.27A4.19,4.19,0,0,0,13,2a1.65,1.65,0,0,0-1.48-.73A1.65,1.65,0,0,0,10,2Z"/>
      </g>
    </g>
  </g>
</svg>
