<svg xmlns="http://www.w3.org/2000/svg" width="30" height="30" viewBox="0 0 14.7 8.56">
  <defs>
    <style>
      .cls-1 {
        fill: white;
      }
    </style>
  </defs>
  <title>Float</title>
  <g id="Layer_2" data-name="Layer 2">
    <g id="Layer_1-2" data-name="Layer 1">
      <path class="cls-1" d="M0,.05H3.06v8.4H1.91V1.09H0Z"/>
      <path class="cls-1" d="M6.07,7.37a.69.69,0,0,1,.18.49.71.71,0,0,1-.18.5.63.63,0,0,1-.47.2.61.61,0,0,1-.46-.2.69.69,0,0,1-.2-.5.66.66,0,0,1,.2-.49.6.6,0,0,1,.46-.19A.63.63,0,0,1,6.07,7.37Z"/>
      <path class="cls-1" d="M13.79,1.1a4.79,4.79,0,0,1,.91,3.15,4.79,4.79,0,0,1-.91,3.15,3.19,3.19,0,0,1-2.61,1.11A3.19,3.19,0,0,1,8.57,7.4a4.85,4.85,0,0,1-.9-3.15,4.85,4.85,0,0,1,.9-3.15A3.21,3.21,0,0,1,11.18,0,3.21,3.21,0,0,1,13.79,1.1ZM8.86,4.25a4.36,4.36,0,0,0,.58,2.49,2,2,0,0,0,1.74.84,2,2,0,0,0,1.74-.84,4.28,4.28,0,0,0,.59-2.49C13.51,2,12.74.91,11.18.91S8.86,2,8.86,4.25Z"/>
    </g>
  </g>
</svg>
