<svg xmlns="http://www.w3.org/2000/svg" width="30" height="30" viewBox="0 0 17 14.39">
  <defs>
    <style>
      .cls-1 {
        fill: #fff;
      }
    </style>
  </defs>
  <title>Folder</title>
  <g id="Layer_2" data-name="Layer 2">
    <g id="Layer_1-2" data-name="Layer 1">
      <path class="cls-1" d="M15.89,2.37H7.68L6.84.79A1.13,1.13,0,0,0,5.78,0H1.11A1.11,1.11,0,0,0,0,1.11V13.28a1.11,1.11,0,0,0,1.11,1.11H15.89A1.11,1.11,0,0,0,17,13.28V3.48A1.11,1.11,0,0,0,15.89,2.37ZM16,13.28a.11.11,0,0,1-.11.11H1.11A.11.11,0,0,1,1,13.28V3.37H15.89a.11.11,0,0,1,.11.11Z"/>
    </g>
  </g>
</svg>
