<svg xmlns="http://www.w3.org/2000/svg" viewBox="0 0 14.61 17" width="30" height="30">
  <defs>
    <style>
      .cls-1 {
        fill: #fff;
      }
    </style>
  </defs>
  <title>FormatSQL</title>
  <g id="Layer_2" data-name="Layer 2">
    <g id="Layer_1-2" data-name="Layer 1">
      <path class="cls-1" d="M.5,5.47A.5.5,0,0,1,0,5V.5A.5.5,0,0,1,.5,0H5a.5.5,0,0,1,.5.5A.5.5,0,0,1,5,1H1V5A.5.5,0,0,1,.5,5.47Z"/>
      <path class="cls-1" d="M14.11,17H9.64a.5.5,0,0,1,0-1h4V12a.5.5,0,0,1,.5-.5.5.5,0,0,1,.5.5V16.5A.5.5,0,0,1,14.11,17Z"/>
      <path class="cls-1" d="M11.52,12.92H7.06a.5.5,0,0,1-.5-.5.5.5,0,0,1,.5-.5h4.46a.51.51,0,0,1,.5.5A.5.5,0,0,1,11.52,12.92Z"/>
      <path class="cls-1" d="M10,9H5.57a.5.5,0,0,1,0-1H10a.5.5,0,0,1,0,1Z"/>
      <path class="cls-1" d="M7.54,5.08H3.09a.51.51,0,0,1-.5-.5.5.5,0,0,1,.5-.5H7.54a.5.5,0,0,1,.5.5A.5.5,0,0,1,7.54,5.08Z"/>
    </g>
  </g>
</svg>
