<svg xmlns="http://www.w3.org/2000/svg" viewBox="0 0 19.8 19.3" width="30" height="30">
  <defs>
    <style>
      .cls-1 {
        fill: #fff;
      }
    </style>
  </defs>
  <title>FormatSQL</title>
  <g id="Layer_2" data-name="Layer 2">
    <g id="Layer_1-2" data-name="Layer 1">
      <path class="cls-1" d="M4.83,5.32a.51.51,0,0,0-.71,0l-4,4a.5.5,0,0,0,0,.71l4,4a.49.49,0,0,0,.35.15A.51.51,0,0,0,4.83,14a.5.5,0,0,0,0-.7L1.21,9.65,4.83,6A.51.51,0,0,0,4.83,5.32Z"/>
      <path class="cls-1" d="M19.66,9.29l-4-4a.51.51,0,0,0-.71,0A.5.5,0,0,0,15,6L18.6,9.65,15,13.27a.5.5,0,0,0,.35.85.51.51,0,0,0,.36-.15l4-4A.51.51,0,0,0,19.66,9.29Z"/>
      <path class="cls-1" d="M14,0c-1.06-.33-2.59,2-4.54,7l-2.4,5.62a1.13,1.13,0,0,0-.1.44,2.48,2.48,0,0,0-1.08,1.23,6.17,6.17,0,0,0-.16,2.48,4.57,4.57,0,0,1,0,.49,1.7,1.7,0,0,1-.46.94.63.63,0,0,0,0,.73.65.65,0,0,0,.55.3h.13a7.93,7.93,0,0,0,4-2.11,3.42,3.42,0,0,0,.47-2.65,1.25,1.25,0,0,0,.26-.41l2.11-5.89c.56-1.49,2.31-6.46,1.69-7.76A.86.86,0,0,0,14,0ZM9.76,13.79a.15.15,0,0,1-.08.08.16.16,0,0,1-.12,0l-1.49-.6C8,13.26,8,13.22,8,13.2a.1.1,0,0,1,0-.12l.17-.4,1.75.68Zm-.53,2.72a6.16,6.16,0,0,1-2.64,1.57,1.69,1.69,0,0,0,.17-.79c0-.15,0-.33,0-.52a5.37,5.37,0,0,1,.09-2,1.44,1.44,0,0,1,.6-.69,1,1,0,0,0,.28.18l1.49.59a.94.94,0,0,0,.29.06A2.42,2.42,0,0,1,9.23,16.51Zm2.65-8.62-1.63,4.53-1.7-.66L10.4,7.45c1.1-2.84,2.66-6,3.24-6.43C13.81,1.83,12.9,5.12,11.88,7.89Z"/>
    </g>
  </g>
</svg>
