<svg xmlns="http://www.w3.org/2000/svg" width="30" height="30" viewBox="0 0 16 16">
    <g fill="none" fill-rule="evenodd">
        <g fill="#6B778C">
            <g>
                <g>
                    <path d="M8.497 9.387l.065.052c.12.12.137.304.051.443l-.051.065-3.22 3.22h1.575c.204 0 .374.148.41.342l.006.075c0 .205-.147.375-.341.41L6.917 14h-2.5L4.39 14c-.102.008-.208-.026-.286-.105-.08-.079-.114-.186-.103-.29L4 13.584v-2.5c0-.23.187-.417.417-.417.204 0 .374.148.41.342l.006.075v1.577l3.22-3.222c.121-.12.305-.137.444-.052zm5.112-5.386c.102-.008.208.026.286.105.08.08.114.186.103.29l.002.021v2.5c0 .23-.187.417-.417.417-.204 0-.374-.148-.41-.342l-.006-.075V5.34l-3.22 3.222c-.121.12-.305.137-.444.052l-.065-.052c-.12-.12-.137-.304-.051-.443l.051-.065 3.22-3.22h-1.575c-.204 0-.374-.148-.41-.342l-.006-.075c0-.204.147-.375.341-.41L11.083 4h2.5l.026.001z" transform="translate(-779.000000, -605.000000) translate(771.000000, 602.000000) translate(8.000000, 3.000000)"/>
                </g>
            </g>
        </g>
    </g>
</svg>
