<svg xmlns="http://www.w3.org/2000/svg" width="30" height="30" viewBox="0 0 17 14.71">
  <defs>
    <style>
      .cls-1 {
        fill: #fff;
      }
    </style>
  </defs>
  <title>Function</title>
  <g id="Layer_2" data-name="Layer 2">
    <g id="Layer_1-2" data-name="Layer 1">
      <path class="cls-1" d="M6.65,6.37H5.27L5.6,4A3.57,3.57,0,0,1,6.9,1.26,2.16,2.16,0,0,1,8.57,1.1.5.5,0,0,0,9.21.81.49.49,0,0,0,8.92.17,3.12,3.12,0,0,0,6.39.4,4.45,4.45,0,0,0,4.61,3.88L4.26,6.37H3a.5.5,0,0,0,0,1H4.11l-.47,3.31A3.78,3.78,0,0,1,2.2,13.49a1.92,1.92,0,0,1-1.51.12.5.5,0,0,0-.65.27.51.51,0,0,0,.27.66,3.1,3.1,0,0,0,1,.17,2.74,2.74,0,0,0,1.34-.34c1-.56,1.67-1.75,2-3.54l.49-3.46H6.65a.5.5,0,0,0,0-1Z"/>
      <path class="cls-1" d="M10.59,11.84c-.85-.38-1.47-1.75-1.47-3.25s.62-2.87,1.47-3.25a.5.5,0,0,0-.41-.91C9,5,8.12,6.65,8.12,8.59S9,12.2,10.18,12.75a.52.52,0,0,0,.21,0,.5.5,0,0,0,.2-.95Z"/>
      <path class="cls-1" d="M14.94,4.43a.5.5,0,1,0-.41.91C15.38,5.72,16,7.09,16,8.59s-.62,2.87-1.47,3.25a.5.5,0,0,0,.2.95.52.52,0,0,0,.21,0C16.17,12.2,17,10.53,17,8.59S16.17,5,14.94,4.43Z"/>
      <path class="cls-1" d="M14.5,10.41,13.18,8.59,14.5,6.76a.51.51,0,0,0-.11-.7.5.5,0,0,0-.7.12L12.56,7.73,11.43,6.18a.5.5,0,0,0-.7-.12.51.51,0,0,0-.11.7l1.32,1.83-1.32,1.82a.51.51,0,0,0,.11.7.49.49,0,0,0,.3.1.5.5,0,0,0,.4-.21l1.13-1.56L13.69,11a.49.49,0,0,0,.4.21.47.47,0,0,0,.3-.1A.51.51,0,0,0,14.5,10.41Z"/>
    </g>
  </g>
</svg>
