<svg xmlns="http://www.w3.org/2000/svg" fill="white" width="30" height="30" viewBox="0 0 360 360">
  <path d="M63.242,331.073l-58.242,0l38.145,-180.264l-32.608,0l8.818,-41.221l31.993,0l3.076,-14.355c5.058,-23.926 12.578,-40.4 22.558,-49.424c11.348,-13.398 33.223,-20.097 65.625,-20.097c3.692,0 7.007,0.102 9.947,0.307c2.939,0.205 7.007,0.513 12.202,0.923l-10.254,47.578c-3.145,-0.41 -8.545,-0.718 -16.201,-0.923c-7.656,-0.205 -13.364,1.504 -17.124,5.127c-3.76,3.623 -6.05,7.622 -6.87,11.997c-0.957,4.375 -2.325,10.664 -4.102,18.867l38.35,0l-8.819,41.221l-38.349,0l-38.145,180.264Zm123.227,-19l-20.606,0l-6.933,-9.473c-4.492,-5.729 -9.278,-14.258 -14.356,-25.586c-9.049,-20.247 -13.574,-40.169 -13.574,-59.765c0,-17.839 3.809,-35.547 11.426,-53.125c5.143,-11.98 12.663,-24.87 22.558,-38.672l20.996,0l-5.957,10.937c-8.203,15.039 -13.899,30.795 -17.089,47.266c-2.084,10.807 -3.125,22.591 -3.125,35.351c0,19.922 2.897,38.249 8.691,54.981c3.385,9.896 9.375,22.591 17.969,38.086Zm136.328,0l-20.606,0c8.594,-15.495 14.584,-28.19 17.969,-38.086c5.794,-16.732 8.692,-35.059 8.692,-54.981c0,-12.76 -1.042,-24.544 -3.125,-35.351c-3.191,-16.471 -8.887,-32.227 -17.09,-47.266l-5.957,-10.937l20.996,0c9.896,13.802 17.415,26.692 22.558,38.672c7.618,17.578 11.426,35.286 11.426,53.125c0,19.596 -4.525,39.518 -13.574,59.765c-5.078,11.328 -9.863,19.857 -14.356,25.586l-6.933,9.473Zm-97.559,-40.332l-33.789,0l36.328,-53.906l-34.765,-52.344l34.082,0l17.773,30.859l17.383,-30.859l33.105,0l-34.96,51.855l36.328,54.395l-34.668,0l-18.36,-31.934l-18.457,31.934Z" />
</svg>