<svg xmlns="http://www.w3.org/2000/svg" width="30" height="30" viewBox="0 0 16.56 16.86">
  <defs>
    <style>
      .cls-1 {
        fill: #fff;
      }
    </style>
  </defs>
  <title>Filter</title>
  <g id="Layer_2" data-name="Layer 2">
    <g id="Layer_1-2" data-name="Layer 1">
      <path class="cls-1" d="M7.41,16.86A1.06,1.06,0,0,1,7,16.77a1,1,0,0,1-.58-.91l0-6.39L.2,1.44A.87.87,0,0,1,.08.52.86.86,0,0,1,.88,0h14.8a.86.86,0,0,1,.8.52.85.85,0,0,1-.14.94L10.15,9.62v4.74a1,1,0,0,1-.35.76l-1.74,1.5A1,1,0,0,1,7.41,16.86ZM1.12,1,7.2,8.93a.39.39,0,0,1,.08.14l.1.31a.41.41,0,0,1,0,.16v6.32l1.74-1.5V9.54a.41.41,0,0,1,0-.16l.1-.31a.64.64,0,0,1,.08-.14L15.44,1ZM15.68,1h0ZM15.57.83ZM1,.8H1Z"/>
    </g>
  </g>
</svg>
