<?xml version="1.0" encoding="UTF-8"?>
<svg width="18px" height="16px" viewBox="0 0 18 16" version="1.1" xmlns="http://www.w3.org/2000/svg" xmlns:xlink="http://www.w3.org/1999/xlink">
    <title>Glossary</title>
    <g id="Glossary" stroke="none" stroke-width="1" fill="none" fill-rule="evenodd">
        <path d="M15.9270588,13.3647059 C16.3169069,13.3647059 16.6329412,13.6807402 16.6329412,14.0705882 C16.6329412,14.4604363 16.3169069,14.7764706 15.9270588,14.7764706 L15.9270588,14.7764706 L1.80941176,14.7764706 C1.41956371,14.7764706 1.10352941,14.4604363 1.10352941,14.0705882 C1.10352941,13.6807402 1.41956371,13.3647059 1.80941176,13.3647059 L1.80941176,13.3647059 Z M13.5741176,10.0705882 C13.9639657,10.0705882 14.28,10.3866225 14.28,10.7764706 C14.28,11.1663186 13.9639657,11.4823529 13.5741176,11.4823529 L13.5741176,11.4823529 L1.80941176,11.4823529 C1.41956371,11.4823529 1.10352941,11.1663186 1.10352941,10.7764706 C1.10352941,10.3866225 1.41956371,10.0705882 1.80941176,10.0705882 L1.80941176,10.0705882 Z M14.9858824,6.77647059 C15.3757304,6.77647059 15.6917647,7.09250488 15.6917647,7.48235294 C15.6917647,7.872201 15.3757304,8.18823529 14.9858824,8.18823529 L14.9858824,8.18823529 L1.80941176,8.18823529 C1.41956371,8.18823529 1.10352941,7.872201 1.10352941,7.48235294 C1.10352941,7.09250488 1.41956371,6.77647059 1.80941176,6.77647059 L1.80941176,6.77647059 Z M10.7505882,3.48235294 C11.1404363,3.48235294 11.4564706,3.79838724 11.4564706,4.18823529 C11.4564706,4.57808335 11.1404363,4.89411765 10.7505882,4.89411765 L10.7505882,4.89411765 L1.80941176,4.89411765 C1.41956371,4.89411765 1.10352941,4.57808335 1.10352941,4.18823529 C1.10352941,3.79838724 1.41956371,3.48235294 1.80941176,3.48235294 L1.80941176,3.48235294 Z M15.9270588,0.188235294 C16.3169069,0.188235294 16.6329412,0.504269588 16.6329412,0.894117647 C16.6329412,1.28396571 16.3169069,1.6 15.9270588,1.6 L15.9270588,1.6 L1.80941176,1.6 C1.41956371,1.6 1.10352941,1.28396571 1.10352941,0.894117647 C1.10352941,0.504269588 1.41956371,0.188235294 1.80941176,0.188235294 L1.80941176,0.188235294 Z" id="Combined-Shape" fill="#6B778C"></path>
    </g>
</svg>