<?xml version="1.0" encoding="utf-8"?>
<!-- Generator: Adobe Illustrator 25.0.0, SVG Export Plug-In . SVG Version: 6.00 Build 0)  -->
<svg version="1.1" id="Calque_1" xmlns="http://www.w3.org/2000/svg" xmlns:xlink="http://www.w3.org/1999/xlink" x="0px" y="0px"
	 viewBox="0 0 18 16" style="enable-background:new 0 0 18 16;" xml:space="preserve">
<style type="text/css">
	.st0{fill:#6B778C;}
</style>
<path class="st0" d="M15.9,13.4H1.8c-0.4,0-0.7,0.3-0.7,0.7c0,0.4,0.3,0.7,0.7,0.7h14.1c0.4,0,0.7-0.3,0.7-0.7S16.3,13.4,15.9,13.4z
	"/>
<path class="st0" d="M15.9,0.2H1.8c-0.4,0-0.7,0.3-0.7,0.7s0.3,0.7,0.7,0.7h14.1c0.4,0,0.7-0.3,0.7-0.7S16.3,0.2,15.9,0.2z"/>
<path class="st0" d="M1.8,8.2H15c0.4,0,0.7-0.3,0.7-0.7c0-0.4-0.3-0.7-0.7-0.7H1.8c-0.4,0-0.7,0.3-0.7,0.7S1.4,8.2,1.8,8.2z"/>
<path class="st0" d="M1.8,10.1c-0.4,0-0.7,0.3-0.7,0.7s0.3,0.7,0.7,0.7h11.8c0.4,0,0.7-0.3,0.7-0.7c0-0.4-0.3-0.7-0.7-0.7H1.8z"/>
<path class="st0" d="M10.8,4.9c0.4,0,0.7-0.3,0.7-0.7s-0.3-0.7-0.7-0.7H1.8c-0.4,0-0.7,0.3-0.7,0.7s0.3,0.7,0.7,0.7H10.8z"/>
</svg>
