<?xml version="1.0" encoding="utf-8"?>
<!-- Generator: Adobe Illustrator 25.0.0, SVG Export Plug-In . SVG Version: 6.00 Build 0)  -->
<svg version="1.1" id="Calque_1" xmlns="http://www.w3.org/2000/svg" xmlns:xlink="http://www.w3.org/1999/xlink" x="0px" y="0px"
	 viewBox="0 0 18 16" style="enable-background:new 0 0 18 16;" xml:space="preserve">
<style type="text/css">
	.st0{fill:#6B778C;}
</style>
<polygon class="st0" points="14,2 4,2 4,1 1,1 1,4 4,4 4,3 6,3 6,13 14,13 14,14 17,14 17,11 14,11 14,12 7,12 7,8 14,8 14,9 17,9 
	17,6 14,6 14,7 7,7 7,3 14,3 14,4 17,4 17,1 14,1 "/>
</svg>
