<svg xmlns="http://www.w3.org/2000/svg" width="30" height="30" viewBox="0 0 16 16">
  <defs>
    <style>
      .cls-1 {
        fill: #fff;
      }
    </style>
  </defs>
  <title>Grid</title>
  <g id="Layer_2" data-name="Layer 2">
    <g id="Layer_1-2" data-name="Layer 1">
      <path class="cls-1" d="M7,7.67H.71A.75.75,0,0,1,0,6.88V.78A.74.74,0,0,1,.71,0H7a.74.74,0,0,1,.71.78v6.1A.74.74,0,0,1,7,7.67Zm-6-1H6.67V1H1Z"/>
      <path class="cls-1" d="M15.29,7.67H9a.75.75,0,0,1-.71-.79V.78A.74.74,0,0,1,9,0h6.25A.74.74,0,0,1,16,.78v6.1A.74.74,0,0,1,15.29,7.67Zm-6-1H15V1H9.33Z"/>
      <path class="cls-1" d="M7,16H.71A.74.74,0,0,1,0,15.22V9.12a.74.74,0,0,1,.71-.79H7a.75.75,0,0,1,.71.79v6.1A.74.74,0,0,1,7,16ZM1,15H6.67V9.33H1Z"/>
      <path class="cls-1" d="M15.29,16H9a.74.74,0,0,1-.71-.78V9.12A.74.74,0,0,1,9,8.33h6.25a.75.75,0,0,1,.71.79v6.1A.74.74,0,0,1,15.29,16Zm-6-1H15V9.33H9.33Z"/>
    </g>
  </g>
</svg>
