<svg xmlns="http://www.w3.org/2000/svg" width="30" height="30" viewBox="0 0 17 12.07">
  <defs>
    <style>
      .cls-1 {
        fill: white;
      }
    </style>
  </defs>
  <title>Group</title>
  <g id="Layer_2" data-name="Layer 2">
    <g id="Layer_1-2" data-name="Layer 1">
      <path class="cls-1" d="M14.63,6.64A2.45,2.45,0,0,0,13,2.36a2.48,2.48,0,0,0-1.53.55,3,3,0,0,0-5.94,0A2.48,2.48,0,0,0,4,2.36,2.45,2.45,0,0,0,1.55,4.81a2.42,2.42,0,0,0,.82,1.82,4.25,4.25,0,0,0-1.06.68,4,4,0,0,0-1.31,3v1a.85.85,0,0,0,.85.85h15.3a.85.85,0,0,0,.85-.85v-.8A4.18,4.18,0,0,0,14.63,6.64ZM6.42,5.11a2,2,0,0,0,.27.22c-.12,0-.23.1-.35.15A2.21,2.21,0,0,0,6.42,5.11Zm4.24.37-.36-.14a3.45,3.45,0,0,0,.28-.23A2.21,2.21,0,0,0,10.66,5.48ZM13,3.36a1.46,1.46,0,1,1-1.45,1.45A1.45,1.45,0,0,1,13,3.36ZM8.5,1a2,2,0,1,1-2,2A2,2,0,0,1,8.5,1ZM4,3.36A1.46,1.46,0,1,1,2.55,4.81,1.45,1.45,0,0,1,4,3.36Zm-.45,7.71H1v-.81a3,3,0,0,1,3-3h.31c-.12.2-.23.41-.33.62,0,0,0,0,0,0a4.12,4.12,0,0,0-.27.84c0,.07,0,.14-.05.21a4.71,4.71,0,0,0-.1.92Zm1,.06V9.91a4,4,0,0,1,.09-.77,1.41,1.41,0,0,1,.06-.22,3,3,0,0,1,.16-.51L5,8.15a3.3,3.3,0,0,1,.23-.41l.19-.27A4,4,0,0,1,5.85,7,3.88,3.88,0,0,1,8.5,6l.39,0A3.88,3.88,0,0,1,11.7,7.71l.15.21c.07.12.12.25.18.38s.1.2.14.3a2.3,2.3,0,0,1,.12.43c0,.1.07.2.09.3a4.9,4.9,0,0,1,.07.77v1H9.85v0ZM16,11.07H13.45v-1a6.54,6.54,0,0,0-.08-.88L13.31,9a4.37,4.37,0,0,0-.17-.62l-.08-.23a6.77,6.77,0,0,0-.33-.66l-.05-.1,0-.08a2.91,2.91,0,0,1,.66,0A3.11,3.11,0,0,1,16,10.42Z"/>
    </g>
  </g>
</svg>
