<svg xmlns="http://www.w3.org/2000/svg" width="30" height="30" viewBox="0 0 17 17">
  <defs>
    <style>
      .cls-1 {
        fill: #fff;
      }
    </style>
  </defs>
  <title>Help</title>
  <g id="Layer_2" data-name="Layer 2">
    <g id="Layer_1-2" data-name="Layer 1">
      <g>
        <path class="cls-1" d="M8.5,17A8.5,8.5,0,1,1,17,8.5,8.51,8.51,0,0,1,8.5,17Zm0-16A7.5,7.5,0,1,0,16,8.5,7.5,7.5,0,0,0,8.5,1Z"/>
        <rect class="cls-1" x="8.14" y="12.39" width="1.45" height="1.45" rx="0.72" transform="translate(17.72 26.23) rotate(-180)"/>
        <path class="cls-1" d="M8.86,11.51a.76.76,0,0,1-.75-.75V10a3,3,0,0,1,.22-1.27,3.39,3.39,0,0,1,.8-1,7.14,7.14,0,0,0,.78-.84A.87.87,0,0,0,10,6.38a1.11,1.11,0,0,0-.36-.88,1.47,1.47,0,0,0-1.08-.36,1.5,1.5,0,0,0-1.15.42A1.67,1.67,0,0,0,7,6.78a.75.75,0,1,1-1.5,0,3.19,3.19,0,0,1,.82-2.25,3,3,0,0,1,2.24-.89,3,3,0,0,1,2.11.76,2.66,2.66,0,0,1,.83,2,2.23,2.23,0,0,1-.34,1.27,6.56,6.56,0,0,1-1,1.1,1.94,1.94,0,0,0-.47.56,1.65,1.65,0,0,0-.08.64v.81A.76.76,0,0,1,8.86,11.51Z"/>
      </g>
    </g>
  </g>
</svg>
