<?xml version="1.0" encoding="utf-8"?>
<!-- Generator: Adobe Illustrator 24.3.0, SVG Export Plug-In . SVG Version: 6.00 Build 0)  -->
<svg version="1.1" id="Calque_1" xmlns="http://www.w3.org/2000/svg" xmlns:xlink="http://www.w3.org/1999/xlink" x="0px" y="0px"
	 viewBox="0 0 30 30" style="enable-background:new 0 0 30 30;" xml:space="preserve">
<style type="text/css">
	.st0{fill:#FFFFFF;}
</style>
<path class="st0" d="M15,30C6.7,30,0,23.3,0,15S6.7,0,15,0s15,6.7,15,15C30,23.3,23.3,30,15,30z M15,1.8C7.7,1.8,1.8,7.7,1.8,15
	S7.7,28.2,15,28.2S28.2,22.3,28.2,15S22.3,1.8,15,1.8z"/>
<path class="st0" d="M15.6,24.4L15.6,24.4c-0.7,0-1.3-0.6-1.3-1.3v0c0-0.7,0.6-1.3,1.3-1.3h0c0.7,0,1.3,0.6,1.3,1.3v0
	C16.9,23.9,16.3,24.4,15.6,24.4z"/>
<path class="st0" d="M15.7,20.3c-1.4,0-1.2-1.8-1.1-2.9c0-2.2,2.2-3.2,2.9-5.2c1.5-4.3-5.6-4.6-5-0.3c0.1,0.7-0.6,1.4-1.3,1.3
	c-2.3-0.3-1.1-4.1,0.1-5.3c5.3-5.3,12.4,2.2,6.7,7.7C16.4,17.2,18.1,20.4,15.7,20.3z"/>
</svg>
