<svg xmlns="http://www.w3.org/2000/svg" viewBox="0 0 16.5 16.25">
  <defs>
    <style>
      .cls-1 {
        fill: #fff;
      }
    </style>
  </defs>
  <title>Home</title>
  <g id="Layer_2" data-name="Layer 2">
    <g id="Layer_1-2" data-name="Layer 1">
      <path class="cls-1" d="M16.21,5.85,9.05.3a1.22,1.22,0,0,0-1.57,0L.29,5.85A.74.74,0,0,0,.16,6.9a.72.72,0,0,0,.59.29A.79.79,0,0,0,1.21,7l.57-.45v8.68a1,1,0,0,0,1,1H13.72a1,1,0,0,0,1-1V6.59l.57.44a.75.75,0,0,0,.92-1.18Zm-2.49,9.4-10.94,0V5.82L8.25,1.57l5.47,4.24Z"/>
    </g>
  </g>
</svg>
