<?xml version="1.0" encoding="utf-8"?>
<!-- Generator: Adobe Illustrator 25.1.0, SVG Export Plug-In . SVG Version: 6.00 Build 0)  -->
<svg version="1.1"  xmlns="http://www.w3.org/2000/svg" xmlns:xlink="http://www.w3.org/1999/xlink" x="0px" y="0px"
	 viewBox="0 0 18 16" style="enable-background:new 0 0 18 16;" xml:space="preserve" width="30" height="30">
<style type="text/css">
	.st0{fill:#FFFFFF;}
</style>
<path class="st0" d="M11.6,6.1c-0.2-0.2-0.4-0.4-0.6-0.5c-0.3-0.1-0.6-0.2-1-0.2H8.9V10h1.4c0.2,0,0.4,0,0.7-0.1
	c0.2-0.1,0.4-0.2,0.6-0.4c0.2-0.2,0.3-0.4,0.4-0.7C12,8.6,12,8.2,12,7.8c0-0.4,0-0.7-0.1-1S11.8,6.3,11.6,6.1z"/>
<path class="st0" d="M16,0H2C0.9,0,0,0.9,0,2v12c0,1.1,0.9,2,2,2h14c1.1,0,2-0.9,2-2V2C18,0.9,17.1,0,16,0z M5.9,11.3H4.3V4.2h1.6
	V11.3z M13.4,9.1c-0.1,0.4-0.3,0.8-0.6,1.1c-0.3,0.3-0.6,0.6-1,0.8c-0.4,0.2-0.9,0.3-1.4,0.3H7.3V4.2h3.1c0.5,0,0.9,0.1,1.3,0.2
	c0.4,0.1,0.7,0.4,1,0.7c0.3,0.3,0.5,0.7,0.7,1.1c0.2,0.4,0.2,1,0.2,1.6C13.6,8.2,13.5,8.7,13.4,9.1z"/>
</svg>
