<svg xmlns="http://www.w3.org/2000/svg" viewBox="0 0 16 16">
  <defs>
    <style>
      .cls-1 {
        fill: #fff;
      }
    </style>
  </defs>
  <title>ID</title>
  <g id="Layer_2" data-name="Layer 2">
    <g id="Layer_1-2" data-name="Layer 1">
      <path class="cls-1" d="M14,16H11.33a.5.5,0,1,1,0-1H14a1,1,0,0,0,1-1V11.33a.5.5,0,1,1,1,0V14A2,2,0,0,1,14,16Z"/>
      <path class="cls-1" d="M15.5,5.17a.5.5,0,0,1-.5-.5V2a1,1,0,0,0-1-1H11.33a.5.5,0,0,1,0-1H14a2,2,0,0,1,2,2V4.67A.5.5,0,0,1,15.5,5.17Z"/>
      <path class="cls-1" d="M.5,5.17a.5.5,0,0,1-.5-.5V2A2,2,0,0,1,2,0H4.67a.5.5,0,0,1,0,1H2A1,1,0,0,0,1,2V4.67A.5.5,0,0,1,.5,5.17Z"/>
      <path class="cls-1" d="M4.67,16H2a2,2,0,0,1-2-2V11.33a.5.5,0,0,1,1,0V14a1,1,0,0,0,1,1H4.67a.5.5,0,1,1,0,1Z"/>
      <path class="cls-1" d="M3,4.5H4.86v7H3Z"/>
      <path class="cls-1" d="M11.18,4.93A3.23,3.23,0,0,1,12.5,6.17,3.56,3.56,0,0,1,13,8a3.61,3.61,0,0,1-.47,1.83,3.25,3.25,0,0,1-1.34,1.23,4.26,4.26,0,0,1-2,.44H6.22v-7h3A4.17,4.17,0,0,1,11.18,4.93Zm-.95,4.84a1.64,1.64,0,0,0,.64-.71A2.32,2.32,0,0,0,11.1,8a2.23,2.23,0,0,0-.24-1,1.82,1.82,0,0,0-.68-.72A1.88,1.88,0,0,0,9.2,6H8.05v4H9.29A1.74,1.74,0,0,0,10.23,9.77Z"/>
    </g>
  </g>
</svg>
