<svg xmlns="http://www.w3.org/2000/svg" viewBox="0 0 15.94 16" height="30" width="30">
  <defs>
    <style>
      .cls-1 {
        fill: #fff;
      }
    </style>
  </defs>
  <title>InProgress</title>
  <g id="Layer_2" data-name="Layer 2">
    <g id="Layer_1-2" data-name="Layer 1">
      <path class="cls-1" d="M10.88,8a.24.24,0,0,0-.11-.21L6.57,5a.23.23,0,0,0-.24,0,.27.27,0,0,0-.12.22v5.5a.29.29,0,0,0,.13.22.22.22,0,0,0,.24,0L10.77,8.2A.24.24,0,0,0,10.88,8Z"/>
      <path class="cls-1" d="M7.84,15a.5.5,0,0,0,0,1h.1a8,8,0,0,0,0-16h-.1a.46.46,0,0,0-.45.5.54.54,0,0,0,.55.5,7,7,0,0,1,0,14Z"/>
      <path class="cls-1" d="M2.19,3.68a.48.48,0,0,0,.38-.18l.13-.14a.49.49,0,0,0-.05-.7.5.5,0,0,0-.7,0l-.14.16a.5.5,0,0,0,.38.82Z"/>
      <path class="cls-1" d="M.87,5.45a.45.45,0,0,0,.2,0,.51.51,0,0,0,.46-.3L1.6,5a.47.47,0,0,0-.26-.63.54.54,0,0,0-.68.28l-.05.12A.5.5,0,0,0,.87,5.45Z"/>
      <path class="cls-1" d="M2.59,12.52a.5.5,0,0,0-.76.64l.13.16a.52.52,0,0,0,.38.17.48.48,0,0,0,.33-.13.48.48,0,0,0,0-.7Z"/>
      <path class="cls-1" d="M1,8.91a.47.47,0,0,0-.56-.38A.54.54,0,0,0,0,9.14l0,.11a.38.38,0,0,0,.43.33H.59A.59.59,0,0,0,1,8.91Z"/>
      <path class="cls-1" d="M.44,7.54H.5A.5.5,0,0,0,1,7.11l0-.17a.5.5,0,0,0-.41-.58A.52.52,0,0,0,0,6.77L0,7A.51.51,0,0,0,.44,7.54Z"/>
      <path class="cls-1" d="M1.53,10.83a.5.5,0,0,0-.91.41l.09.18a.48.48,0,0,0,.45.29.52.52,0,0,0,.21,0A.5.5,0,0,0,1.61,11Z"/>
      <path class="cls-1" d="M4.23,13.94l-.15-.1a.5.5,0,0,0-.69.14.49.49,0,0,0,.14.69l.17.12a.52.52,0,0,0,.27.07.5.5,0,0,0,.26-.92Z"/>
      <path class="cls-1" d="M6.05,14.74l-.18-.05a.5.5,0,0,0-.28,1l.19.06h.14a.49.49,0,0,0,.48-.36A.51.51,0,0,0,6.05,14.74Z"/>
      <path class="cls-1" d="M3.78,2.26a.49.49,0,0,0,.28-.09l.15-.09a.51.51,0,0,0,.16-.69.49.49,0,0,0-.69-.16l-.18.11a.5.5,0,0,0-.13.7A.49.49,0,0,0,3.78,2.26Z"/>
      <path class="cls-1" d="M5.7,1.34l.15,0L6,1.26A.49.49,0,0,0,6.37.65.5.5,0,0,0,5.75.3l-.2.06A.5.5,0,0,0,5.23,1,.49.49,0,0,0,5.7,1.34Z"/>
    </g>
  </g>
</svg>
