<svg xmlns="http://www.w3.org/2000/svg" width="30" height="30" viewBox="0 0 18.23 8.54">
  <defs>
    <style>
      .cls-1 {
        fill: #fff;
      }
    </style>
  </defs>
  <title>Integar</title>
  <g id="Layer_2" data-name="Layer 2">
    <g id="Layer_1-2" data-name="Layer 1">
      <g>
        <path class="cls-1" d="M0,.07H3.37v8.4H1.76v-7H0Z"/>
        <path class="cls-1" d="M11.24,7.07v1.4H5V7.31L8.2,4a5.25,5.25,0,0,0,.73-.9,1.52,1.52,0,0,0,.27-.76.83.83,0,0,0-.36-.72,1.69,1.69,0,0,0-1-.26,3,3,0,0,0-1.18.28,4.31,4.31,0,0,0-1.17.77L4.86,1.21A6.32,6.32,0,0,1,6.43.32,4.52,4.52,0,0,1,8.08,0,3.88,3.88,0,0,1,9.54.26a2.37,2.37,0,0,1,1,.75,1.85,1.85,0,0,1,.35,1.13,2.48,2.48,0,0,1-.42,1.29A9.16,9.16,0,0,1,9.29,4.91L7.15,7.07Z"/>
        <path class="cls-1" d="M17.54,4.28a2,2,0,0,1,.69,1.58,2.44,2.44,0,0,1-.41,1.39,2.68,2.68,0,0,1-1.16.95,4.27,4.27,0,0,1-1.77.34,5.65,5.65,0,0,1-1.68-.25,5.28,5.28,0,0,1-1.43-.69l.64-1.25A3.79,3.79,0,0,0,13.54,7a3.53,3.53,0,0,0,1.24.22,2.31,2.31,0,0,0,1.38-.36,1.14,1.14,0,0,0,.5-1,1.07,1.07,0,0,0-.5-1,2.48,2.48,0,0,0-1.4-.33H13.49v-1l2.25-2.18H12.2V.07h5.62v1L15.24,3.53l.44.05A3.19,3.19,0,0,1,17.54,4.28Z"/>
      </g>
    </g>
  </g>
</svg>
