<svg xmlns="http://www.w3.org/2000/svg" width="30" height="30" viewBox="0 0 17.7 8.51">
  <defs>
    <style>
      .cls-1 {
        fill: white;
      }
    </style>
  </defs>
  <title>Integer</title>
  <g id="Layer_2" data-name="Layer 2">
    <g id="Layer_1-2" data-name="Layer 1">
      <path class="cls-1" d="M0,.05H3.06v8.4H1.91V1.09H0Z"/>
      <path class="cls-1" d="M10.88,7.4v1H4.81V7.56L8.06,4.19A4.83,4.83,0,0,0,8.9,3.14a1.85,1.85,0,0,0,.32-.91,1.07,1.07,0,0,0-.44-.89A2,2,0,0,0,7.57,1a3.1,3.1,0,0,0-1.22.27A3.81,3.81,0,0,0,5.2,2l-.5-.88A5.85,5.85,0,0,1,6.16.31,4.13,4.13,0,0,1,7.72,0a3.19,3.19,0,0,1,2,.56,1.82,1.82,0,0,1,.74,1.52A4.47,4.47,0,0,1,8.86,4.81L6.32,7.4Z"/>
      <path class="cls-1" d="M17,4.27a1.93,1.93,0,0,1,.74,1.59,2.4,2.4,0,0,1-.4,1.38,2.64,2.64,0,0,1-1.14.93,4,4,0,0,1-1.73.34,5.58,5.58,0,0,1-1.59-.24,4.82,4.82,0,0,1-1.37-.64L12,6.7a4.1,4.1,0,0,0,1.13.61,4,4,0,0,0,1.27.21A2.6,2.6,0,0,0,16,7.08a1.4,1.4,0,0,0,.59-1.19A1.26,1.26,0,0,0,16,4.76a3,3,0,0,0-1.65-.39H13.17V3.64l2.58-2.55H11.88v-1h5.4V.78l-2.82,2.8.5,0A3.54,3.54,0,0,1,17,4.27Z"/>
    </g>
  </g>
</svg>
