<svg xmlns="http://www.w3.org/2000/svg" width="30" height="30" viewBox="0 0 16 16">
    <g fill="none" fill-rule="evenodd">
        <path d="M13.147 1.186a.392.392 0 0 1 .334.275l.408 1.175c.264.083.52.19.767.317l1.125-.534a.408.408 0 0 1 .433.042c.494.374.935.814 1.308 1.308.083.133.083.301 0 .434l-.533 1.125c.126.246.232.503.317.766l1.183.425a.4.4 0 0 1 .267.334c.066.304.11.614.133.925a6.45 6.45 0 0 1-.075.925.425.425 0 0 1-.267.341l-1.183.417c-.083.264-.19.52-.317.767l.534 1.125c.083.132.083.3 0 .433a6.492 6.492 0 0 1-1.309 1.308.408.408 0 0 1-.433.05l-1.125-.541a5.725 5.725 0 0 1-.767.325l-.425 1.175a.425.425 0 0 1-.333.275c-.32.042-.643.064-.967.066a7.783 7.783 0 0 1-.925-.066.425.425 0 0 1-.333-.275l-.408-1.175a5.725 5.725 0 0 1-.767-.325l-1.125.541a.408.408 0 0 1-.433-.05 6.492 6.492 0 0 1-1.309-1.308.408.408 0 0 1-.05-.433l.542-1.125a4.783 4.783 0 0 1-.333-.784l-1.184-.4a.425.425 0 0 1-.266-.341 6.45 6.45 0 0 1-.075-.925 6.45 6.45 0 0 1 .075-.925.4.4 0 0 1 .266-.334l1.184-.408c.083-.264.189-.52.316-.767l-.541-1.141a.408.408 0 0 1 .05-.434 6.95 6.95 0 0 1 1.308-1.308.408.408 0 0 1 .433-.042l1.125.534c.251-.129.514-.235.784-.317l.408-1.175a.392.392 0 0 1 .333-.275c.613-.1 1.238-.1 1.85 0zm-1.491.758-.4 1.167a.408.408 0 0 1-.275.258 5.25 5.25 0 0 0-1 .409.4.4 0 0 1-.375 0l-1.084-.5a6.05 6.05 0 0 0-.833.833l.517 1.083a.417.417 0 0 1 0 .384 4.583 4.583 0 0 0-.409.991.408.408 0 0 1-.258.275l-1.15.375a4.442 4.442 0 0 0 0 .559 4.667 4.667 0 0 0 0 .566l1.133.4a.4.4 0 0 1 .259.284 5 5 0 0 0 .408.991.417.417 0 0 1 0 .384l-.467 1.075c.25.304.53.583.834.833l1.083-.517a.4.4 0 0 1 .375 0c.317.174.652.311 1 .409a.408.408 0 0 1 .275.258l.367 1.15a4.3 4.3 0 0 0 1.133 0l.4-1.133a.408.408 0 0 1 .275-.259 4.758 4.758 0 0 0 1-.408.4.4 0 0 1 .375 0l1.083.517c.304-.25.584-.53.834-.834l-.517-1.075a.417.417 0 0 1 0-.383c.17-.315.307-.648.408-.992a.4.4 0 0 1 .259-.283l1.15-.417a4.667 4.667 0 0 0 0-.566 4.442 4.442 0 0 0 0-.559l-1.167-.408a.408.408 0 0 1-.258-.275 5 5 0 0 0-.409-.992.417.417 0 0 1 0-.383l.517-1.083a6.05 6.05 0 0 0-.833-.834l-1.084.517a.4.4 0 0 1-.375 0 5.25 5.25 0 0 0-1-.408.408.408 0 0 1-.275-.259l-.383-1.15a5.15 5.15 0 0 0-1.133 0zm2.626 3.663.062.049c.115.114.131.29.05.421l-.05.062-3.067 3.068h1.5c.193 0 .353.136.39.316l.008.08a.397.397 0 0 1-.317.39l-.08.007h-2.401a.346.346 0 0 1-.277-.1.341.341 0 0 1-.098-.276L10 9.604V7.221a.397.397 0 0 1 .786-.08l.008.08v1.501l3.067-3.067a.342.342 0 0 1 .421-.05zM4.907 12.26a.196.196 0 0 1 .167.137l.204.588c.132.041.26.094.383.158l.563-.267a.204.204 0 0 1 .216.021c.248.187.468.407.654.654a.204.204 0 0 1 0 .217l-.266.563c.063.123.116.251.158.383l.592.212a.2.2 0 0 1 .133.167c.033.152.056.307.067.463-.002.154-.014.309-.038.462a.213.213 0 0 1-.133.17l-.592.21c-.041.131-.094.26-.158.383l.267.562a.204.204 0 0 1 0 .217 3.246 3.246 0 0 1-.655.654.204.204 0 0 1-.216.025l-.563-.27a2.863 2.863 0 0 1-.383.162l-.213.587a.213.213 0 0 1-.166.138c-.16.02-.322.032-.484.033a3.892 3.892 0 0 1-.462-.033.213.213 0 0 1-.167-.138l-.204-.587c-.131-.045-.26-.1-.383-.163l-.563.27a.204.204 0 0 1-.216-.024 3.246 3.246 0 0 1-.655-.654.204.204 0 0 1-.025-.217l.271-.562a2.392 2.392 0 0 1-.166-.392l-.592-.2a.213.213 0 0 1-.133-.17 3.225 3.225 0 0 1-.038-.463c.001-.155.014-.31.038-.463a.2.2 0 0 1 .133-.167l.592-.204c.041-.132.094-.26.158-.383l-.27-.57a.204.204 0 0 1 .024-.218c.188-.246.408-.466.654-.654a.204.204 0 0 1 .217-.02l.562.266c.126-.064.257-.117.392-.158l.204-.588a.196.196 0 0 1 .167-.137c.306-.05.619-.05.925 0zm-.746.379-.2.583a.204.204 0 0 1-.137.13c-.174.05-.341.118-.5.204a.2.2 0 0 1-.188 0l-.542-.25a3.025 3.025 0 0 0-.416.416l.258.542a.208.208 0 0 1 0 .192 2.292 2.292 0 0 0-.204.495.204.204 0 0 1-.13.138l-.574.187a2.22 2.22 0 0 0 0 .28 2.333 2.333 0 0 0 0 .283l.566.2a.2.2 0 0 1 .13.142 2.5 2.5 0 0 0 .204.495.208.208 0 0 1 0 .192l-.234.538c.125.152.265.291.417.416l.542-.258a.2.2 0 0 1 .187 0c.159.087.326.155.5.204a.204.204 0 0 1 .138.13l.183.574c.188.025.379.025.567 0l.2-.566a.204.204 0 0 1 .137-.13 2.38 2.38 0 0 0 .5-.204.2.2 0 0 1 .188 0l.541.259c.153-.125.292-.265.417-.417l-.258-.538a.208.208 0 0 1 0-.191c.085-.158.153-.324.204-.496a.2.2 0 0 1 .13-.142l.574-.208a2.333 2.333 0 0 0 0-.283 2.22 2.22 0 0 0 0-.28l-.583-.204a.204.204 0 0 1-.13-.137 2.5 2.5 0 0 0-.204-.496.208.208 0 0 1 0-.192l.259-.541a3.025 3.025 0 0 0-.417-.417l-.542.258a.2.2 0 0 1-.187 0 2.625 2.625 0 0 0-.5-.204.204.204 0 0 1-.138-.13l-.191-.574a2.575 2.575 0 0 0-.567 0zm1.212 1.806a.17.17 0 0 1 .182.183V15.833a.198.198 0 0 1-.39.053l-.006-.053v-.75l-1.534 1.534a.171.171 0 0 1-.197.032l-.045-.032a.171.171 0 0 1-.032-.198l.032-.044 1.534-1.535-.75.001a.198.198 0 0 1-.192-.145l-.007-.053c0-.11.09-.199.199-.199l1.206.001z"/>
    </g>
</svg>
