<svg xmlns="http://www.w3.org/2000/svg" fill="white" width="30" height="30" viewBox="0 0 360 360">
  <path d="M190.444,306.133l8.69,-8.69c3.807,-3.806 4.337,-9.854 1.25,-14.265l-8.439,-12.04c3.274,-5.653 5.796,-11.71 7.501,-18.016l14.453,-2.5c5.333,-0.893 9.285,-5.545 9.302,-10.953l0,-12.402c-0.017,-5.407 -3.969,-10.06 -9.302,-10.952l-14.453,-2.501c-1.705,-6.306 -4.227,-12.363 -7.501,-18.016l8.439,-11.877c3.087,-4.411 2.557,-10.459 -1.25,-14.266l-8.69,-8.689c-3.806,-3.807 -9.854,-4.337 -14.265,-1.25l-12.04,8.439c-5.652,-3.275 -11.709,-5.797 -18.016,-7.501l-2.5,-14.453c-0.892,-5.333 -5.545,-9.285 -10.953,-9.302l-12.452,0c-5.369,0.036 -9.986,3.949 -10.902,9.239l-2.501,14.453c-6.306,1.705 -12.363,4.227 -18.016,7.502l-11.877,-8.44c-4.411,-3.086 -10.459,-2.556 -14.265,1.251l-8.69,8.689c-3.775,3.832 -4.263,9.878 -1.15,14.265l8.439,12.04c-3.275,5.653 -5.797,11.71 -7.501,18.016l-14.453,2.501c-5.333,0.892 -9.285,5.545 -9.302,10.952l0,12.402c0.017,5.408 3.969,10.061 9.302,10.953l14.453,2.5c1.704,6.307 4.226,12.364 7.501,18.016l-8.439,11.878c-3.087,4.41 -2.557,10.459 1.25,14.265l8.69,8.689c3.806,3.807 9.854,4.337 14.265,1.25l12.04,-8.439c5.653,3.275 11.71,5.796 18.016,7.502l2.5,14.453c0.892,5.333 5.545,9.284 10.953,9.301l12.402,0c5.407,-0.017 10.06,-3.968 10.952,-9.301l2.501,-14.453c6.306,-1.705 12.363,-4.227 18.016,-7.502l11.79,8.339c4.387,3.113 10.433,2.626 14.265,-1.15l-0.013,0.063Zm-63.962,-39.521c-18.176,0 -33.132,-14.956 -33.132,-33.131c0,-18.176 14.956,-33.132 33.132,-33.132c18.175,0 33.131,14.956 33.131,33.132c0,0.012 0,0.025 0,0.037c-0.02,18.161 -14.97,33.094 -33.131,33.094Zm199.827,-183.536c-1.403,-5.189 -6.372,-8.659 -11.727,-8.189l-13.153,1.15c-4.585,-6.917 -10.512,-12.843 -17.428,-17.429l1.137,-13.165c0.48,-5.371 -3.005,-10.357 -8.214,-11.752l-11.852,-3.101c-5.247,-1.357 -10.76,1.301 -12.965,6.251l-5.589,11.79c-8.267,0.494 -16.348,2.659 -23.755,6.364l-10.827,-7.601c-4.41,-3.087 -10.459,-2.557 -14.265,1.25l-8.689,8.689c-3.807,3.806 -4.337,9.855 -1.251,14.265l7.689,10.828c-3.705,7.406 -5.87,15.488 -6.363,23.754l-12.103,5.701c-4.95,2.206 -7.608,7.719 -6.251,12.966l3.101,11.852c1.393,5.199 6.365,8.681 11.727,8.214l13.153,-1.15c4.585,6.916 10.512,12.843 17.428,17.428l-1.15,13.153c-0.394,5.347 3.124,10.257 8.314,11.602l11.852,3.101c5.247,1.357 10.76,-1.301 12.965,-6.251l5.589,-12.003c8.314,-0.437 16.453,-2.564 23.917,-6.251l10.828,7.689c4.41,3.087 10.459,2.557 14.265,-1.25l8.689,-8.69c3.807,-3.806 4.337,-9.854 1.25,-14.265l-7.601,-10.827c3.705,-7.407 5.87,-15.488 6.364,-23.755l12.002,-5.588c4.95,-2.206 7.608,-7.719 6.251,-12.965l-3.338,-11.815Zm-59.562,43.146c-4.343,4.301 -10.215,6.717 -16.328,6.717c-12.73,0 -23.205,-10.475 -23.205,-23.205c0,-12.73 10.475,-23.204 23.205,-23.204c12.728,0 23.203,10.473 23.205,23.201c0,6.192 -2.477,12.134 -6.877,16.491Z" />
</svg>