<svg xmlns="http://www.w3.org/2000/svg" width="30" height="30" viewBox="0 0 16 14.6">
  <defs>
    <style>
      .cls-1 {
        fill: #fff;
      }
    </style>
  </defs>
  <title>Jobs</title>
  <g id="Layer_2" data-name="Layer 2">
    <g id="Layer_1-2" data-name="Layer 1">
      <circle class="cls-1" cx="4.09" cy="10.51" r="0.98"/>
      <path class="cls-1" d="M4.61,14.6a.51.51,0,0,1-.36-.15l-.37-.39-.42.34a.49.49,0,0,1-.45.1,3.92,3.92,0,0,1-1.5-.78.47.47,0,0,1-.18-.45l.06-.5a.76.76,0,0,1-.08-.11l-.6-.13a.46.46,0,0,1-.34-.28A4,4,0,0,1,0,10.77a.49.49,0,0,1,.24-.46l.39-.23a4.39,4.39,0,0,1,.12-.57L.51,9a.49.49,0,0,1,0-.47,3.92,3.92,0,0,1,.82-1,.5.5,0,0,1,.51-.1l.41.15a3.59,3.59,0,0,1,.85-.37l.2-.43a.48.48,0,0,1,.41-.29,3.1,3.1,0,0,1,.61,0,4.07,4.07,0,0,1,.61.08.53.53,0,0,1,.37.34l.15.45a3.81,3.81,0,0,1,.8.47l.42-.1a.53.53,0,0,1,.5.16A4.28,4.28,0,0,1,7.87,9a.52.52,0,0,1,0,.47l-.3.46a2.78,2.78,0,0,1,.06.58l.35.27a.5.5,0,0,1,.19.48,4.19,4.19,0,0,1-.54,1.44.52.52,0,0,1-.38.23L6.59,13l-.1.1v.5a.52.52,0,0,1-.23.43,4,4,0,0,1-1.59.59ZM3.93,13h.14a.51.51,0,0,1,.36.15l.35.37a2.7,2.7,0,0,0,.72-.26v-.44a.53.53,0,0,1,.18-.39,2.91,2.91,0,0,0,.31-.3A.47.47,0,0,1,6.31,12L6.84,12a3.18,3.18,0,0,0,.23-.58l-.3-.24a.47.47,0,0,1-.2-.39,2.3,2.3,0,0,0-.07-.8.51.51,0,0,1,.07-.4l.26-.4a2.14,2.14,0,0,0-.23-.38l-.36.09a.55.55,0,0,1-.46-.12,2.45,2.45,0,0,0-.89-.54.48.48,0,0,1-.31-.31l-.13-.4-.18,0H4.09l-.17.38a.5.5,0,0,1-.35.27,2.49,2.49,0,0,0-.95.43.52.52,0,0,1-.47.06L1.8,8.47a3,3,0,0,0-.27.35l.21.43a.51.51,0,0,1,0,.4,2.39,2.39,0,0,0-.16.75.35.35,0,0,1,0,.14.49.49,0,0,1-.22.27L1,11a3.29,3.29,0,0,0,.15.6l.53.11a.6.6,0,0,1,.31.21,2.78,2.78,0,0,0,.26.34.48.48,0,0,1,.13.41l-.05.43a2.85,2.85,0,0,0,.67.35l.4-.33A.51.51,0,0,1,3.81,13l.12,0Z"/>
      <circle class="cls-1" cx="11.04" cy="4.93" r="1.23"/>
      <path class="cls-1" d="M12,9.88a.51.51,0,0,1-.34-.14l-.56-.52h0l-.56.52a.52.52,0,0,1-.44.13A5,5,0,0,1,8.13,9a.51.51,0,0,1-.21-.44l0-.68-.18-.2L7,7.59a.51.51,0,0,1-.36-.26,4.92,4.92,0,0,1-.56-1.79.52.52,0,0,1,.22-.47l.51-.35a3.8,3.8,0,0,1,.13-.81l-.37-.63a.52.52,0,0,1,0-.47,4.92,4.92,0,0,1,.93-1.32A.51.51,0,0,1,8,1.36l.58.18A4.48,4.48,0,0,1,9.67,1L9.91.36A.5.5,0,0,1,10.3.05a5.24,5.24,0,0,1,1.48,0,.5.5,0,0,1,.39.31l.24.61a4.48,4.48,0,0,1,1.11.57l.58-.18a.54.54,0,0,1,.51.13,5.3,5.3,0,0,1,.92,1.32.52.52,0,0,1,0,.47l-.36.63a4.51,4.51,0,0,1,.12.82l.51.34a.52.52,0,0,1,.22.47,5.11,5.11,0,0,1-.55,1.79.53.53,0,0,1-.37.26l-.79.12-.18.2,0,.68A.48.48,0,0,1,14,9a5,5,0,0,1-1.89.84Zm-.77-1.66a.59.59,0,0,1,.39.13l.52.48a3.71,3.71,0,0,0,1-.46l-.05-.62a.5.5,0,0,1,.16-.4,3.6,3.6,0,0,0,.37-.41.51.51,0,0,1,.32-.19l.73-.11A4.28,4.28,0,0,0,15,5.72l-.46-.31A.51.51,0,0,1,14.28,5a3.3,3.3,0,0,0-.15-1,.51.51,0,0,1,0-.4L14.51,3a3.67,3.67,0,0,0-.42-.61l-.52.16a.5.5,0,0,1-.47-.09,3.12,3.12,0,0,0-1.2-.62.49.49,0,0,1-.33-.3L11.35,1a3.21,3.21,0,0,0-.62,0l-.22.55a.49.49,0,0,1-.33.3A3.12,3.12,0,0,0,9,2.48a.5.5,0,0,1-.47.09L8,2.41A3.67,3.67,0,0,0,7.57,3l.34.58A.51.51,0,0,1,8,4,3.28,3.28,0,0,0,7.8,5a.53.53,0,0,1-.22.43l-.46.31a4.28,4.28,0,0,0,.29.92l.73.11a.51.51,0,0,1,.32.19,3.6,3.6,0,0,0,.37.41.5.5,0,0,1,.16.4l-.05.62a3.71,3.71,0,0,0,1,.46l.52-.48a.47.47,0,0,1,.37-.14h.32Z"/>
    </g>
  </g>
</svg>
