<svg xmlns="http://www.w3.org/2000/svg" viewBox="0 0 14.22 14.22">
  <defs>
    <style>
      .cls-1 {
        fill: #fff;
      }
    </style>
  </defs>
  <title>Join</title>
  <g id="Layer_2" data-name="Layer 2">
    <g id="Layer_1-2" data-name="Layer 1">
      <g>
        <path class="cls-1" d="M13,7.09l-1.4-1.4a.48.48,0,0,0-.7,0L9.84,6.75a.5.5,0,0,0,0,.7.5.5,0,0,0,.71,0l.7-.7,1,1a3.2,3.2,0,0,1,0,4.51,3.28,3.28,0,0,1-4.5,0l-1-1.05.71-.7a.51.51,0,0,0,0-.71.5.5,0,0,0-.71,0L5.69,10.9a.5.5,0,0,0,0,.71L7.08,13A4.18,4.18,0,0,0,13,7.09Z"/>
        <path class="cls-1" d="M3.68,6.77,3,7.48l-1-1.05A3.13,3.13,0,0,1,1,4.18a3.16,3.16,0,0,1,.93-2.25,3.26,3.26,0,0,1,4.5,0l1,1-.7.71a.5.5,0,0,0,0,.7.5.5,0,0,0,.71,0l1.06-1a.51.51,0,0,0,0-.71l-1.4-1.4a4.19,4.19,0,0,0-5.92,0,4.2,4.2,0,0,0,0,5.92l1.4,1.4a.51.51,0,0,0,.7,0L4.39,7.48a.51.51,0,0,0,0-.71A.5.5,0,0,0,3.68,6.77Z"/>
        <path class="cls-1" d="M3.75,3.75a.77.77,0,0,0,0,1.07l5.66,5.65a.75.75,0,0,0,1.06,0,.75.75,0,0,0,0-1.06L4.81,3.75A.75.75,0,0,0,3.75,3.75Z"/>
      </g>
    </g>
  </g>
</svg>
