<svg xmlns="http://www.w3.org/2000/svg" viewBox="0 0 17 17" height="30" width="30">
  <defs>
    <style>
      .cls-1 {
        fill: #fff;
      }
    </style>
  </defs>
  <title>Label</title>
  <g id="Layer_2" data-name="Layer 2">
    <g id="Layer_1-2" data-name="Layer 1">
      <circle class="cls-1" cx="14.02" cy="2.98" r="0.74"/>
      <path class="cls-1" d="M7.21,17a.61.61,0,0,1-.45-.19L.19,10.24a.63.63,0,0,1,0-.9L9,.58A.66.66,0,0,1,9.44.39L16.34,0A.66.66,0,0,1,17,.6l-.39,7a.61.61,0,0,1-.19.43L7.66,16.81A.61.61,0,0,1,7.21,17ZM1.15,9.79l6.06,6.06,8.41-8.41L16,1l-6.42.36ZM15.62,7.54a.28.28,0,0,0,0,.09ZM9.47,1.39h0Z"/>
    </g>
  </g>
</svg>
