<svg xmlns="http://www.w3.org/2000/svg" viewBox="0 0 15.86 15.86" height="30" width="30">
  <defs>
    <style>
      .cls-1 {
        fill: #fff;
        fill-rule: evenodd;
      }
    </style>
  </defs>
  <title>Lifecycle</title>
  <g id="Layer_2" data-name="Layer 2">
    <g id="Layer_1-2" data-name="Layer 1">
      <path id="Combined-Shape" class="cls-1" d="M14.4,9a.56.56,0,0,1,.38.68,8,8,0,0,1-3.94,4.84l-.26.14.53.15a.55.55,0,0,1-.21,1.07l-.09,0L9,15.32a.53.53,0,0,1-.4-.58l0-.09.52-1.85a.55.55,0,0,1,1.07.21l0,.09-.17.6a6.86,6.86,0,0,0,3.73-4.34A.55.55,0,0,1,14.4,9ZM1.13,8.75l.09,0,1.85.52a.55.55,0,0,1-.21,1.07H2.77l-.6-.17A6.86,6.86,0,0,0,6.5,13.9.55.55,0,0,1,6.21,15,8,8,0,0,1,1.36,11l-.13-.26-.15.53a.54.54,0,0,1-.68.38.55.55,0,0,1-.4-.59L0,11,.54,9.15A.55.55,0,0,1,1.13,8.75ZM4.78,0l.09,0L6.72.54a.55.55,0,0,1,.39.59v.09L6.58,3.07A.55.55,0,0,1,5.5,2.86l0-.09.17-.6A6.84,6.84,0,0,0,2,6.5a.53.53,0,0,1-.67.38.53.53,0,0,1-.38-.67A7.94,7.94,0,0,1,4.84,1.36l.27-.13-.54-.15A.56.56,0,0,1,4.19.4.56.56,0,0,1,4.78,0ZM9,.83A.56.56,0,0,1,9.66.45a8,8,0,0,1,5,4.2h0l.15-.54a.55.55,0,1,1,1.05.3h0l-.52,1.85a.54.54,0,0,1-.67.38h0L12.8,6.12a.55.55,0,1,1,.3-1.06h0l.6.17A6.82,6.82,0,0,0,9.36,1.51.56.56,0,0,1,9,.83Z"/>
    </g>
  </g>
</svg>
