<svg xmlns="http://www.w3.org/2000/svg" viewBox="0 0 12.12 17">
  <defs>
    <style>
      .cls-1 {
        fill: #fff;
      }
    </style>
  </defs>
  <title>Lock</title>
  <g id="Layer_2" data-name="Layer 2">
    <g id="Layer_1-2" data-name="Layer 1">
      <g>
        <path class="cls-1" d="M11.15,6.55h-.41V4.68a4.68,4.68,0,0,0-9.36,0V6.55H1a1,1,0,0,0-1,1v5.24A4.26,4.26,0,0,0,4.25,17H7.87a4.26,4.26,0,0,0,4.25-4.25V7.51A1,1,0,0,0,11.15,6.55ZM2.38,4.68a3.68,3.68,0,0,1,7.36,0V6.55H2.38Zm8.74,8.07A3.26,3.26,0,0,1,7.87,16H4.25A3.26,3.26,0,0,1,1,12.75l0-5.2,10.16,0Z"/>
        <path class="cls-1" d="M5.59,12v.87a.47.47,0,0,0,.47.47.46.46,0,0,0,.46-.47V12a.92.92,0,1,0-.93,0Z"/>
      </g>
    </g>
  </g>
</svg>
