<svg xmlns="http://www.w3.org/2000/svg" width="30" height="30" viewBox="0 0 12 16">
  <defs>
    <style>
      .cls-1 {
        fill: #fff;
      }
    </style>
  </defs>
  <title>Logs</title>
  <g id="Layer_2" data-name="Layer 2">
    <g id="Layer_1-2" data-name="Layer 1">
      <g>
        <path class="cls-1" d="M12,4.19l0-.06a.4.4,0,0,0-.12-.23L8.1.15A.4.4,0,0,0,7.87,0L7.81,0H.5A.5.5,0,0,0,0,.5v15a.5.5,0,0,0,.5.5h11a.5.5,0,0,0,.5-.5V4.25S12,4.21,12,4.19ZM1,15V1H7.25V4.25a.5.5,0,0,0,.5.5H11V15Z"/>
        <path class="cls-1" d="M8.7,6.77H3.3a.51.51,0,0,0-.5.5.5.5,0,0,0,.5.5H8.7a.5.5,0,0,0,.5-.5A.51.51,0,0,0,8.7,6.77Z"/>
        <path class="cls-1" d="M8.7,9.27H3.3a.51.51,0,0,0-.5.5.5.5,0,0,0,.5.5H8.7a.5.5,0,0,0,.5-.5A.51.51,0,0,0,8.7,9.27Z"/>
        <path class="cls-1" d="M8.7,11.77H3.3a.51.51,0,0,0-.5.5.5.5,0,0,0,.5.5H8.7a.5.5,0,0,0,.5-.5A.51.51,0,0,0,8.7,11.77Z"/>
      </g>
    </g>
  </g>
</svg>
