<svg xmlns="http://www.w3.org/2000/svg" width="30" height="30" viewBox="0 0 12.7 15.96">
  <defs>
    <style>
      .cls-1 {
        fill: #fff;
      }
    </style>
  </defs>
  <title>ManagedDB</title>
  <g id="Layer_2" data-name="Layer 2">
    <g id="Layer_1-2" data-name="Layer 1">
      <g>
        <path class="cls-1" d="M6.35,5.09C3.19,5.09,0,4.21,0,2.53c0-3.37,12.7-3.37,12.7,0C12.7,4.21,9.5,5.09,6.35,5.09ZM6.35,1C3.13,1,1,1.9,1,2.53S3.13,4.09,6.35,4.09s5.35-.94,5.35-1.56S9.56,1,6.35,1Z"/>
        <path class="cls-1" d="M6.35,16C3.19,16,0,15.08,0,13.4V2.57a.5.5,0,0,1,1,0V13.4C1,14,3.13,15,6.35,15S11.7,14,11.7,13.4V2.57a.5.5,0,0,1,.5-.5.51.51,0,0,1,.5.5V13.4C12.7,15.08,9.5,16,6.35,16Z"/>
        <path class="cls-1" d="M2.33,6h2l2,4.1,2-4.1h2v7H8.74V8.59L6.94,12.33H5.76L4,8.59V13H2.33Z"/>
      </g>
    </g>
  </g>
</svg>
