<svg xmlns="http://www.w3.org/2000/svg" viewBox="0 0 16.5 16.45" height="30" width="30">
  <defs>
    <style>
      .cls-1 {
        fill: #fff;
      }
    </style>
  </defs>
  <title>ManageStructure</title>
  <g id="Layer_2" data-name="Layer 2">
    <g id="Layer_1-2" data-name="Layer 1">
      <path class="cls-1" d="M16.32,11.34l-.78-.13a.22.22,0,0,1-.17-.14,4,4,0,0,0-.21-.52.2.2,0,0,1,0-.22l.42-.6c.11-.14.09-.25,0-.32l-.77-.78a.21.21,0,0,0-.27,0l-.65.46a.22.22,0,0,1-.22,0,3.38,3.38,0,0,0-.52-.22A.2.2,0,0,1,13,8.71L12.91,8c0-.17-.11-.25-.22-.25H11.6a.22.22,0,0,0-.21.18l-.13.79a.19.19,0,0,1-.15.16,3.38,3.38,0,0,0-.52.22.22.22,0,0,1-.21,0l-.6-.43c-.14-.1-.25-.09-.33,0l-.77.78a.21.21,0,0,0,0,.27l.46.65a.22.22,0,0,1,0,.22,3,3,0,0,0-.22.52.21.21,0,0,1-.16.14L8,11.33c-.17,0-.24.12-.24.22v1.1a.2.2,0,0,0,.18.2l.79.14a.19.19,0,0,1,.16.14,3.38,3.38,0,0,0,.22.52.22.22,0,0,1,0,.22l-.42.59c-.1.14-.09.26,0,.33l.77.77a.21.21,0,0,0,.28,0l.65-.47a.2.2,0,0,1,.21,0,3.33,3.33,0,0,0,.52.21.22.22,0,0,1,.15.17l.12.72c0,.17.12.24.22.24h1.09a.21.21,0,0,0,.21-.17l.13-.79a.23.23,0,0,1,.15-.17,3.33,3.33,0,0,0,.52-.21.22.22,0,0,1,.22,0l.59.43c.14.1.25.09.33,0l.77-.77a.21.21,0,0,0,0-.27l-.46-.65a.2.2,0,0,1,0-.22,4.71,4.71,0,0,0,.21-.52.2.2,0,0,1,.17-.14l.72-.13c.17,0,.24-.11.24-.21v-1.1A.21.21,0,0,0,16.32,11.34Zm-4.17,1.84a1.08,1.08,0,1,1,1.07-1.08A1.08,1.08,0,0,1,12.15,13.18Z"/>
      <path class="cls-1" d="M6,0H.68A.7.7,0,0,0,0,.74V5.92a.71.71,0,0,0,.68.74H6a.71.71,0,0,0,.68-.74V.74A.71.71,0,0,0,6,0ZM5.66,5.66H1V1H5.66Z"/>
      <path class="cls-1" d="M13.73,5.92V.74A.71.71,0,0,0,13.05,0H7.75a.7.7,0,0,0-.68.74V5.92a.71.71,0,0,0,.68.74h5.3A.7.7,0,0,0,13.73,5.92Zm-1-.26H8.07V1h4.66Z"/>
      <path class="cls-1" d="M6,7.07H.68A.7.7,0,0,0,0,7.81V13a.7.7,0,0,0,.68.74H6A.7.7,0,0,0,6.66,13V7.81A.71.71,0,0,0,6,7.07Zm-.32,5.66H1V8.07H5.66Z"/>
    </g>
  </g>
</svg>
