<svg xmlns="http://www.w3.org/2000/svg" viewBox="0 0 16 16" height="30" width="30">
  <defs>
    <style>
      .cls-1 {
        fill: #fff;
      }
    </style>
  </defs>
  <title>Managed</title>
  <g id="Layer_2" data-name="Layer 2">
    <g id="Layer_1-2" data-name="Layer 1">
      <path class="cls-1" d="M6.4,11.33h0A.48.48,0,0,1,6,11.16L4.5,9.43a.5.5,0,0,1,.75-.66l1.16,1.32,4.23-4.38a.5.5,0,0,1,.72.69l-4.6,4.78A.51.51,0,0,1,6.4,11.33Z"/>
      <path class="cls-1" d="M8,16a9.34,9.34,0,0,1-1.11-.08.51.51,0,0,1-.4-.33L6,14.18a6.87,6.87,0,0,1-.92-.39l-1.35.65a.49.49,0,0,1-.52-.06,7.79,7.79,0,0,1-1.57-1.57.49.49,0,0,1-.06-.52l.65-1.35A5.74,5.74,0,0,1,1.83,10L.41,9.52a.51.51,0,0,1-.32-.41A7.74,7.74,0,0,1,0,8,7.74,7.74,0,0,1,.09,6.89a.48.48,0,0,1,.32-.4L1.83,6a5.74,5.74,0,0,1,.38-.92L1.56,3.71a.49.49,0,0,1,.06-.52A8.34,8.34,0,0,1,3.19,1.62a.49.49,0,0,1,.52-.05l1.35.64A5.74,5.74,0,0,1,6,1.83L6.49.42a.47.47,0,0,1,.4-.33,6.89,6.89,0,0,1,2.22,0,.47.47,0,0,1,.4.33L10,1.83a5.74,5.74,0,0,1,.92.38l1.35-.64a.49.49,0,0,1,.52.05,8.05,8.05,0,0,1,1.57,1.57.49.49,0,0,1,0,.52l-.64,1.35a6.14,6.14,0,0,1,.38.92l1.42.51a.48.48,0,0,1,.32.4A7.74,7.74,0,0,1,16,8a7.74,7.74,0,0,1-.09,1.11.51.51,0,0,1-.32.41l-1.42.5a5.74,5.74,0,0,1-.38.92l.64,1.35a.49.49,0,0,1,0,.52,7.79,7.79,0,0,1-1.57,1.57.49.49,0,0,1-.52.06l-1.35-.65a6.87,6.87,0,0,1-.92.39l-.51,1.41a.51.51,0,0,1-.4.33A9.34,9.34,0,0,1,8,16Zm-.68-1a5.16,5.16,0,0,0,1.36,0l.48-1.36a.49.49,0,0,1,.33-.31,5.71,5.71,0,0,0,1.2-.49.48.48,0,0,1,.45,0l1.3.62a7.26,7.26,0,0,0,1-1l-.62-1.29a.5.5,0,0,1,0-.46,6.21,6.21,0,0,0,.49-1.19.48.48,0,0,1,.31-.34L15,8.68A5.6,5.6,0,0,0,15,8a5.33,5.33,0,0,0,0-.67L13.6,6.84a.49.49,0,0,1-.31-.33,6,6,0,0,0-.49-1.19.5.5,0,0,1,0-.46l.62-1.3a7.26,7.26,0,0,0-1-1l-1.3.62a.48.48,0,0,1-.45,0,6.3,6.3,0,0,0-1.2-.49.49.49,0,0,1-.33-.31L8.68,1A6.18,6.18,0,0,0,7.32,1L6.84,2.4a.49.49,0,0,1-.33.31,6.3,6.3,0,0,0-1.2.49.48.48,0,0,1-.45,0L3.56,2.6a7.26,7.26,0,0,0-1,1l.62,1.3a.5.5,0,0,1,0,.46,5.5,5.5,0,0,0-.49,1.19.49.49,0,0,1-.31.33L1,7.33A5.33,5.33,0,0,0,1,8a5.6,5.6,0,0,0,0,.68l1.36.48a.48.48,0,0,1,.31.34,6,6,0,0,0,.49,1.19.5.5,0,0,1,0,.46L2.6,12.44a7.26,7.26,0,0,0,1,1l1.3-.62a.48.48,0,0,1,.45,0,5.71,5.71,0,0,0,1.2.49.49.49,0,0,1,.33.31ZM15.42,9h0Z"/>
    </g>
  </g>
</svg>
