<svg xmlns="http://www.w3.org/2000/svg" viewBox="0 0 10.7 14">
  <defs>
    <style>
      .cls-1 {
        fill: #fff;
      }
    </style>
  </defs>
  <title>ManagedDB</title>
  <g id="Layer_2" data-name="Layer 2">
    <g id="Layer_1-2" data-name="Layer 1">
      <g>
        <path class="cls-1" d="M5.35,3.13c3.21,0,5.35-.94,5.35-1.57S8.56,0,5.35,0,0,.94,0,1.56,2.13,3.13,5.35,3.13Z"/>
        <path class="cls-1" d="M0,3v9.42C0,13.06,2.13,14,5.35,14s5.35-.94,5.35-1.57V3A11.08,11.08,0,0,1,5.35,4.13,11.05,11.05,0,0,1,0,3ZM7.37,5.34h2v7H7.74V7.91L5.94,11.65H4.76L3,7.91v4.44H1.33v-7h2l2,4.1Z"/>
      </g>
    </g>
  </g>
</svg>
