<svg xmlns="http://www.w3.org/2000/svg" viewBox="0 0 19.63 18.26" width="30" height="30">
  <defs>
    <style>
      .cls-1 {
        fill: #fff;
      }
    </style>
  </defs>
  <title>MaterializationTasks</title>
  <g id="Layer_2" data-name="Layer 2">
    <g id="Layer_1-2" data-name="Layer 1">
      <polygon class="cls-1" points="15.25 0 19.47 0 17.33 5.16 19.63 5.16 10.5 18.24 14.43 8.31 11.91 8.31 15.25 0"/>
      <path class="cls-1" d="M2.33,5.72H2.25a.94.94,0,0,1-.63-.34L.2,3.58A.92.92,0,0,1,.34,2.3a.92.92,0,0,1,1.28.15l.83,1.06L6.2.24A.89.89,0,0,1,7.47.33a.91.91,0,0,1-.08,1.28L2.93,5.5A.94.94,0,0,1,2.33,5.72Z"/>
      <path class="cls-1" d="M2.33,12H2.25a.87.87,0,0,1-.63-.34L.2,9.85A.92.92,0,0,1,.34,8.57a.92.92,0,0,1,1.28.15l.83,1L6.2,6.51a.89.89,0,0,1,1.27.09.91.91,0,0,1-.08,1.28L2.93,11.76A.9.9,0,0,1,2.33,12Z"/>
      <path class="cls-1" d="M2.33,18.26H2.25a.87.87,0,0,1-.63-.34L.2,16.11a.9.9,0,0,1,.14-1.27A.92.92,0,0,1,1.62,15l.83,1L6.2,12.78a.89.89,0,0,1,1.27.09.91.91,0,0,1-.08,1.28L2.93,18A.9.9,0,0,1,2.33,18.26Z"/>
    </g>
  </g>
</svg>
