<svg xmlns="http://www.w3.org/2000/svg" width="30" height="30" viewBox="0 0 16 12.46">
  <defs>
    <style>
      .cls-1 {
        fill: white;
      }
    </style>
  </defs>
  <title>Materialization</title>
  <g id="Layer_2" data-name="Layer 2">
    <g id="Layer_1-2" data-name="Layer 1">
      <path class="cls-1" d="M15,0H1A1,1,0,0,0,0,1V11.61a.92.92,0,0,0,1,.85H15a.92.92,0,0,0,1-.85V1A1,1,0,0,0,15,0Zm0,11.46H1V3.16H15Z"/>
      <path class="cls-1" d="M12,7.81H13.7a.5.5,0,0,0,.5-.5.51.51,0,0,0-.5-.5H12a.51.51,0,0,0-.5.5A.5.5,0,0,0,12,7.81Z"/>
      <path class="cls-1" d="M8.21,7.31a.5.5,0,0,0,.5.5h1.66a.5.5,0,0,0,.5-.5.5.5,0,0,0-.5-.5H8.71A.5.5,0,0,0,8.21,7.31Z"/>
      <path class="cls-1" d="M2.25,7.81H3.72a.5.5,0,0,0,.5-.5.5.5,0,0,0-.5-.5H2.25a.5.5,0,0,0-.5.5A.5.5,0,0,0,2.25,7.81Z"/>
      <path class="cls-1" d="M5.38,7.81H7a.5.5,0,0,0,.5-.5.5.5,0,0,0-.5-.5H5.38a.51.51,0,0,0-.5.5A.5.5,0,0,0,5.38,7.81Z"/>
      <path class="cls-1" d="M8,8.65a.5.5,0,0,0-.5.5v1.34a.5.5,0,1,0,1,0V9.15A.5.5,0,0,0,8,8.65Z"/>
      <path class="cls-1" d="M8,6a.5.5,0,0,0,.5-.5V4.17a.5.5,0,0,0-1,0V5.5A.5.5,0,0,0,8,6Z"/>
    </g>
  </g>
</svg>
