<svg xmlns="http://www.w3.org/2000/svg" width="30" height="30" viewBox="0 0 14.86 17">
  <defs>
    <style>
      .cls-1 {
        fill: white;
      }
    </style>
  </defs>
  <title>Measure</title>
  <g id="Layer_2" data-name="Layer 2">
    <g id="Layer_1-2" data-name="Layer 1">
      <path class="cls-1" d="M2.61,7.7a.25.25,0,0,0-.37.21v3.45a.24.24,0,0,0,.12.21l3,1.74a.24.24,0,0,0,.36-.21V9.65a.22.22,0,0,0-.12-.21Z"/>
      <path class="cls-1" d="M12.29,7.69l-3,1.74a.23.23,0,0,0-.13.21v3.47a.24.24,0,0,0,.37.21l3-1.74a.25.25,0,0,0,.12-.21V7.9A.24.24,0,0,0,12.29,7.69Z"/>
      <path class="cls-1" d="M14.86,4.51a.42.42,0,0,0,0-.12.44.44,0,0,0-.22-.31L7.67.07a.5.5,0,0,0-.5,0l-6.9,4s-.06.06-.1.09l-.08.09a.53.53,0,0,0,0,.12.5.5,0,0,0,0,.13l0,8a.47.47,0,0,0,.25.43l6.94,4a.47.47,0,0,0,.25.07.45.45,0,0,0,.25-.07h0l6.9-4a.48.48,0,0,0,.25-.43l0-8ZM7.42,1.08l5.95,3.43L7.46,7.94,1.52,4.51ZM1,5.37,3.47,6.79,7,8.81l0,6.83L1,12.2ZM7.94,15.63l0-5.05V8.81l5.9-3.43,0,6.82Z"/>
      <path class="cls-1" d="M10.53,4.72a.24.24,0,0,0,0-.42l-3-1.72a.28.28,0,0,0-.25,0l-3,1.72a.24.24,0,0,0,0,.42l3,1.72a.28.28,0,0,0,.25,0Z"/>
    </g>
  </g>
</svg>
