<?xml version="1.0" encoding="utf-8"?>
<svg xmlns="http://www.w3.org/2000/svg" width="30" height="30" viewBox="0 0 18 16">
<style type="text/css">
	.st0{fill:#FFFFFF;}
</style>
<path class="st0" d="M15,7.5c1-1.4,1.3-2.6,0.8-3.5c-0.5-0.9-1.7-1.3-3.4-1c-0.2,0-0.4,0.1-0.6,0.1C11.2,1.2,10.2,0,9,0
	C7.9,0,6.9,1.2,6.3,3.1C6.1,3.1,5.9,3,5.7,3C4,2.7,2.7,3.1,2.2,4S2,6.1,3.1,7.5C3.2,7.7,3.4,7.8,3.5,8c-1.3,1.5-1.8,3-1.2,4
	c0.6,0.8,1.6,1.2,2.5,1.1c0.5,0,1-0.1,1.5-0.2C6.9,14.8,7.9,16,9,16s2.2-1.2,2.8-3.1c0.5,0.1,1,0.2,1.5,0.2c1,0.1,1.9-0.3,2.5-1.1
	c0.6-1,0.1-2.5-1.3-4C14.7,7.8,14.8,7.7,15,7.5z M3,4.5c0.2-0.4,0.8-0.6,1.7-0.6c0.3,0,0.5,0,0.8,0.1C5.7,3.9,5.8,4,6,4
	C5.8,4.7,5.7,5.3,5.7,6C5.1,6.4,4.6,6.8,4.1,7.3L3.8,6.9C3,5.9,2.7,5,3,4.5z M5.6,7.3c0,0.2,0,0.5,0,0.7s0,0.5,0,0.7
	C5.3,8.5,5,8.2,4.8,8C5,7.8,5.3,7.5,5.6,7.3z M3,11.5c-0.3-0.6,0.1-1.7,1.1-2.8c0.5,0.5,1,0.9,1.6,1.3c0.1,0.7,0.2,1.4,0.3,2
	C4.5,12.3,3.4,12.1,3,11.5z M11.4,5.3l-0.6-0.4c-0.2-0.1-0.4-0.2-0.6-0.3c0.3-0.1,0.7-0.3,1-0.3C11.2,4.6,11.3,4.9,11.4,5.3z M9,0.9
	c0.7,0,1.4,0.9,1.9,2.4C10.3,3.5,9.7,3.8,9.1,4C8.5,3.7,7.9,3.5,7.2,3.3C7.6,1.8,8.3,0.9,9,0.9z M6.9,4.2c0.4,0.1,0.7,0.2,1,0.3
	C7.7,4.7,7.5,4.8,7.3,4.9L6.7,5.3C6.7,4.9,6.8,4.6,6.9,4.2z M6.7,10.7c0.2,0.1,0.4,0.3,0.6,0.4c0.2,0.1,0.4,0.2,0.6,0.4h0
	c-0.4,0.1-0.7,0.3-1,0.3C6.8,11.4,6.7,11.1,6.7,10.7z M9,15.1c-0.7,0-1.4-0.9-1.8-2.4C7.8,12.5,8.4,12.3,9,12
	c0.6,0.3,1.2,0.5,1.8,0.7C10.4,14.2,9.7,15.1,9,15.1z M11.4,10.7c-0.1,0.4-0.1,0.8-0.2,1.1c-0.3-0.1-0.7-0.2-1-0.3
	c0.2-0.1,0.4-0.2,0.6-0.4C11,10.9,11.2,10.8,11.4,10.7C11.4,10.7,11.4,10.7,11.4,10.7L11.4,10.7C11.4,10.7,11.4,10.7,11.4,10.7z
	 M11.5,9.5c-0.4,0.3-0.8,0.5-1.2,0.8C9.9,10.5,9.4,10.7,9,11c-0.4-0.2-0.8-0.4-1.3-0.7C7.3,10,6.9,9.8,6.5,9.5C6.5,9,6.5,8.5,6.5,8
	c0-0.5,0-1,0.1-1.5C6.9,6.2,7.3,6,7.7,5.7C8.2,5.5,8.6,5.3,9,5c0.4,0.2,0.9,0.4,1.3,0.7c0.4,0.3,0.8,0.5,1.2,0.8
	c0,0.5,0.1,0.9,0.1,1.5C11.6,8.5,11.6,9,11.5,9.5z M12.5,3.9c0.3,0,0.5-0.1,0.8-0.1c0.8,0,1.4,0.2,1.7,0.6s0,1.4-0.8,2.5
	c-0.1,0.1-0.2,0.2-0.3,0.4c-0.5-0.5-1-0.9-1.5-1.3c-0.1-0.7-0.2-1.3-0.3-2C12.2,4,12.4,3.9,12.5,3.9z M13.3,8
	c-0.3,0.3-0.5,0.5-0.8,0.7c0-0.2,0-0.5,0-0.7s0-0.5,0-0.7C12.8,7.5,13,7.8,13.3,8z M15,11.5c-0.3,0.6-1.4,0.8-2.9,0.5
	c0.2-0.7,0.3-1.3,0.3-2C13,9.6,13.5,9.1,14,8.7C14.9,9.9,15.3,10.9,15,11.5z"/>
</svg>
