<svg xmlns="http://www.w3.org/2000/svg" width="30" height="30" viewBox="0 0 9.47 9.47">
  <defs>
    <style>
      .cls-1 {
        fill: white;
      }
    </style>
  </defs>
  <title>No</title>
  <g id="Layer_2" data-name="Layer 2">
    <g id="Layer_1-2" data-name="Layer 1">
      <path class="cls-1" d="M5.44,4.74,9.33.85a.5.5,0,0,0,0-.7.5.5,0,0,0-.71,0L4.74,4,.85.15a.48.48,0,0,0-.7,0,.48.48,0,0,0,0,.7L4,4.74.15,8.62a.5.5,0,0,0,.35.85.5.5,0,0,0,.35-.14L4.74,5.44,8.62,9.33A.52.52,0,0,0,9,9.47a.54.54,0,0,0,.36-.14.51.51,0,0,0,0-.71Z"/>
    </g>
  </g>
</svg>
