<svg xmlns="http://www.w3.org/2000/svg" height="30" width="30" viewBox="0 0 14.36 16.48">
  <defs>
    <style>
      .cls-1 {
        fill: #fff;
      }
    </style>
  </defs>
  <title>NoReadAccess</title>
  <g id="Layer_2" data-name="Layer 2">
    <g id="Layer_1-2" data-name="Layer 1">
      <g>
        <path class="cls-1" d="M1.09,14.75A.09.09,0,0,1,1,14.66V13A5.41,5.41,0,0,1,2.78,9,5.34,5.34,0,0,1,6.42,7.62a4.87,4.87,0,0,1,.54,0,5.17,5.17,0,0,1,2.44.93,4.32,4.32,0,0,1,1.21-.19h.14A6.4,6.4,0,0,0,8.51,7a3.8,3.8,0,1,0-4.2,0A6.44,6.44,0,0,0,0,13v1.62a1.09,1.09,0,0,0,1.09,1.09h6.4a4.52,4.52,0,0,1-.71-1ZM3.62,3.81a2.81,2.81,0,1,1,2.8,2.8A2.81,2.81,0,0,1,3.62,3.81Z"/>
        <path class="cls-1" d="M10.61,9a3.75,3.75,0,1,0,3.75,3.75A3.74,3.74,0,0,0,10.61,9Zm2.1,5.14a.51.51,0,0,1,0,.71.5.5,0,0,1-.35.15.51.51,0,0,1-.36-.15l-1.39-1.4-1.4,1.4a.5.5,0,0,1-.35.15.51.51,0,0,1-.36-.15.51.51,0,0,1,0-.71l1.4-1.39-1.4-1.4a.5.5,0,0,1,.71-.71l1.4,1.4L12,10.62a.5.5,0,0,1,.71.71l-1.4,1.4Z"/>
      </g>
    </g>
  </g>
</svg>
