<svg xmlns="http://www.w3.org/2000/svg" viewBox="0 0 14.86 17">
  <defs>
    <style>
      .cls-1 {
        fill: #fff;
      }
    </style>
  </defs>
  <title>OLAP</title>
  <g id="Layer_2" data-name="Layer 2">
    <g id="Layer_1-2" data-name="Layer 1">
      <path class="cls-1" d="M14.86,4.51a.42.42,0,0,0,0-.12.49.49,0,0,0-.22-.32L7.67.07a.5.5,0,0,0-.5,0l-6.9,4s-.06.06-.1.09-.06,0-.08.09a.53.53,0,0,0,0,.12.5.5,0,0,0,0,.13V8.67a.4.4,0,0,0,0,.11v3.71a.47.47,0,0,0,.25.43l3.29,1.9a.41.41,0,0,0,.23.13l3.42,2a.47.47,0,0,0,.25.07.45.45,0,0,0,.25-.07h0l6.9-4a.48.48,0,0,0,.25-.43l0-8Zm-1,3.94-2.3,1.34V6.72l2.31-1.34ZM1,5.37,3.4,6.75V9.84L1,8.47ZM7.46,7.94,4.93,6.48,7.6,4.91,10.12,6.4ZM4.4,7.32,7,8.81V11.9L4.4,10.42ZM7,13.05v2.59L4.4,14.17V11.58Zm1-2.47V8.81L10.55,7.3v3.07L8,11.88Zm3.15-4.76L8.58,4.34,10.81,3l2.56,1.48ZM7.42,1.08,9.81,2.46,7.6,3.75,5.22,2.36ZM4.23,2.93l2.38,1.4L3.94,5.9,1.52,4.51ZM1,9.62,3.4,11v2.59L1,12.2ZM8,13l2.6-1.51v2.59L7.94,15.63Zm3.6.49V11l2.3-1.34V12.2Z"/>
    </g>
  </g>
</svg>
