<svg xmlns="http://www.w3.org/2000/svg" viewBox="0 0 14.92 14.86">
  <defs>
    <style>
      .cls-1 {
        fill: #fff;
      }
    </style>
  </defs>
  <title>Open</title>
  <g id="Layer_2" data-name="Layer 2">
    <g id="Layer_1-2" data-name="Layer 1">
      <g>
        <path class="cls-1" d="M12.42,7a.5.5,0,0,0-.5.5v6.36H1V2.94H6.52a.5.5,0,0,0,.5-.5.5.5,0,0,0-.5-.5H.87A.9.9,0,0,0,0,2.86v11a.93.93,0,0,0,.87,1H12.05a.93.93,0,0,0,.87-1V7.5A.5.5,0,0,0,12.42,7Z"/>
        <path class="cls-1" d="M14.78.15A.49.49,0,0,0,14.42,0H9.91a.5.5,0,0,0,0,1h3.15L5,9.07a.51.51,0,0,0,0,.71.5.5,0,0,0,.36.14.49.49,0,0,0,.35-.14l8.22-8.23V5a.5.5,0,0,0,.5.5.5.5,0,0,0,.5-.5V.5A.5.5,0,0,0,14.78.15Z"/>
      </g>
    </g>
  </g>
</svg>
