<svg width="30" height="30" viewBox="0 0 16 16" xmlns="http://www.w3.org/2000/svg">
    <g fill="none" fill-rule="evenodd">
        <path d="M24.973 10.31c1.112-.915 1.497-2.37.967-3.655-.53-1.286-1.864-2.136-3.353-2.135a3.818 3.818 0 0 0-2.24.744c-.308-2-2.162-3.486-4.348-3.486s-4.04 1.486-4.348 3.486a3.818 3.818 0 0 0-2.24-.744c-1.98 0-3.586 1.484-3.586 3.314-.002.942.435 1.84 1.2 2.462a6.305 6.305 0 0 0-1.551.92c-1.237 1.039-1.935 2.515-1.918 4.059v1.353c0 .635.557 1.15 1.244 1.15h22.398c.688 0 1.245-.515 1.245-1.15v-1.082c.058-2.224-1.3-4.273-3.47-5.236zM12.954 8.24c.122.11.255.21.396.298-.176 0-.337.135-.513.203.055-.164.094-.331.117-.5zm6.207.5-.527-.189c.143-.097.28-.2.41-.31.024.169.063.336.117.5zm3.426-2.867c.867-.006 1.652.473 1.986 1.213.335.739.153 1.592-.46 2.158-.613.567-1.536.735-2.336.426-.8-.31-1.319-1.034-1.313-1.836 0-1.083.95-1.961 2.123-1.961zM15.999 2.68c1.617 0 2.928 1.211 2.928 2.706 0 1.494-1.31 2.705-2.928 2.705-1.617 0-2.928-1.211-2.928-2.705 0-1.495 1.311-2.706 2.928-2.706zM9.412 5.873c.867-.006 1.651.473 1.986 1.213.335.739.153 1.592-.46 2.158-.614.567-1.537.735-2.337.426-.8-.31-1.318-1.034-1.312-1.836 0-1.083.95-1.961 2.123-1.961zm-.66 10.43H5.02v-1.096c0-2.241 1.966-4.058 4.392-4.058h.453c-.175.27-.336.554-.483.839a5.277 5.277 0 0 0-.395 1.136c0 .095 0 .19-.073.284-.093.41-.142.826-.147 1.245l-.014 1.65zm1.465.081v-1.65c.007-.35.051-.7.131-1.042.021-.101.05-.2.088-.297.056-.236.134-.467.235-.69l.204-.352c.098-.192.21-.378.337-.555l.278-.365c.192-.227.402-.44.63-.636 1.062-.887 2.448-1.37 3.88-1.353h.57c1.675.17 3.182 1.017 4.114 2.314l.22.284c.102.162.175.338.263.514.088.176.146.27.205.406.079.188.138.383.176.581 0 .136.102.27.131.406.064.344.098.693.103 1.042v1.353h-3.806l-7.76.04zm16.762-.08h-3.733V14.95a8.195 8.195 0 0 0-.117-1.19l-.088-.257a5.563 5.563 0 0 0-.25-.839l-.116-.311a8.902 8.902 0 0 0-.483-.893l-.074-.135v-.109c.321-.033.646-.033.967 0 2.254.305 3.918 2.102 3.894 4.208v.88z" fill="#1499CE"/>
        <rect fill="#DCF0F8" x="3.556" y="19.556" width="24.889" height="10.667" rx="1"/>
        <path d="M9.77 28.444c.88 0 1.543-.3 1.991-.9.448-.6.672-1.484.672-2.653 0-1.172-.224-2.058-.672-2.658-.448-.6-1.112-.9-1.991-.9-.876 0-1.538.3-1.987.9-.448.6-.672 1.486-.672 2.658 0 1.17.224 2.054.672 2.654.449.6 1.11.9 1.987.9zm0-1.216c-.383 0-.662-.185-.837-.553-.176-.37-.264-.964-.264-1.784 0-.823.088-1.42.264-1.788.175-.369.454-.553.837-.553.385 0 .666.184.842.553.176.369.264.965.264 1.788 0 .82-.088 1.415-.264 1.784-.176.368-.457.553-.842.553zm5.302 1.083v-2.708h.476c.362 0 .677.258.944.776l.107.202.913 1.73h1.644l-1.37-2.465c-.16-.288-.294-.481-.403-.58a.778.778 0 0 0-.389-.191c.477-.055.843-.222 1.096-.5.254-.28.38-.654.38-1.125 0-.704-.211-1.212-.636-1.524-.424-.313-1.124-.469-2.098-.469h-2.161v6.854h1.497zm.705-3.847h-.705v-1.868h.705c.412 0 .707.072.883.216.175.143.263.382.263.716 0 .333-.088.573-.266.718-.178.146-.471.218-.88.218zm7.047 3.98c.396 0 .767-.057 1.114-.172.346-.114.663-.284.95-.507v-3.14h-2.333v1.138h1.025v1.309a.748.748 0 0 1-.28.117c-.114.026-.25.039-.405.039-.518 0-.912-.199-1.182-.597-.27-.398-.406-.978-.406-1.74 0-.786.14-1.373.421-1.76.28-.388.705-.581 1.274-.581.324 0 .623.062.895.186s.513.308.723.553v-1.501a3.488 3.488 0 0 0-1.725-.454c-1.018 0-1.797.304-2.336.913-.54.609-.81 1.49-.81 2.644 0 1.136.268 2.012.802 2.628.534.617 1.292.925 2.273.925z" fill="#1499CE"/>
    </g>
</svg>
