<svg xmlns="http://www.w3.org/2000/svg" viewBox="0 0 16.38 16.47" width="30" height="30">
  <defs>
    <style>
      .cls-1 {
        fill: #fff;
      }
    </style>
  </defs>
  <title>Pencil</title>
  <g id="Layer_2" data-name="Layer 2">
    <g id="Layer_1-2" data-name="Layer 1">
      <path class="cls-1" d="M15.94,2.27,14.11.44A1.48,1.48,0,0,0,12,.44l-.67.67L9.83,2.6,1.17,11.27s0,0,0,0l-.06.08,0,.09,0,0L0,15.85a.53.53,0,0,0,.14.48.5.5,0,0,0,.35.14l.13,0,4.26-1.11h0l.1-.05.08,0,0,0,8.67-8.66,1.49-1.5.67-.67A1.48,1.48,0,0,0,15.94,2.27ZM12.7,1.14a.5.5,0,0,1,.7,0L15.24,3a.5.5,0,0,1,0,.7L14.92,4,12.39,1.46ZM1.8,12.61l2,2-2.61.68Zm3,1.54L2.23,11.62l8-8,1.26,1.27L12.72,6.2Zm8.67-8.66L12.16,4.22,10.89,3l.79-.79L14.21,4.7Z"/>
    </g>
  </g>
</svg>
