<svg xmlns="http://www.w3.org/2000/svg" viewBox="0 0 17 17" height="30" width="30">
  <defs>
    <style>
      .cls-1 {
        fill: #fff;
      }
    </style>
  </defs>
  <title>Permissions</title>
  <g id="Layer_2" data-name="Layer 2">
    <g id="Layer_1-2" data-name="Layer 1">
      <path class="cls-1" d="M3.06,17H.5a.5.5,0,0,1-.5-.5V13.94a.49.49,0,0,1,.15-.36l7.49-7.5a4.78,4.78,0,1,1,3.27,3.27l-1,1a.51.51,0,0,1-.43.14l-.95-.15L7.9,11l.15.95a.52.52,0,0,1-.14.43L6.39,13.87A.5.5,0,0,1,6,14l-1.11-.15L5,15a.53.53,0,0,1-.14.43L3.42,16.85A.53.53,0,0,1,3.06,17ZM1,16H2.86L4,14.86l-.22-1.52a.5.5,0,0,1,.57-.57L5.86,13,7,11.83l-.15-.94A.52.52,0,0,1,7,10.46l1-1a.47.47,0,0,1,.43-.14l1,.14,1-1A.52.52,0,0,1,11,8.31,3.76,3.76,0,1,0,8.68,6.05a.52.52,0,0,1-.11.53L1,14.14Z"/>
      <circle class="cls-1" cx="13.06" cy="3.81" r="1.1"/>
    </g>
  </g>
</svg>
