<svg xmlns="http://www.w3.org/2000/svg" viewBox="0 0 16.01 15.14">
  <defs>
    <style>
      .cls-1 {
        fill: #fff;
      }
    </style>
  </defs>
  <title>PieChart</title>
  <g id="Layer_2" data-name="Layer 2">
    <g id="Layer_1-2" data-name="Layer 1">
      <g id="Layer_1-2-2" data-name="Layer 1-2">
        <g>
          <path class="cls-1" d="M5.54,6.48H.5A.5.5,0,0,1,0,6a5.55,5.55,0,0,1,2.77-4.8.62.62,0,0,1,.38,0,.53.53,0,0,1,.31.24L6,5.73a.5.5,0,0,1-.46.75ZM1,5.48H4.67L2.85,2.32A4.58,4.58,0,0,0,1,5.48Z"/>
          <path class="cls-1" d="M8.44,15.14A7.57,7.57,0,0,1,.88,7.58a.5.5,0,0,1,.5-.5h6.2L4.48,1.72A.5.5,0,0,1,4.64,1h0a7.56,7.56,0,1,1,3.78,14.1ZM1.9,8.08A6.56,6.56,0,1,0,8.44,1a6.45,6.45,0,0,0-2.83.65L8.87,7.33A.49.49,0,0,1,8.69,8a.45.45,0,0,1-.25.07Z"/>
        </g>
      </g>
    </g>
  </g>
</svg>
