<svg xmlns="http://www.w3.org/2000/svg" height="30" width="30" viewBox="0 0 15.09 20.01">
  <defs>
    <style>
      .cls-1 {
        fill: #fff;
      }
    </style>
  </defs>
  <title>PIIDetection</title>
  <g id="Layer_2" data-name="Layer 2">
    <g id="Layer_1-2" data-name="Layer 1">
      <g>
        <g>
          <path class="cls-1" d="M0,13H2.79v7H1.46V14.17H0Z"/>
          <path class="cls-1" d="M9.31,17.19v1.16H4.16v-1l2.62-2.7A4.33,4.33,0,0,0,7.39,14a1.31,1.31,0,0,0,.23-.64.68.68,0,0,0-.3-.59,1.4,1.4,0,0,0-.82-.22,2.49,2.49,0,0,0-1,.23,4,4,0,0,0-1,.64l-.53-1a4.84,4.84,0,0,1,1.3-.74,3.66,3.66,0,0,1,1.36-.27,3.22,3.22,0,0,1,1.21.22,1.81,1.81,0,0,1,.82.62,1.52,1.52,0,0,1,.3.93,2,2,0,0,1-.35,1.07,7.36,7.36,0,0,1-1,1.22L5.92,17.19Z"/>
          <path class="cls-1" d="M14.51,16.48a1.66,1.66,0,0,1,.58,1.3,2.06,2.06,0,0,1-.34,1.16,2.25,2.25,0,0,1-1,.79,3.62,3.62,0,0,1-1.46.28,4.73,4.73,0,0,1-1.39-.21,4.19,4.19,0,0,1-1.18-.58l.53-1a3,3,0,0,0,.92.53,3.07,3.07,0,0,0,1,.19,1.89,1.89,0,0,0,1.14-.3.94.94,0,0,0,.41-.81.9.9,0,0,0-.4-.79,2.09,2.09,0,0,0-1.16-.27H11.16v-.8L13,14.13H10.1V13h4.65v.82l-2.13,2,.37,0A2.64,2.64,0,0,1,14.51,16.48Z"/>
        </g>
        <path class="cls-1" d="M1.12,12.38h1A5.41,5.41,0,0,1,7.51,7.62a5,5,0,0,1,.54,0,5.56,5.56,0,0,1,4.81,4.79h1A6.67,6.67,0,0,0,9.6,7,3.8,3.8,0,1,0,5.4,7a6.45,6.45,0,0,0-4.28,5.41ZM4.71,3.81a2.81,2.81,0,1,1,2.8,2.8A2.81,2.81,0,0,1,4.71,3.81Z"/>
      </g>
    </g>
  </g>
</svg>
