<?xml version="1.0" encoding="UTF-8"?>
<svg width="18px" height="16px" viewBox="0 0 18 16" version="1.1" xmlns="http://www.w3.org/2000/svg" xmlns:xlink="http://www.w3.org/1999/xlink">
    <title>Pipelines</title>
    <g id="Pipelines" stroke="none" stroke-width="1" fill="none" fill-rule="evenodd">
        <path d="M16.4160835,5.66717386 C17.4300259,8.75064676 16.313035,12.134779 13.6627799,14.0088206 C11.0125248,15.8828623 7.44960291,15.8079779 4.8804294,13.8242361 L4.8804294,13.8242361 L5.08979537,15.3021135 C5.11325835,15.4638043 5.07150118,15.6281916 4.97371712,15.7590836 C4.87593306,15.8899756 4.73013902,15.9766412 4.56843306,16 L4.56843306,16 L4.48222355,16 C4.17625903,15.9989335 3.91748516,15.7733806 3.87465173,15.4704273 L3.87465173,15.4704273 L3.46413023,12.5967768 C3.44066724,12.4350859 3.48242442,12.2706987 3.58020848,12.1398066 C3.67799254,12.0089146 3.82378657,11.922249 3.98549253,11.8988902 L3.98549253,11.8988902 L6.85914303,11.4883687 C7.19923017,11.4407565 7.51352259,11.6778543 7.56113479,12.0179415 C7.60874699,12.3580286 7.3716492,12.672321 7.03156206,12.7199332 L7.03156206,12.7199332 L5.69736719,12.9087731 C7.7554287,14.4572369 10.5597607,14.5613007 12.7269255,13.1696275 C14.8940903,11.7779543 15.9662205,9.18456964 15.4144111,6.66884632 L15.4144111,6.66884632 L16.4119783,5.67127908 Z M13.8256929,0.00608238748 C14.16578,-0.0415298129 14.4800724,0.195567976 14.5276846,0.535655122 L14.5276846,0.535655122 L14.9382061,3.40930562 C14.9616691,3.57099649 14.9199119,3.73538372 14.8221279,3.86627577 C14.7243438,3.99716782 14.5785498,4.08383339 14.4168438,4.10719217 L14.4168438,4.10719217 L11.5431933,4.51771366 L11.3655207,4.51740671 C11.0655027,4.49421057 10.8197387,4.25420631 10.7980968,3.94503617 C10.7742907,3.60494903 11.0306872,3.30995527 11.3707743,3.28614917 L11.3707743,3.28614917 L13.0498072,3.0480467 C11.9950804,2.26657647 10.7170622,1.84488804 9.40437632,1.8452187 C7.53175214,1.83887825 5.7579982,2.68500994 4.58457168,4.14440425 C3.41114517,5.60379856 2.96557035,7.51785315 3.3738155,9.3454465 L3.3738155,9.3454465 L2.37624826,10.3430137 C1.38494806,7.35460081 2.39612073,4.0662779 4.89526692,2.15119143 C7.39441312,0.23610495 10.8325601,0.114930711 13.4603287,1.84932392 L13.4603287,1.84932392 L13.2961201,0.708074151 C13.2485079,0.367987006 13.4856057,0.0536945878 13.8256929,0.00608238748 Z" id="Combined-Shape" fill="#6B778C"></path>
    </g>
</svg>