<?xml version="1.0" encoding="utf-8"?>
<svg xmlns="http://www.w3.org/2000/svg" width="30" height="30" viewBox="0 0 18 16">
<title>Pipelines</title>
<style type="text/css">
	.st0{fill:#FFFFFF;}
</style>
<path class="st0" d="M4.9,2.2c-2.5,1.9-3.5,5.2-2.5,8.2l1-1C3,7.5,3.4,5.6,4.6,4.1c1.2-1.5,2.9-2.3,4.8-2.3C10.7,1.8,12,2.3,13,3
	l-1.7,0.2c-0.3,0-0.6,0.3-0.6,0.7c0,0.3,0.3,0.5,0.6,0.6l0.2,0l2.9-0.4c0.2,0,0.3-0.1,0.4-0.2c0.1-0.1,0.1-0.3,0.1-0.5l-0.4-2.9
	c0-0.3-0.4-0.6-0.7-0.5c-0.3,0-0.6,0.4-0.5,0.7l0.2,1.1C10.8,0.1,7.4,0.2,4.9,2.2z"/>
<path class="st0" d="M16.4,5.7l-1,1c0.6,2.5-0.5,5.1-2.7,6.5s-5,1.3-7-0.3L7,12.7c0.3,0,0.6-0.4,0.5-0.7s-0.4-0.6-0.7-0.5L4,11.9
	c-0.2,0-0.3,0.1-0.4,0.2c-0.1,0.1-0.1,0.3-0.1,0.5l0.4,2.9c0,0.3,0.3,0.5,0.6,0.5h0.1c0.2,0,0.3-0.1,0.4-0.2
	c0.1-0.1,0.1-0.3,0.1-0.5l-0.2-1.5c2.6,2,6.1,2.1,8.8,0.2C16.3,12.1,17.4,8.8,16.4,5.7L16.4,5.7z"/>
</svg>
