<svg xmlns="http://www.w3.org/2000/svg" width="30" height="30" viewBox="0 0 13.19 16">
  <defs>
    <style>
      .cls-1 {
        fill: #fff;
      }
    </style>
  </defs>
  <title>Play</title>
  <g id="Layer_2" data-name="Layer 2">
    <g id="Layer_1-2" data-name="Layer 1">
      <path class="cls-1" d="M.69,16a.72.72,0,0,1-.34-.09.7.7,0,0,1-.35-.6V.69A.69.69,0,0,1,.36.09a.68.68,0,0,1,.7,0L12.87,7.41a.7.7,0,0,1,.32.59.68.68,0,0,1-.32.59L1.05,15.9A.65.65,0,0,1,.69,16ZM1,1.25V14.76L11.92,8Zm11.34,7Z"/>
    </g>
  </g>
</svg>
