<svg xmlns="http://www.w3.org/2000/svg" width="30" height="30" viewBox="5 0 24.89 24">
    <g fill="none" fill-rule="evenodd">
        <g>
            <g>
                <g transform="translate(-104 -332) translate(96 324) translate(8 8)">
                    <path fill="none" d="M24.973 9.599c1.112-1.03 1.497-2.666.967-4.113-.53-1.446-1.864-2.402-3.353-2.401-.816.01-1.605.304-2.24.837C20.04 1.672 18.185 0 16 0s-4.04 1.672-4.348 3.922c-.635-.533-1.424-.828-2.24-.837-1.98 0-3.586 1.67-3.586 3.729-.002 1.06.435 2.069 1.2 2.77-.563.262-1.086.611-1.551 1.034-1.237 1.168-1.935 2.83-1.918 4.566v1.522c0 .715.557 1.294 1.244 1.294h22.398c.688 0 1.245-.58 1.245-1.294V15.49c.058-2.502-1.3-4.807-3.47-5.89zM12.954 7.27c.122.123.255.236.396.335-.176 0-.337.152-.513.228.055-.184.094-.372.117-.563zm6.207.563l-.527-.213c.143-.109.28-.226.41-.35.024.191.063.38.117.563zm3.426-3.226c.867-.006 1.652.533 1.986 1.364.335.832.153 1.791-.46 2.429-.613.637-1.536.827-2.336.479-.8-.348-1.319-1.164-1.313-2.065 0-1.22.95-2.207 2.123-2.207zm-6.588-3.592c1.617 0 2.928 1.363 2.928 3.044 0 1.68-1.31 3.044-2.928 3.044-1.617 0-2.928-1.363-2.928-3.044S14.382 1.015 16 1.015zM9.412 4.607c.867-.006 1.651.533 1.986 1.364.335.832.153 1.791-.46 2.429-.614.637-1.537.827-2.337.479-.8-.348-1.318-1.164-1.312-2.065 0-1.22.95-2.207 2.123-2.207zm-.66 11.734H5.02v-1.233c0-2.521 1.966-4.566 4.392-4.566h.453c-.175.305-.336.624-.483.944-.175.41-.308.839-.395 1.278 0 .107 0 .214-.073.32-.093.46-.142.93-.147 1.4l-.014 1.857zm1.465.091v-1.856c.007-.395.051-.787.131-1.172.021-.114.05-.226.088-.335.056-.266.134-.525.235-.776l.204-.396c.098-.216.21-.425.337-.624l.278-.411c.192-.255.402-.495.63-.715 1.062-.998 2.448-1.541 3.88-1.522h.57c1.675.19 3.182 1.143 4.114 2.602l.22.32c.102.182.175.38.263.578.088.198.146.305.205.457.079.212.138.43.176.654 0 .152.102.305.131.457.064.387.098.779.103 1.172v1.522h-3.806l-7.76.045zm16.762-.09h-3.733v-1.523c-.01-.449-.05-.896-.117-1.34l-.088-.288c-.06-.32-.144-.636-.25-.944l-.116-.35c-.144-.344-.305-.68-.483-1.005l-.074-.152v-.122c.321-.038.646-.038.967 0 2.254.343 3.918 2.365 3.894 4.734v.99z"/>
                    <path fill="none" fill-rule="nonzero" d="M10.267 29.848v-2.939h.514c.963 0 1.655-.192 2.077-.578.422-.385.633-1.01.633-1.876 0-.866-.211-1.491-.633-1.877-.422-.385-1.114-.578-2.077-.578H8.89v7.848h1.378zm.566-4.242h-.566v-2.302h.566c.451 0 .768.085.95.257.183.172.274.47.274.894 0 .424-.091.722-.274.893-.182.172-.499.258-.95.258zm5.06 4.242v-3.102h.439c.333 0 .623.296.869.889.04.098.073.175.098.231l.84 1.982h1.515l-1.262-2.823c-.146-.33-.27-.551-.371-.665-.101-.114-.22-.187-.358-.218.44-.063.776-.254 1.01-.573.233-.319.35-.748.35-1.288 0-.806-.196-1.387-.586-1.745-.391-.357-1.035-.536-1.932-.536h-1.99v7.848h1.378zm.649-4.405h-.65v-2.14h.65c.38 0 .651.083.813.248.162.164.243.438.243.82 0 .382-.082.656-.245.822-.164.167-.434.25-.811.25zM22.065 30c.819 0 1.407-.206 1.763-.618.357-.411.535-1.096.535-2.052V22h-3.065v1.367h1.687v3.963c0 .445-.084.769-.252.972-.169.203-.433.305-.795.305-.308 0-.614-.08-.918-.242-.303-.16-.59-.396-.857-.704v1.798c.327.178.652.313.974.404.322.091.632.137.928.137z"/>
                </g>
            </g>
        </g>
    </g>
</svg>
