<?xml version="1.0" encoding="utf-8"?>
<!-- Generator: Adobe Illustrator 24.3.0, SVG Export Plug-In . SVG Version: 6.00 Build 0)  -->
<svg version="1.1" id="Calque_1" xmlns="http://www.w3.org/2000/svg" xmlns:xlink="http://www.w3.org/1999/xlink" x="0px" y="0px"
	 viewBox="0 0 30 30" style="enable-background:new 0 0 30 30;" xml:space="preserve">
<style type="text/css">
	.st0{fill:#FFFFFF;}
</style>
<g>
	<path class="st0" d="M16.1,29.5L16.1,29.5c-1.1,0-2-0.9-2-2v0c0-1.1,0.9-2,2-2h0c1.1,0,2,0.9,2,2v0C18.1,28.6,17.2,29.5,16.1,29.5z
		"/>
	<path class="st0" d="M16.2,23c-2.3-0.1-1.8-2.8-1.8-4.6c0-3.6,3.5-5.1,4.6-8.2c2.4-6.8-8.9-7.4-8-0.5c0.2,1.2-1,2.3-2.1,2.1
		c-3.7-0.6-1.7-6.5,0.2-8.4c8.4-8.5,19.8,3.5,10.7,12.2C17.2,18.1,20,23.1,16.2,23z"/>
</g>
</svg>
