<svg viewBox="0 0 360 360" >
    <path d="M180.517,20.188c49.403,0.235 97.812,24.368 127.679,64.294c34.51,46.134 41.779,111.614 16.016,165.046c-21.564,44.725 -64.887,78.385 -113.94,87.794c-49.927,9.577 -104.031,-6.223 -140.987,-41.669c-43.238,-41.473 -60.706,-108.199 -40.872,-166.759c21.154,-62.459 83.332,-108.384 151.07,-108.706c0.345,0 0.689,0 1.034,0Zm-0.912,40c-42.701,0.202 -84.582,24.763 -105.31,63.18c-21.308,39.493 -18.17,90.837 8.892,127.691c22.11,30.112 58.669,49.002 96.428,49.128c50.825,0.169 99.906,-34.804 115.212,-85.04c9.113,-29.907 5.956,-63.434 -8.778,-91.137c-20.13,-37.848 -61.219,-63.342 -104.877,-63.817c-0.522,-0.004 -1.044,-0.006 -1.567,-0.005Zm0.395,159.999c13.798,0 25,11.203 25,25c0,13.798 -11.202,25 -25,25c-13.798,0 -25,-11.202 -25,-25c0,-13.797 11.202,-25 25,-25Zm-2.252,-125.996c21.028,0.307 41.652,12.203 49.05,33.006c6.87,19.32 1.875,42.161 -12.005,57.202c-5.64,6.112 -13.282,11.235 -14.449,18.92c-0.277,1.82 -0.352,3.666 -0.346,5.505l0.002,0.227l-39.999,0.273c-0.085,-12.419 2.843,-25.063 10.008,-35.17c4.741,-6.688 11.353,-11.875 16.557,-18.191c0.345,-0.419 0.663,-0.86 0.956,-1.316c3.607,-5.616 4.218,-14.794 -1.759,-18.312c-5.283,-3.11 -12.719,-3.043 -17.152,0.619c-4.809,3.972 -6.595,10.737 -7.919,16.922l-39.114,-8.371c3.921,-18.323 13.332,-36.044 29.75,-44.909c7.786,-4.204 16.679,-6.33 25.491,-6.408c0.465,-0.001 0.464,-0.001 0.929,0.003Z" />
  </svg>