<svg xmlns="http://www.w3.org/2000/svg" width="30" height="30" viewBox="0 0 17 5.91">
  <defs>
    <style>
      .cls-1 {
        fill: white;
      }
    </style>
  </defs>
  <title>Redo</title>
  <g id="Layer_2" data-name="Layer 2">
    <g id="Layer_1-2" data-name="Layer 1">
      <path class="cls-1" d="M16.62.52A.5.5,0,0,0,16,.88L15.22,4A8.65,8.65,0,0,0,.05,5a.5.5,0,0,0,.24.67.52.52,0,0,0,.21,0A.48.48,0,0,0,1,5.45,7.67,7.67,0,0,1,11.12,1.71,7.57,7.57,0,0,1,14.4,4.64l-3.29-.82a.5.5,0,0,0-.61.36.51.51,0,0,0,.37.61l4.4,1.1.13,0a.5.5,0,0,0,.48-.38L17,1.12A.5.5,0,0,0,16.62.52Z"/>
    </g>
  </g>
</svg>
