<svg xmlns="http://www.w3.org/2000/svg" viewBox="0 0 17 12.56" height="30" width="30">
  <defs>
    <style>
      .cls-1 {
        fill: #fff;
      }
    </style>
  </defs>
  <title>Rename</title>
  <g id="Layer_2" data-name="Layer 2">
    <g id="Layer_1-2" data-name="Layer 1">
      <path class="cls-1" d="M12.17,9.27a.5.5,0,0,0-.5-.5H1.28A.28.28,0,0,1,1,8.49V4.07a.27.27,0,0,1,.28-.28H11.67a.5.5,0,0,0,0-1H1.28A1.28,1.28,0,0,0,0,4.07V8.49A1.28,1.28,0,0,0,1.28,9.77H11.67A.5.5,0,0,0,12.17,9.27Z"/>
      <path class="cls-1" d="M15.72,2.79H14.59a.5.5,0,0,0,0,1h1.13a.27.27,0,0,1,.28.28V8.49a.28.28,0,0,1-.28.28H14.59a.5.5,0,0,0-.5.5.51.51,0,0,0,.5.5h1.13A1.28,1.28,0,0,0,17,8.49V4.07A1.28,1.28,0,0,0,15.72,2.79Z"/>
      <path class="cls-1" d="M15.65,11.56H14.06a.44.44,0,0,1-.43-.44V1.43A.43.43,0,0,1,14.06,1h1.59a.5.5,0,0,0,0-1H14.06a1.46,1.46,0,0,0-.93.35A1.44,1.44,0,0,0,12.2,0H10.62a.5.5,0,0,0-.5.5.5.5,0,0,0,.5.5H12.2a.43.43,0,0,1,.43.43v9.69a.44.44,0,0,1-.43.44H10.62a.5.5,0,0,0-.5.5.5.5,0,0,0,.5.5H12.2a1.4,1.4,0,0,0,.93-.36,1.42,1.42,0,0,0,.93.36h1.59a.51.51,0,0,0,.5-.5A.5.5,0,0,0,15.65,11.56Z"/>
    </g>
  </g>
</svg>
