<svg xmlns="http://www.w3.org/2000/svg" viewBox="0 0 10.6 9.98">
  <defs>
    <style>
      .cls-1 {
        fill: #fff;
      }
    </style>
  </defs>
  <title>Resume</title>
  <g id="Layer_2" data-name="Layer 2">
    <g id="Layer_1-2" data-name="Layer 1">
      <g>
        <path class="cls-1" d="M3.82,9.75a.79.79,0,0,1-.42-.12A.87.87,0,0,1,3,8.89L3,1.12A.87.87,0,0,1,3.45.38a.81.81,0,0,1,.87,0l5.9,3.91A.86.86,0,0,1,10.6,5a.84.84,0,0,1-.39.72L4.28,9.62A.94.94,0,0,1,3.82,9.75ZM4,8.89ZM4,1.42,4,8.61,9.49,5Zm-.26-.18Z"/>
        <path class="cls-1" d="M.74,10A.75.75,0,0,1,0,9.23L0,.75A.73.73,0,0,1,.8,0a.76.76,0,0,1,.74.76l0,8.48A.75.75,0,0,1,.75,10Z"/>
      </g>
    </g>
  </g>
</svg>
