<svg xmlns="http://www.w3.org/2000/svg" fill="white" width="30" height="30" viewBox="0 0 360 360">
  <path d="M100,50.187c0,-5.522 -4.477,-10 -10,-10c-6.108,0 -13.892,0 -20,0c-5.523,0 -10,4.478 -10,10c0,43.553 0,216.448 0,260c0,5.523 4.477,10 10,10c6.108,0 13.892,0 20,0c5.523,0 10,-4.477 10,-10c0,-43.552 0,-216.447 0,-260Zm61.796,-9.919c2.76,0.346 5.469,1.083 7.882,2.417c1.077,0.596 1.314,0.8 2.322,1.502l160,120c0.95,0.765 1.21,0.934 2.078,1.795c7.411,7.343 7.7,20.781 0,28.411c-0.868,0.861 -1.128,1.029 -2.078,1.794l-160,120c-1.008,0.703 -1.245,0.907 -2.322,1.503c-9.233,5.106 -22.322,1.418 -27.377,-8.189c-1.075,-2.042 -1.791,-4.269 -2.11,-6.555c-0.17,-1.219 -0.148,-1.53 -0.191,-2.759l0,-240c0.043,-1.228 0.021,-1.539 0.191,-2.759c1.205,-8.652 8.594,-16.054 17.461,-17.102c2.647,-0.313 3.288,-0.105 4.144,-0.058Zm18.204,219.919l106.667,-80l-106.667,-80c0,53.334 0,106.667 0,160Z" />
</svg>