<svg xmlns="http://www.w3.org/2000/svg" viewBox="0 0 15.32 12.75" width="30" height="30">
  <defs>
    <style>
      .cls-1 {
        fill: #fff;
      }
    </style>
  </defs>
  <title>Rows</title>
  <g id="Layer_2" data-name="Layer 2">
    <g id="Layer_1-2" data-name="Layer 1">
      <path class="cls-1" d="M14.57,1.5H.75A.76.76,0,0,1,0,.75.76.76,0,0,1,.75,0H14.57a.75.75,0,0,1,0,1.5Z"/>
      <path class="cls-1" d="M14.57,7.13H.75a.75.75,0,0,1,0-1.5H14.57a.75.75,0,0,1,0,1.5Z"/>
      <path class="cls-1" d="M14.57,12.75H.75a.75.75,0,0,1,0-1.5H14.57a.75.75,0,0,1,0,1.5Z"/>
    </g>
  </g>
</svg>
