<svg xmlns="http://www.w3.org/2000/svg" width="30" height="30" viewBox="0 0 16 16">
  <defs>
    <style>
      .cls-1 {
        fill: #fff;
      }
    </style>
  </defs>
  <title>Rows</title>
  <g id="Layer_2" data-name="Layer 2">
    <g id="Layer_1-2" data-name="Layer 1">
      <path class="cls-1" d="M2.2,4.61a.51.51,0,0,0,.34.14.54.54,0,0,0,.37-.16.51.51,0,0,0,0-.71l-1.08-1H14.2l-1.08,1a.51.51,0,0,0,0,.71.54.54,0,0,0,.37.16.51.51,0,0,0,.34-.14l2-1.9A.51.51,0,0,0,16,2.34.5.5,0,0,0,15.84,2l-2-1.85a.51.51,0,0,0-.71,0,.51.51,0,0,0,0,.71l1.08,1H1.74l1.08-1a.51.51,0,0,0,0-.71.51.51,0,0,0-.71,0L.16,2A.5.5,0,0,0,0,2.34a.51.51,0,0,0,.16.37Z"/>
      <path class="cls-1" d="M13.86,5.76a.5.5,0,1,0-.68.73l1.08,1H1.74l1.08-1a.5.5,0,0,0,0-.7.5.5,0,0,0-.71,0L.16,7.6a.51.51,0,0,0,0,.74l2,1.9a.5.5,0,1,0,.68-.73L1.8,8.5H14.2l-1.08,1a.5.5,0,0,0,.68.73l2-1.9a.51.51,0,0,0,0-.74Z"/>
      <path class="cls-1" d="M13.86,11.39a.5.5,0,0,0-.71,0,.51.51,0,0,0,0,.71l1.08,1H1.74l1.08-1a.51.51,0,0,0,0-.71.5.5,0,0,0-.71,0l-2,1.84a.51.51,0,0,0,0,.74l2,1.9a.51.51,0,0,0,.71,0,.51.51,0,0,0,0-.71l-1.08-1H14.2l-1.08,1a.51.51,0,0,0,0,.71.51.51,0,0,0,.71,0l2-1.9a.51.51,0,0,0,0-.74Z"/>
    </g>
  </g>
</svg>
