<svg viewBox="0 0 360 360" >
    <path d="M320,320.188l-280,0l0,-280l196.569,0c27.81,27.81 55.621,55.62 83.431,83.431l0,196.569Zm-240,-240.001l0,200l200,0l0,-140l-60,-60c-46.667,0 -93.333,0 -140,0Zm115.001,140.715c-12.959,7.08 -28.287,10.008 -43.336,7.121c-19.985,-3.833 -37.755,-17.657 -46.48,-36.039c-8.613,-18.146 -8.14,-40.363 1.235,-58.121c10.904,-20.654 33.429,-34.511 57.129,-34.736c0.28,-0.001 0.56,-0.001 0.84,0c23.492,0.223 46.2,14.035 57.129,34.736c9.366,17.742 9.869,39.932 1.235,58.121c-0.374,0.789 -0.766,1.57 -1.174,2.34l0.421,-0.421c15.095,15.095 30.19,30.19 45.284,45.284l-28.284,28.285l-45.284,-45.285l1.285,-1.285Zm-31.201,-81.776c-10.957,0.106 -21.331,8.1 -24.077,18.762c-4.433,17.214 13.623,37.661 33.682,29.464c10.957,-4.478 17.927,-17.36 14.81,-29.464c-2.684,-10.422 -12.57,-18.513 -23.744,-18.757c-0.224,-0.004 -0.447,-0.005 -0.671,-0.005Z" />
  </svg>