<svg xmlns="http://www.w3.org/2000/svg" viewBox="0 0 17 17" height="30" width="30">
  <defs>
    <style>
      .cls-1 {
        fill: #fff;
      }
    </style>
  </defs>
  <title>Scatterplot</title>
  <g id="Layer_2" data-name="Layer 2">
    <g id="Layer_1-2" data-name="Layer 1">
      <path class="cls-1" d="M16.5,17H1a1.12,1.12,0,0,1-1-1.21V.5A.5.5,0,0,1,.5,0,.5.5,0,0,1,1,.5V15.79a.29.29,0,0,0,.07.22H16.5a.5.5,0,0,1,0,1Z"/>
      <circle class="cls-1" cx="4.6" cy="9.67" r="0.49"/>
      <circle class="cls-1" cx="3.6" cy="12.67" r="0.49"/>
      <circle class="cls-1" cx="7.6" cy="13.67" r="0.49"/>
      <circle class="cls-1" cx="5.6" cy="11.67" r="0.49"/>
      <circle class="cls-1" cx="4.6" cy="6.67" r="0.49"/>
      <circle class="cls-1" cx="6.6" cy="7.67" r="0.49"/>
      <circle class="cls-1" cx="9.6" cy="8.67" r="0.49"/>
      <circle class="cls-1" cx="8.6" cy="10.67" r="0.49"/>
      <circle class="cls-1" cx="9.6" cy="4.67" r="0.49"/>
      <circle class="cls-1" cx="12.6" cy="4.67" r="0.49"/>
      <circle class="cls-1" cx="11.6" cy="6.67" r="0.49"/>
      <circle class="cls-1" cx="15.6" cy="3.67" r="0.49"/>
      <circle class="cls-1" cx="11.6" cy="8.67" r="0.49"/>
      <circle class="cls-1" cx="8.6" cy="6.67" r="0.49"/>
      <circle class="cls-1" cx="12.6" cy="2.67" r="0.49"/>
    </g>
  </g>
</svg>
