<svg xmlns="http://www.w3.org/2000/svg" viewBox="0 0 16.86 17.25">
  <defs>
    <style>
      .cls-1 {
        fill: #fff;
      }
    </style>
  </defs>
  <title>Search</title>
  <g id="Layer_2" data-name="Layer 2">
    <g id="Layer_1-2" data-name="Layer 1">
      <path class="cls-1" d="M16.65,16l-5-5.33-.06,0a6.54,6.54,0,0,0-.23-8.79A6.57,6.57,0,0,0,2,2a6.57,6.57,0,0,0-.22,9.28,6.27,6.27,0,0,0,4.45,1.81,6.82,6.82,0,0,0,4.22-1.48s0,0,0,0L15.56,17a.75.75,0,0,0,.55.24.73.73,0,0,0,.51-.21A.75.75,0,0,0,16.65,16ZM2.52,10.6a5.59,5.59,0,0,1,.21-7.87A5.88,5.88,0,0,1,6.86,1,5.25,5.25,0,0,1,10.6,2.52a5.58,5.58,0,0,1-.21,7.87A5.58,5.58,0,0,1,2.52,10.6Z"/>
    </g>
  </g>
</svg>
