<svg xmlns="http://www.w3.org/2000/svg" width="30" height="30" viewBox="0 0 16.25 14.39">
  <defs>
    <style>
      .cls-1 {
        fill: #fff;
      }
    </style>
  </defs>
  <title>SearchDB</title>
  <g id="Layer_2" data-name="Layer 2">
    <g id="Layer_1-2" data-name="Layer 1">
      <path class="cls-1" d="M16.15,12.82l-2.3-4a4.48,4.48,0,0,0,1.48-2.29,4.16,4.16,0,0,0-.46-3.27,4.21,4.21,0,0,0-3.9-2c-2.2-2-11-1.68-11,1v0H0V12c0,1.54,2.88,2.35,5.73,2.35s5.74-.81,5.74-2.35V9.89a4.83,4.83,0,0,0,1.1-.29l2.28,4a.76.76,0,0,0,.65.38.69.69,0,0,0,.37-.1A.75.75,0,0,0,16.15,12.82ZM5.73,1a10.18,10.18,0,0,1,3.83.63A5,5,0,0,0,8.83,2,4.59,4.59,0,0,0,7.26,3.57a14,14,0,0,1-1.53.09C2.67,3.66,1,2.77,1,2.31S2.67,1,5.73,1ZM1,3.69a10.14,10.14,0,0,0,4.73,1c.36,0,.72,0,1.07,0,0,0,0,0,0,0a4.11,4.11,0,0,0,0,2.2c-.34,0-.7,0-1.08,0C2.67,6.9,1,6,1,5.55ZM1,6.93a10.14,10.14,0,0,0,4.73,1A14.19,14.19,0,0,0,7.2,7.83l0,.1A4.06,4.06,0,0,0,9.3,9.62a10.74,10.74,0,0,1-3.57.52C2.67,10.14,1,9.25,1,8.8ZM10.47,12c0,.46-1.67,1.35-4.74,1.35S1,12.5,1,12V10.18a10.27,10.27,0,0,0,4.73,1,10.29,10.29,0,0,0,4.74-1ZM13,8.23c-.08.06-.14.12-.22.17a3.75,3.75,0,0,1-1.29.48h0a3.62,3.62,0,0,1-1,0h0a2.06,2.06,0,0,1-.26,0,3.09,3.09,0,0,1-1.62-.91s0,0-.05-.05a2.09,2.09,0,0,1-.2-.22h0a2.78,2.78,0,0,1-.21-.27,3.27,3.27,0,0,1-.3-.66h0a3.28,3.28,0,0,1,0-1.84c0-.14.11-.28.16-.41h0a3.65,3.65,0,0,1,.79-1.18h0a4.1,4.1,0,0,1,.64-.51l.09,0a2.92,2.92,0,0,1,.47-.23,2.26,2.26,0,0,1,.37-.11l.16,0h0a3.53,3.53,0,0,1,1.71,0l.17.06a2,2,0,0,1,.4.17l.33.18.14.1a3,3,0,0,1,.83.86,3.16,3.16,0,0,1,.34,2.5,3.53,3.53,0,0,1-1,1.65l0,0Z"/>
    </g>
  </g>
</svg>
