<svg xmlns="http://www.w3.org/2000/svg" viewBox="0 0 16.5 12.94" height="30" width="30">
  <defs>
    <style>
      .cls-1 {
        fill: #fff;
      }
    </style>
  </defs>
  <title>Series</title>
  <g id="Layer_2" data-name="Layer 2">
    <g id="Layer_1-2" data-name="Layer 1">
      <path class="cls-1" d="M13.21,9.25c-.08,0-.18,0-.18.08v1.18A5.58,5.58,0,0,1,7.88,7.78,3.79,3.79,0,0,0,6.34,6.47,3.74,3.74,0,0,0,7.88,5.15,5.6,5.6,0,0,1,13,2.42V3.61c0,.07.1.12.18.08l3.24-1.76a.09.09,0,0,0,0-.16L13.21,0C13.13,0,13,0,13,.09V1.42A6.58,6.58,0,0,0,7,4.64,3.37,3.37,0,0,1,4.45,6h-1l-2.95,0h0a.5.5,0,0,0-.5.49s0,0,0,0,0,0,0,0A.5.5,0,0,0,.5,7h0l3,0h1A3.34,3.34,0,0,1,7,8.3a6.58,6.58,0,0,0,6,3.21v1.33c0,.08.1.12.18.08l3.24-1.76a.08.08,0,0,0,0-.15Z"/>
    </g>
  </g>
</svg>
