<svg xmlns="http://www.w3.org/2000/svg" viewBox="0 0 15.45 16.5">
  <defs>
    <style>
      .cls-1 {
        fill: #231f20;
      }
    </style>
  </defs>
  <title>Service account</title>
  <g id="Layer_2" data-name="Layer 2">
    <g id="Layer_1-2" data-name="Layer 1">
      <path class="cls-1" d="M15.29,11.9l-.71-.12a.18.18,0,0,1-.15-.13,3.85,3.85,0,0,0-.19-.47.17.17,0,0,1,0-.19l.38-.54c.09-.13.08-.23,0-.29l-.7-.7a.2.2,0,0,0-.24,0l-.59.42a.2.2,0,0,1-.2,0,2.34,2.34,0,0,0-.46-.19.2.2,0,0,1-.13-.15l-.11-.65c0-.15-.11-.22-.2-.22H11l-.07,0a6.32,6.32,0,0,0-2.65-1.9A3.71,3.71,0,1,0,2.54,3.71,3.73,3.73,0,0,0,4.17,6.78,6.09,6.09,0,0,0,2.05,8.05a6.27,6.27,0,0,0-2,4.62v1.58a1.07,1.07,0,0,0,1.08,1.07H8.72l.38.38a.2.2,0,0,0,.25,0l.58-.42a.2.2,0,0,1,.2,0,2.72,2.72,0,0,0,.47.19.2.2,0,0,1,.13.15l.11.65c0,.15.1.22.2.22h1a.2.2,0,0,0,.19-.16l.12-.71a.2.2,0,0,1,.13-.15,2.34,2.34,0,0,0,.46-.19.2.2,0,0,1,.2,0l.54.39c.12.09.23.08.29,0l.7-.7a.2.2,0,0,0,0-.24l-.42-.59a.17.17,0,0,1,0-.19,3.85,3.85,0,0,0,.19-.47.18.18,0,0,1,.15-.13l.65-.11c.15,0,.22-.1.22-.2v-1A.2.2,0,0,0,15.29,11.9ZM3.54,3.71A2.71,2.71,0,1,1,6.25,6.42,2.72,2.72,0,0,1,3.54,3.71ZM9.93,9.86,9.4,9.48c-.13-.09-.23-.08-.3,0l-.69.7a.17.17,0,0,0,0,.24l.42.59a.19.19,0,0,1,0,.19,3.9,3.9,0,0,0-.2.47.17.17,0,0,1-.14.13l-.65.11c-.16,0-.22.11-.22.2v1a.19.19,0,0,0,.16.19l.71.12a.17.17,0,0,1,.14.13,3.9,3.9,0,0,0,.2.47.18.18,0,0,1,0,.19l-.11.15H1.08A.07.07,0,0,1,1,14.25V12.67A5.25,5.25,0,0,1,6.77,7.45,5,5,0,0,1,10.5,9.72a2.87,2.87,0,0,0-.37.15A.2.2,0,0,1,9.93,9.86Zm1.6,3.69a1,1,0,1,1,1-1A1,1,0,0,1,11.53,13.55Z"/>
    </g>
  </g>
</svg>
