<svg viewBox="0 0 360 360">
  <path d="M184.673,95.322c-7.066,-18.563 -5.895,-40.169 3.391,-57.761c11.681,-22.128 36.122,-36.982 61.038,-37.368c0.449,-0.004 0.898,-0.006 1.347,-0.004c25.571,0.248 50.278,15.496 61.875,38.119c9.724,18.969 10.155,42.423 0.946,61.842c-13.153,27.735 -45.779,44.879 -76.928,38.7c-9.796,-1.943 -19.078,-6.082 -27.162,-11.915l-34.463,26.584c6.752,16.521 6.95,35.657 0.388,52.387l34.733,27.291c11.5,-8.032 25.308,-12.788 39.264,-13.004c0.449,-0.004 0.898,-0.006 1.347,-0.004c25.571,0.248 50.278,15.496 61.875,38.119c9.724,18.969 10.155,42.423 0.946,61.842c-13.153,27.735 -45.779,44.879 -76.928,38.7c-21.038,-4.173 -39.704,-18.476 -49.234,-37.917c-8.538,-17.417 -9.235,-38.416 -2.202,-56.456l-34.821,-27.359c-15.321,10.624 -34.805,15.489 -53.743,11.732c-21.038,-4.173 -39.704,-18.476 -49.234,-37.917c-9.656,-19.697 -9.283,-43.974 0.956,-63.372c11.681,-22.128 36.122,-36.982 61.038,-37.368c0.449,-0.004 0.898,-0.006 1.347,-0.004c13.859,0.134 27.464,4.675 38.865,12.408l35.359,-27.275Zm65.13,164.866c-19.584,0.19 -36.658,22.284 -26.928,42.827c6.371,13.453 23.665,21.002 38.451,14.961c12.828,-5.241 21.096,-19.981 17.989,-34.205c-2.86,-13.088 -15.121,-23.367 -28.921,-23.581c-0.197,-0.002 -0.394,-0.002 -0.591,-0.002Zm-140,-110c-16.953,0.164 -32.231,16.5 -29.457,34.582c2.689,17.528 23.059,30.788 41.316,23.066c12.914,-5.462 21.012,-20.737 17.44,-34.971c-3.23,-12.874 -15.623,-22.717 -29.299,-22.677Zm140,-110c-19.584,0.19 -36.658,22.284 -26.928,42.827c6.371,13.453 23.665,21.002 38.451,14.961c12.828,-5.241 21.096,-19.981 17.989,-34.205c-2.86,-13.088 -15.121,-23.367 -28.921,-23.581c-0.197,-0.002 -0.394,-0.002 -0.591,-0.002Z" />
</svg>