<svg xmlns="http://www.w3.org/2000/svg" viewBox="0 0 15.03 16">
  <defs>
    <style>
      .cls-1 {
        fill: #fff;
      }
    </style>
  </defs>
  <title>Share</title>
  <g id="Layer_2" data-name="Layer 2">
    <g id="Layer_1-2" data-name="Layer 1">
      <g>
        <path class="cls-1" d="M14.89,3.38,11.75.15a.5.5,0,1,0-.72.7l2.25,2.31a8.58,8.58,0,0,0-8,5.66.49.49,0,0,0,.3.64.47.47,0,0,0,.17,0,.49.49,0,0,0,.47-.33,7.59,7.59,0,0,1,7.15-5L11,6.52a.5.5,0,0,0,.35.86.52.52,0,0,0,.35-.14l3.23-3.15A.5.5,0,0,0,14.89,3.38Z"/>
        <path class="cls-1" d="M12.42,8.14a.5.5,0,0,0-.5.5V15H1V4.08H6.52a.5.5,0,0,0,.5-.5.5.5,0,0,0-.5-.5H.87A.9.9,0,0,0,0,4V15a.93.93,0,0,0,.87,1H12.05a.93.93,0,0,0,.87-1V8.64A.5.5,0,0,0,12.42,8.14Z"/>
      </g>
    </g>
  </g>
</svg>
