<svg xmlns="http://www.w3.org/2000/svg" viewBox="0 0 16 15.8" height="30" width="30">
  <defs>
    <style>
      .cls-1 {
        fill: #fff;
      }
    </style>
  </defs>
  <title>Size</title>
  <g id="Layer_2" data-name="Layer 2">
    <g id="Layer_1-2" data-name="Layer 1">
      <path class="cls-1" d="M4.9,3.71a.43.43,0,0,0,.27.11.43.43,0,0,0,.3-.13.41.41,0,0,0,0-.57l-.87-.81h10l-.87.81a.41.41,0,0,0,0,.57.43.43,0,0,0,.3.13.43.43,0,0,0,.27-.11l1.64-1.53A.41.41,0,0,0,16,1.89a.42.42,0,0,0-.13-.3L14.28.11a.41.41,0,0,0-.57,0,.41.41,0,0,0,0,.57l.87.81H4.53L5.4.7a.41.41,0,0,0,0-.57.41.41,0,0,0-.57,0L3.26,1.59a.42.42,0,0,0-.13.3.41.41,0,0,0,.13.29Z"/>
      <path class="cls-1" d="M3.12,5.2a.4.4,0,1,0,.59-.55L2.23,3.06a.4.4,0,0,0-.59,0L.11,4.7a.41.41,0,0,0,.29.68.43.43,0,0,0,.3-.13l.81-.87v10L.7,13.48a.41.41,0,0,0-.57,0,.41.41,0,0,0,0,.57l1.53,1.64a.39.39,0,0,0,.29.13.43.43,0,0,0,.3-.13l1.48-1.59a.4.4,0,0,0-.59-.55l-.81.87V4.33Z"/>
    </g>
  </g>
</svg>
