<svg xmlns="http://www.w3.org/2000/svg" viewBox="0 0 17.04 11.77">
  <defs>
    <style>
      .cls-1 {
        fill: #fff;
      }
    </style>
  </defs>
  <title>SortDescending</title>
  <g id="Layer_2" data-name="Layer 2">
    <g id="Layer_1-2" data-name="Layer 1">
      <g>
        <path class="cls-1" d="M4.15.32a1,1,0,0,0-1.46,0L.27,2.91a1,1,0,0,0,0,1.41,1,1,0,0,0,1.41-.05l.69-.74v7.24a1,1,0,0,0,2,0V3.53l.69.74a1,1,0,0,0,1.41.05,1,1,0,0,0,.05-1.41Z"/>
        <path class="cls-1" d="M16,9.77H9.61a1,1,0,0,0,0,2H16a1,1,0,0,0,0-2Z"/>
        <path class="cls-1" d="M9.61,6.88H14a1,1,0,0,0,0-2H9.61a1,1,0,0,0,0,2Z"/>
        <path class="cls-1" d="M9.61,2H12a1,1,0,0,0,0-2H9.61a1,1,0,0,0,0,2Z"/>
      </g>
    </g>
  </g>
</svg>
