<svg xmlns="http://www.w3.org/2000/svg" width="30px" height="30px" viewBox="0 0 14 16">
    <title>Source tables</title>
    <g id="Source-tables" stroke="none" stroke-width="1" fill="none" fill-rule="evenodd">
        <path d="M11.7305742,5.59904847 C10.6455843,5.60570019 9.71602338,6.39073819 9.50958376,7.47473167 L9.50958376,7.47473167 C8.31972832,7.41486814 7.38419987,6.41748913 7.3807506,5.205155 C7.3910523,3.51174739 6.16378608,2.07407059 4.51465921,1.84768208 C4.27832638,0.6841852 3.21533133,-0.108724875 2.05390553,0.0121548381 C0.892479734,0.133034551 0.00921572795,1.12850878 0.00921572795,2.31660288 C0.00921572795,3.50469698 0.892479734,4.50017121 2.05390553,4.62105092 C3.21533133,4.74193063 4.27832638,3.94902056 4.51465921,2.78552368 C5.65789934,3.00475622 6.47929827,4.03081275 6.45917781,5.21453342 C6.45774367,6.06288387 6.78954136,6.87663245 7.3807506,7.47473167 L4.50544348,7.47473167 C4.26911066,6.31123479 3.2061156,5.51832471 2.0446898,5.63920442 C0.883264006,5.76008414 0,6.75555837 0,7.94365246 C0,9.13174656 0.883264006,10.1272208 2.0446898,10.2481005 C3.2061156,10.3689802 4.26911066,9.57607014 4.50544348,8.41257326 L7.3807506,8.41257326 C6.78986724,9.01473055 6.45834913,9.83116715 6.45917781,10.6821499 C6.47629553,11.8726242 5.63984253,12.8988603 4.48701202,13.1017813 C4.23385621,11.9565842 3.17610095,11.1873853 2.02944424,11.3146397 C0.882787535,11.4418941 0.0128154698,12.4250296 0.00816824015,13.5988373 C-0.0408350393,14.8226328 0.858415502,15.8720958 2.05645875,15.9892779 C3.254502,16.1064601 4.33371321,15.2505129 4.51465921,14.0396228 C6.16729243,13.8127895 7.39571454,12.3697389 7.3807506,10.6727715 C7.38880402,9.4675045 8.31767611,8.4770262 9.50036803,8.41257326 L9.50036803,8.41257326 C9.75653606,9.59918689 10.8700278,10.3827909 12.0514218,10.2078412 C13.2328158,10.0328914 14.0806728,8.9588361 13.9938958,7.74713778 C13.9071188,6.53543945 12.9151948,5.59783486 11.7213585,5.59904847 L11.7305742,5.59904847 Z M2.28445304,3.65771636 C1.73486375,3.6615083 1.23748596,3.32701448 1.02544235,2.81101329 C0.813398737,2.2950121 0.928715152,1.6997721 1.3173424,1.3042843 C1.70596965,0.908796491 2.29088398,0.791444359 2.79793407,1.00723124 C3.30498415,1.22301813 3.63367548,1.72917627 3.62994932,2.28846763 C3.62994932,2.65161497 3.48819209,2.99988875 3.23586259,3.2566727 C2.98353309,3.51345664 2.64130084,3.65771636 2.28445304,3.65771636 L2.28445304,3.65771636 Z M2.28445304,9.28476595 C1.73238644,9.28838016 1.23339082,8.95071136 1.02312676,8.43123032 C0.812862696,7.91174929 0.933397839,7.31438887 1.32780708,6.92126437 C1.72221631,6.52813988 2.31158997,6.41790394 2.81758466,6.64261765 C3.32357935,6.86733137 3.64496043,7.38203615 3.62994932,7.94365246 C3.637356,8.31251646 3.49917024,8.66901107 3.24630242,8.93339303 C2.9934346,9.19777498 2.64698611,9.34798206 2.28445304,9.35041486 L2.28445304,9.28476595 Z M2.28445304,14.9118155 C1.77547784,14.9546455 1.28608867,14.7025422 1.01866733,14.2597602 C0.75124599,13.8169782 0.75124599,13.258777 1.01866733,12.815995 C1.28608867,12.373213 1.77547784,12.1211097 2.28445304,12.1639397 C2.98695833,12.2230551 3.52752534,12.8205308 3.52752534,13.5378776 C3.52752534,14.2552244 2.98695833,14.8527001 2.28445304,14.9118155 L2.28445304,14.9118155 Z M11.7305742,9.28476595 C11.1793333,9.28455823 10.6831846,8.94446203 10.4758454,8.42468422 C10.2685063,7.90490641 10.3913275,7.30910897 10.7864524,6.91795026 C11.1815773,6.52679156 11.7702042,6.4182824 12.2750525,6.64353747 C12.7799008,6.86879255 13.1002859,7.38288807 13.0852862,7.94365246 C13.0952939,8.31488809 12.9566937,8.67433719 12.7012667,8.9395782 C12.4458396,9.2048192 12.0954977,9.3530982 11.7305742,9.35041486 L11.7305742,9.28476595 Z" id="path-1"></path>
    </g>
</svg>