<svg xmlns="http://www.w3.org/2000/svg" height="30" width="30" viewBox="0 0 14 16">
  <defs>
    <style>
      .cls-1 {
        fill: #fff;
      }
    </style>
  </defs>
  <title>SQL</title>
  <g id="Layer_2" data-name="Layer 2">
    <g id="Layer_1-2" data-name="Layer 1">
      <g>
        <path class="cls-1" d="M7.75,8.94a1,1,0,0,0-1,0,1.15,1.15,0,0,0-.39.4,1.26,1.26,0,0,0-.14.57,1.12,1.12,0,0,0,.17.58h0a1.24,1.24,0,0,0,.38.41,1,1,0,0,0,1,0,1,1,0,0,0,.37-.41,1.29,1.29,0,0,0,0-1.15A1.09,1.09,0,0,0,7.75,8.94Z"/>
        <path class="cls-1" d="M13.65,6.88H13V4.25s0,0,0-.06l0-.06a.4.4,0,0,0-.12-.23L9.1.15A.4.4,0,0,0,8.87,0L8.81,0H1.5A.5.5,0,0,0,1,.5V6.88H.35A.35.35,0,0,0,0,7.23v5.83a.35.35,0,0,0,.35.35H1V15.5a.5.5,0,0,0,.5.5h11a.5.5,0,0,0,.5-.5V13.41h.65a.35.35,0,0,0,.35-.35V7.23A.35.35,0,0,0,13.65,6.88ZM2,1H8.25V4.25a.5.5,0,0,0,.5.5H12V6.88H2ZM8.48,11.94a.94.94,0,0,0,.3-.07,1.65,1.65,0,0,0,.36-.22l.34.65a1.44,1.44,0,0,1-.52.31,1.45,1.45,0,0,1-.59.12,1.34,1.34,0,0,1-.7-.22,1.67,1.67,0,0,1-.51-.64,2,2,0,0,1-1-.29,1.77,1.77,0,0,1-.71-.7,1.81,1.81,0,0,1-.26-1,1.81,1.81,0,0,1,.27-1,2,2,0,0,1,.74-.7,2.24,2.24,0,0,1,1-.26,2.42,2.42,0,0,1,1,.25A2,2,0,0,1,9,8.88a2.05,2.05,0,0,1,.27,1,2,2,0,0,1-1.24,1.83A.58.58,0,0,0,8.48,11.94ZM3.79,10.51a.56.56,0,0,0-.24-.13l-.41-.13A4.83,4.83,0,0,1,2.5,10a1.19,1.19,0,0,1-.44-.33.94.94,0,0,1-.16-.59,1,1,0,0,1,.19-.62,1.1,1.1,0,0,1,.52-.41,2,2,0,0,1,.79-.14,2.61,2.61,0,0,1,.79.12,2.74,2.74,0,0,1,.7.3l-.37.79a3.55,3.55,0,0,0-.63-.28,1.94,1.94,0,0,0-.58-.12A.57.57,0,0,0,3,8.82a.24.24,0,0,0-.11.2.26.26,0,0,0,.1.2.91.91,0,0,0,.23.15,2.92,2.92,0,0,1,.4.12c.22.07.43.14.65.23a1.2,1.2,0,0,1,.45.36,1,1,0,0,1,.18.61,1.1,1.1,0,0,1-.21.65,1.15,1.15,0,0,1-.54.4,1.94,1.94,0,0,1-.79.14,2.83,2.83,0,0,1-.95-.16,2.86,2.86,0,0,1-.79-.46L2,10.47a3,3,0,0,0,.69.42,2,2,0,0,0,.69.16A.73.73,0,0,0,3.76,11a.25.25,0,0,0,.12-.24A.31.31,0,0,0,3.79,10.51ZM12,15H2V13.41H12Zm.36-3.18H9.78V8h1v3h1.58Z"/>
      </g>
    </g>
  </g>
</svg>
