<svg xmlns="http://www.w3.org/2000/svg" fill="white" width="30" height="30" viewBox="0 0 360 360">
  <path d="M215.733,235.537c-8.52,4.92 -18.9,7.38 -31.14,7.38c-9.84,0 -18.69,-1.71 -26.55,-5.13c-7.86,-3.42 -14.49,-8.13 -19.89,-14.13c-5.4,-6 -9.54,-13.05 -12.42,-21.15c-2.88,-8.1 -4.32,-16.83 -4.32,-26.19c0,-9.6 1.44,-18.51 4.32,-26.73c2.88,-8.22 7.02,-15.39 12.42,-21.51c5.4,-6.12 12.03,-10.92 19.89,-14.4c7.86,-3.48 16.71,-5.22 26.55,-5.22c9.96,0 18.84,1.74 26.64,5.22c7.8,3.48 14.4,8.28 19.8,14.4c5.4,6.12 9.54,13.29 12.42,21.51c2.88,8.22 4.32,17.13 4.32,26.73c0,9.36 -1.44,18.06 -4.32,26.1c-2.88,8.04 -7.02,15.12 -12.42,21.24l16.02,14.58l-13.14,13.68l-18.18,-16.38Zm-186.3,-38.16c0.001,4.321 0.781,7.981 2.34,10.98c1.56,3 3.63,5.43 6.21,7.29c2.58,1.86 5.61,3.24 9.09,4.14c3.48,0.9 7.08,1.35 10.8,1.35c2.52,0 5.22,-0.21 8.1,-0.63c2.88,-0.42 5.58,-1.23 8.1,-2.43c2.52,-1.2 4.62,-2.85 6.3,-4.95c1.68,-2.1 2.52,-4.77 2.52,-8.01c0,-3.48 -1.11,-6.3 -3.33,-8.46c-2.22,-2.16 -5.13,-3.96 -8.73,-5.4c-3.6,-1.44 -7.68,-2.7 -12.24,-3.78c-4.56,-1.08 -9.18,-2.28 -13.86,-3.6c-4.8,-1.2 -9.48,-2.67 -14.04,-4.41c-4.56,-1.74 -8.64,-3.99 -12.24,-6.75c-3.6,-2.76 -6.51,-6.21 -8.73,-10.35c-2.22,-4.14 -3.33,-9.15 -3.33,-15.03c0,-6.6 1.41,-12.33 4.23,-17.19c2.82,-4.86 6.51,-8.91 11.07,-12.15c4.56,-3.24 9.72,-5.64 15.48,-7.2c5.76,-1.56 11.52,-2.34 17.28,-2.34c6.72,0 13.17,0.75 19.35,2.25c6.18,1.5 11.67,3.93 16.47,7.29c4.8,3.36 8.61,7.65 11.43,12.87c2.82,5.22 4.23,11.55 4.23,18.99l-27.36,0c-0.24,-3.84 -1.05,-7.02 -2.43,-9.54c-1.38,-2.52 -3.21,-4.5 -5.49,-5.94c-2.28,-1.44 -4.89,-2.46 -7.83,-3.06c-2.94,-0.6 -6.15,-0.9 -9.63,-0.9c-2.28,0 -4.56,0.24 -6.84,0.72c-2.28,0.48 -4.35,1.32 -6.21,2.52c-1.86,1.2 -3.39,2.7 -4.59,4.5c-1.2,1.8 -1.8,4.08 -1.8,6.84c0,2.52 0.48,4.56 1.44,6.12c0.96,1.56 2.85,3 5.67,4.32c2.82,1.32 6.72,2.64 11.7,3.96c4.98,1.32 11.49,3 19.53,5.04c2.4,0.48 5.73,1.35 9.99,2.61c4.26,1.26 8.49,3.27 12.69,6.03c4.2,2.76 7.83,6.45 10.89,11.07c3.06,4.62 4.59,10.53 4.59,17.73c0,5.88 -1.14,11.34 -3.42,16.38c-2.28,5.04 -5.67,9.39 -10.17,13.05c-4.5,3.66 -10.08,6.51 -16.74,8.55c-6.66,2.04 -14.37,3.06 -23.13,3.06c-7.08,0 -13.95,-0.87 -20.61,-2.61c-6.66,-1.74 -12.54,-4.47 -17.64,-8.19c-5.1,-3.72 -9.15,-8.46 -12.15,-14.22c-2.999,-5.759 -4.439,-12.599 -4.32,-20.52l27.36,0Zm265.86,-85.86l0,104.76l62.64,0l0,23.76l-90.9,0l0,-128.52l28.26,0Zm-83.7,94.32c2.4,-3.24 4.32,-7.26 5.76,-12.06c1.44,-4.8 2.16,-10.62 2.16,-17.46c0,-5.64 -0.63,-11.1 -1.89,-16.38c-1.26,-5.28 -3.27,-9.99 -6.03,-14.13c-2.76,-4.14 -6.36,-7.44 -10.8,-9.9c-4.44,-2.46 -9.84,-3.69 -16.2,-3.69c-6.36,0 -11.76,1.23 -16.2,3.69c-4.44,2.46 -8.04,5.76 -10.8,9.9c-2.76,4.14 -4.77,8.85 -6.03,14.13c-1.26,5.28 -1.89,10.74 -1.89,16.38c0,5.4 0.63,10.65 1.89,15.75c1.26,5.1 3.27,9.69 6.03,13.77c2.76,4.08 6.36,7.35 10.8,9.81c4.44,2.46 9.84,3.69 16.2,3.69c3,0 5.28,-0.12 6.84,-0.36c1.56,-0.24 3.06,-0.72 4.5,-1.44l-12.06,-10.98l13.14,-14.04l14.58,13.32Z" />
</svg>