<?xml version="1.0" encoding="utf-8"?>
<svg version="1.1" id="Calque_1" xmlns="http://www.w3.org/2000/svg" xmlns:xlink="http://www.w3.org/1999/xlink" x="0px" y="0px"
	 viewBox="0 0 16 14" style="enable-background:new 0 0 16 14;" xml:space="preserve" width="30" height="30">
<style type="text/css">
	.st0{fill:#FFFFFF;}
</style>
<path class="st0" d="M0.6,11.7c1,0,1.4-0.8,1.7-1.2C2.6,10,2.7,9.8,3.1,9.8c0.4,0,0.5,0.2,0.7,0.7c0.3,0.5,0.7,1.2,1.7,1.2
	S7,11,7.3,10.5C7.5,10,7.6,9.8,8,9.8c0.4,0,0.5,0.2,0.7,0.7c0.3,0.5,0.7,1.2,1.7,1.2c1,0,1.4-0.8,1.7-1.2c0.3-0.5,0.4-0.7,0.7-0.7
	c0.4,0,0.5,0.2,0.7,0.7c0.3,0.5,0.7,1.2,1.7,1.2c0.3,0,0.6-0.3,0.6-0.6s-0.3-0.6-0.6-0.6c-0.3,0-0.4-0.2-0.7-0.7
	c-0.3-0.5-0.7-1.3-1.8-1.3c-1.1,0-1.5,0.7-1.8,1.3c-0.3,0.5-0.4,0.7-0.7,0.7c-0.3,0-0.4-0.2-0.7-0.7C9.5,9.4,9,8.7,8,8.7
	S6.5,9.4,6.2,9.9c-0.3,0.5-0.4,0.7-0.7,0.7c-0.3,0-0.4-0.2-0.7-0.7C4.5,9.4,4.1,8.7,3,8.7c-1,0-1.5,0.7-1.8,1.3
	c-0.3,0.5-0.4,0.7-0.7,0.7c-0.3,0-0.6,0.3-0.6,0.6S0.3,11.7,0.6,11.7z"/>
<path class="st0" d="M15.4,3.7c-0.3,0-0.4-0.2-0.7-0.7c-0.3-0.5-0.7-1.3-1.8-1.3c-1.1,0-1.5,0.7-1.8,1.3c-0.3,0.5-0.4,0.7-0.7,0.7
	C10.2,3.7,10,3.5,9.8,3C9.5,2.5,9,1.8,8,1.8S6.5,2.5,6.2,3C5.9,3.5,5.8,3.7,5.5,3.7C5.2,3.7,5.1,3.5,4.8,3C4.5,2.5,4.1,1.8,3.1,1.8
	C2,1.8,1.6,2.5,1.3,3C1,3.5,0.9,3.7,0.6,3.7C0.3,3.7,0,3.9,0,4.2c0,0.3,0.3,0.6,0.6,0.6c1,0,1.4-0.7,1.7-1.2
	c0.3-0.5,0.4-0.7,0.7-0.7c0.4,0,0.5,0.2,0.7,0.7c0.3,0.5,0.7,1.2,1.7,1.2S7,4.1,7.3,3.6C7.5,3.1,7.6,2.9,8,2.9
	c0.4,0,0.5,0.2,0.7,0.7C9,4.1,9.4,4.8,10.5,4.8c1,0,1.4-0.7,1.7-1.2c0.3-0.5,0.4-0.7,0.7-0.7c0.4,0,0.5,0.2,0.7,0.7
	c0.3,0.5,0.7,1.2,1.7,1.2h0c0.3,0,0.6-0.3,0.6-0.6S15.7,3.7,15.4,3.7z"/>
<path class="st0" d="M0.6,8.3c1,0,1.4-0.8,1.7-1.2c0.3-0.5,0.4-0.7,0.7-0.7c0.4,0,0.5,0.2,0.7,0.7c0.3,0.5,0.7,1.2,1.7,1.2
	S7,7.5,7.3,7C7.5,6.5,7.6,6.4,8,6.4c0.4,0,0.5,0.2,0.7,0.7C9,7.5,9.4,8.3,10.5,8.3c1,0,1.4-0.8,1.7-1.2c0.3-0.5,0.4-0.7,0.7-0.7
	c0.4,0,0.5,0.2,0.7,0.7c0.3,0.5,0.7,1.2,1.7,1.2C15.7,8.3,16,8,16,7.7c0-0.3-0.3-0.6-0.6-0.6c-0.3,0-0.4-0.2-0.7-0.7
	C14.4,6,14,5.2,12.9,5.2c-1.1,0-1.5,0.7-1.8,1.3c-0.3,0.5-0.4,0.7-0.7,0.7C10.1,7.1,10,7,9.8,6.5C9.5,6,9,5.2,8,5.2S6.5,6,6.2,6.5
	C5.9,7,5.8,7.1,5.5,7.1C5.2,7.1,5.1,7,4.8,6.5C4.5,6,4.1,5.2,3,5.2C2,5.2,1.6,6,1.3,6.5C1,7,0.9,7.1,0.6,7.1C0.3,7.1,0,7.4,0,7.7
	C0,8,0.3,8.3,0.6,8.3z"/>
</svg>
