<svg xmlns="http://www.w3.org/2000/svg" viewBox="0 0 21.22 8.98">
  <defs>
    <style>
      .cls-1 {
        fill: #fff;
      }
    </style>
  </defs>
  <title>String</title>
  <g id="Layer_2" data-name="Layer 2">
    <g id="Layer_1-2" data-name="Layer 1">
      <g>
        <path class="cls-1" d="M4.32,8.9V8.12a2.05,2.05,0,0,1-.86.64A3.32,3.32,0,0,1,2.24,9a2.63,2.63,0,0,1-1.18-.26A1.82,1.82,0,0,1,.28,8,1.86,1.86,0,0,1,0,7,1.69,1.69,0,0,1,.64,5.57a2.86,2.86,0,0,1,1.8-.52H4.31V4.88A1.1,1.1,0,0,0,3.94,4,1.64,1.64,0,0,0,2.86,3.7,3.7,3.7,0,0,0,1,4.3L.38,3.22a7.14,7.14,0,0,1,1.38-.61A5.13,5.13,0,0,1,3.2,2.42,2.85,2.85,0,0,1,5.14,3a2.11,2.11,0,0,1,.7,1.68l0,4.2ZM3.77,7.46a1.11,1.11,0,0,0,.54-.79V6.1H2.69a1.82,1.82,0,0,0-.92.18.66.66,0,0,0-.29.61.79.79,0,0,0,.3.65,1.33,1.33,0,0,0,.84.24A2.07,2.07,0,0,0,3.77,7.46Z"/>
        <path class="cls-1" d="M13,2.85A2.86,2.86,0,0,1,14.05,4a3.74,3.74,0,0,1,.37,1.71,3.7,3.7,0,0,1-.37,1.7A2.89,2.89,0,0,1,13,8.56a3.08,3.08,0,0,1-1.59.4,2.73,2.73,0,0,1-1.27-.28,2.38,2.38,0,0,1-.91-.82v1H7.67V0H9.23V3.54a2.33,2.33,0,0,1,.89-.82,2.73,2.73,0,0,1,1.27-.28A3,3,0,0,1,13,2.85Zm-.64,4.22a2,2,0,0,0,.5-1.39,2,2,0,0,0-.5-1.4A1.7,1.7,0,0,0,11,3.74a1.71,1.71,0,0,0-1.31.54,2,2,0,0,0-.5,1.4,2,2,0,0,0,.5,1.4A1.71,1.71,0,0,0,11,7.62,1.68,1.68,0,0,0,12.34,7.07Z"/>
        <path class="cls-1" d="M18.52,3.8a1.65,1.65,0,0,0-1.27.53,2,2,0,0,0-.49,1.37,2,2,0,0,0,.49,1.39,1.65,1.65,0,0,0,1.27.53,2,2,0,0,0,1.72-.76l1,.81a3,3,0,0,1-1.14,1A3.89,3.89,0,0,1,18.43,9a3.42,3.42,0,0,1-1.68-.4A2.89,2.89,0,0,1,15.6,7.41a3.48,3.48,0,0,1-.41-1.7A3.39,3.39,0,0,1,15.61,4a2.92,2.92,0,0,1,1.15-1.16,3.47,3.47,0,0,1,1.7-.4,3.88,3.88,0,0,1,1.56.3,2.87,2.87,0,0,1,1.12.87l-.94.9A2.2,2.2,0,0,0,18.52,3.8Z"/>
      </g>
    </g>
  </g>
</svg>
