<svg xmlns="http://www.w3.org/2000/svg" viewBox="0 0 20.8 8.95">
  <defs>
    <style>
      .cls-1 {
        fill: #231f20;
      }
    </style>
  </defs>
  <title>String</title>
  <g id="Layer_2" data-name="Layer 2">
    <g id="Layer_1-2" data-name="Layer 1">
      <path class="cls-1" d="M4.42,8.9V8A2.63,2.63,0,0,1,2.2,9,2.51,2.51,0,0,1,1,8.7,1.87,1.87,0,0,1,.27,8,1.84,1.84,0,0,1,0,7,1.62,1.62,0,0,1,.63,5.66a2.86,2.86,0,0,1,1.76-.51h2v-.3a1.29,1.29,0,0,0-.41-1,1.8,1.8,0,0,0-1.21-.37,3.41,3.41,0,0,0-1.95.69L.36,3.36a5.6,5.6,0,0,1,1.27-.64A4.32,4.32,0,0,1,3,2.52a2.66,2.66,0,0,1,1.84.58,2.13,2.13,0,0,1,.66,1.63V8.9ZM3.75,7.65a1.5,1.5,0,0,0,.65-1V6H2.54a2.2,2.2,0,0,0-1.12.23A.79.79,0,0,0,1.06,7a.92.92,0,0,0,.37.78,1.6,1.6,0,0,0,1,.29A2.29,2.29,0,0,0,3.75,7.65Z"/>
      <path class="cls-1" d="M12.62,2.93A2.7,2.7,0,0,1,13.7,4.07a3.53,3.53,0,0,1,.39,1.68,3.56,3.56,0,0,1-.38,1.66,2.77,2.77,0,0,1-1.07,1.13,3,3,0,0,1-1.58.4A2.83,2.83,0,0,1,9.65,8.6a2.34,2.34,0,0,1-1-1V8.9H7.57V0H8.69V3.82a2.37,2.37,0,0,1,1-1A2.79,2.79,0,0,1,11,2.52,3.07,3.07,0,0,1,12.62,2.93Zm-.7,4.75a2,2,0,0,0,.76-.8A2.52,2.52,0,0,0,13,5.71a2.33,2.33,0,0,0-.28-1.15,2,2,0,0,0-.75-.8,2.21,2.21,0,0,0-2.19,0,2,2,0,0,0-.77.8,2.44,2.44,0,0,0-.27,1.15A2.46,2.46,0,0,0,9,6.88a2,2,0,0,0,.77.8,2.21,2.21,0,0,0,2.19,0Z"/>
      <path class="cls-1" d="M18.29,3.52a2.23,2.23,0,0,0-1.11.27,2,2,0,0,0-.76.78,2.36,2.36,0,0,0-.28,1.17,2.42,2.42,0,0,0,.27,1.16,2,2,0,0,0,.74.79A2.18,2.18,0,0,0,18.24,8a2.73,2.73,0,0,0,1.1-.21,2.11,2.11,0,0,0,.82-.58l.64.64a2.84,2.84,0,0,1-1.1.83,3.84,3.84,0,0,1-1.51.29,3.3,3.3,0,0,1-1.64-.41A2.83,2.83,0,0,1,15.43,7.4,3.38,3.38,0,0,1,15,5.74a3.39,3.39,0,0,1,.41-1.67,2.79,2.79,0,0,1,1.12-1.14,3.3,3.3,0,0,1,1.64-.41,3.9,3.9,0,0,1,1.45.25,2.75,2.75,0,0,1,1.07.71l-.61.77A2.5,2.5,0,0,0,18.29,3.52Z"/>
    </g>
  </g>
</svg>
