<svg viewBox="0 0 360 360">
  <path d="M244.928,256.084l-28.413,-3.489l4.875,-39.701c26.138,3.209 52.277,6.418 78.415,9.628l17.772,76.979l-38.975,8.998l-5.499,-23.822c-13.317,11.965 -28.854,21.393 -45.639,27.518c-37.75,13.774 -81.377,10.21 -116.43,-9.46c-21.78,-12.222 -40.151,-30.379 -52.712,-52.034l34.6,-20.071c19.451,33.533 59.37,54.234 99.035,49.261c19.508,-2.445 38.08,-11.008 52.971,-23.807Zm-158.898,-179.243c24.304,-21.626 56.016,-34.998 88.841,-36.097c1.752,-0.059 3.506,-0.08 5.26,-0.077c47.58,0.308 93.509,25.894 118.56,66.485c0.709,1.149 1.399,2.31 2.077,3.478l-34.6,20.071c-22.056,-38.021 -70.544,-58.733 -114.259,-46.131c-13.92,4.013 -26.883,11.182 -37.838,20.667l28.504,3.499l-4.875,39.702l-78.415,-9.628l-17.773,-76.979l38.975,-8.998l5.543,24.008Z" />
</svg>