<svg xmlns="http://www.w3.org/2000/svg" viewBox="0 0 17 16.91">
  <defs>
    <style>
      .cls-1 {
        fill: #fff;
      }
    </style>
  </defs>
  <title>Sync</title>
  <g id="Layer_2" data-name="Layer 2">
    <g id="Layer_1-2" data-name="Layer 1">
      <g>
        <path class="cls-1" d="M16.62.52A.5.5,0,0,0,16,.88L15.22,4A8.65,8.65,0,0,0,.05,5a.5.5,0,0,0,.24.67.52.52,0,0,0,.21,0A.48.48,0,0,0,1,5.45,7.67,7.67,0,0,1,11.12,1.71,7.57,7.57,0,0,1,14.4,4.64l-3.29-.82a.5.5,0,0,0-.61.36.51.51,0,0,0,.37.61l4.4,1.1.13,0a.5.5,0,0,0,.48-.38L17,1.12A.5.5,0,0,0,16.62.52Z"/>
        <path class="cls-1" d="M17,11.87A8.66,8.66,0,0,1,5.46,16.11a8.69,8.69,0,0,1-3.68-3.24L1,16a.51.51,0,0,1-.61.37A.51.51,0,0,1,0,15.78l1.11-4.41A.5.5,0,0,1,1.6,11h.13l4.4,1.11a.5.5,0,0,1,.37.6.52.52,0,0,1-.61.37L2.6,12.26a7.64,7.64,0,0,0,13.45-.81.49.49,0,0,1,.45-.29.52.52,0,0,1,.21,0A.5.5,0,0,1,17,11.87Z"/>
      </g>
    </g>
  </g>
</svg>
