<svg xmlns="http://www.w3.org/2000/svg" width="30px" height="30px" viewBox="0 0 18 16">
    <title>Table Exclamation</title>
    <g id="Table-Exclamation" stroke="none" stroke-width="1" fill="none" fill-rule="evenodd">
        <path d="M16,2 L2,2 C1.44771525,2 1,2.44771525 1,3 L1,13.46 C1,14.0122847 1.44771525,14.46 2,14.46 L16,14.46 C16.5522847,14.46 17,14.0122847 17,13.46 L17,3 C17,2.44771525 16.5522847,2 16,2 Z M8.5,5.16 L8.5,8.81 L2,8.81 L2,5.16 L8.5,5.16 Z M2,9.81 L8.5,9.81 L8.5,13.46 L2,13.46 L2,9.81 Z M16,14 L16,13.5 L9.5,13.5 L9.5,9.81 L16,9.81 L16,13.46 L16,13.46 L16,14 Z M16,8.85 L9.5,8.85 L9.5,5.16 L16,5.16 L16,8.85 Z" id="Shape" fill="#6B778C"></path>
        <path d="M11,13 L11,16 L7,16 L7,13 L11,13 Z M11,-4.61852778e-14 L11,11 L7,11 L7,-4.61852778e-14 L11,-4.61852778e-14 Z" id="Combined-Shape" fill="#A80000"></path>
    </g>
</svg>