<svg xmlns="http://www.w3.org/2000/svg" viewBox="0 0 12.81 12.81">
  <defs>
    <style>
      .cls-1 {
        fill: #231f20;
      }

      .cls-2 {
        fill: #fff;
      }
    </style>
  </defs>
  <title>Time</title>
  <g id="Layer_2" data-name="Layer 2">
    <g id="Layer_1-2" data-name="Layer 1">
      <path class="cls-1" d="M6.4,12.81A6.41,6.41,0,1,1,12.81,6.4,6.41,6.41,0,0,1,6.4,12.81ZM6.4,1a5.41,5.41,0,1,0,5.41,5.4A5.4,5.4,0,0,0,6.4,1Z"/>
      <line class="cls-2" x1="6.4" y1="3.3" x2="6.4" y2="6.86"/>
      <path class="cls-1" d="M6.4,7.36a.51.51,0,0,1-.5-.5V3.3a.5.5,0,0,1,.5-.5.5.5,0,0,1,.5.5V6.86A.5.5,0,0,1,6.4,7.36Z"/>
      <line class="cls-2" x1="6.55" y1="7.03" x2="7.79" y2="8.56"/>
      <path class="cls-1" d="M7.79,9.06a.49.49,0,0,1-.38-.18L6.16,7.35a.5.5,0,0,1,.07-.7.5.5,0,0,1,.71.07L8.18,8.24A.5.5,0,0,1,8.11,9,.52.52,0,0,1,7.79,9.06Z"/>
    </g>
  </g>
</svg>
