<svg xmlns="http://www.w3.org/2000/svg" height="30" width="30" viewBox="0 0 17 17">
  <defs>
    <style>
      .cls-1 {
        fill: #fff;
      }
    </style>
  </defs>
  <title>TimeSeriesOutlier</title>
  <g id="Layer_2" data-name="Layer 2">
    <g id="Layer_1-2" data-name="Layer 1">
      <g>
        <path class="cls-1" d="M16.5,17H1a1.12,1.12,0,0,1-1-1.21V.5A.5.5,0,0,1,.5,0,.5.5,0,0,1,1,.5V15.79a.29.29,0,0,0,.07.22H16.5a.5.5,0,0,1,0,1Z"/>
        <path class="cls-1" d="M2.13,11.7a.5.5,0,0,1-.26-.93l1.68-1a.48.48,0,0,1,.33-.07l1.57.2L7,9.35a.51.51,0,0,1,.3,0l1.18.35,1.56-6.32A.51.51,0,0,1,10.56,3h0a.49.49,0,0,1,.48.38L12.6,9.58l1.18-.39a.48.48,0,0,1,.37,0l1.69.82a.5.5,0,0,1-.44.9l-1.51-.74-1.49.49a.5.5,0,0,1-.64-.35l-1.2-4.78-1.2,4.88a.49.49,0,0,1-.24.31.49.49,0,0,1-.39.05L7.2,10.35l-1.54.5a.57.57,0,0,1-.22,0l-1.51-.2-1.54.95A.5.5,0,0,1,2.13,11.7Z"/>
      </g>
    </g>
  </g>
</svg>
