<svg xmlns="http://www.w3.org/2000/svg" width="30" height="30" viewBox="0 0 18.85 17.42">
  <defs>
    <style>
      .cls-1 {
        fill: white;
      }
    </style>
  </defs>
  <title>Time and Date</title>
  <g id="Layer_2" data-name="Layer 2">
    <g id="Layer_1-2" data-name="Layer 1">
      <path class="cls-1" d="M3.48,3.11a.57.57,0,0,0,.58-.57v-2A.58.58,0,0,0,3.48,0a.57.57,0,0,0-.57.58v2A.56.56,0,0,0,3.48,3.11Z"/>
      <path class="cls-1" d="M12.52,3.11a.56.56,0,0,0,.57-.57v-2A.57.57,0,0,0,12.52,0a.58.58,0,0,0-.58.58v2A.57.57,0,0,0,12.52,3.11Z"/>
      <path class="cls-1" d="M16,7V2.52a1,1,0,0,0-1-1H13.36v1a.84.84,0,0,1-1.68,0v-1H4.32v1a.84.84,0,0,1-1.68,0v-1H1a1,1,0,0,0-1,1V14a1,1,0,0,0,1,1H8.66A5.57,5.57,0,1,0,16,7ZM1,14V4.68H15V6.54a5.75,5.75,0,0,0-1.73-.27A5.59,5.59,0,0,0,8.12,14Zm12.27,2.44a4.58,4.58,0,1,1,4.58-4.58A4.58,4.58,0,0,1,13.27,16.42Z"/>
      <path class="cls-1" d="M13.79,12.07h0V9.17a.5.5,0,0,0-.5-.5.51.51,0,0,0-.5.5v3.07a.47.47,0,0,0,.2.38s0,.06,0,.08L14.08,14a.51.51,0,0,0,.39.18.56.56,0,0,0,.32-.11.52.52,0,0,0,.07-.71Z"/>
    </g>
  </g>
</svg>
