<svg xmlns="http://www.w3.org/2000/svg" viewBox="0 0 16 12.88" height="30" width="30">
  <defs>
    <style>
      .cls-1 {
        fill: #fff;
      }
    </style>
  </defs>
  <title>Tooltip</title>
  <g id="Layer_2" data-name="Layer 2">
    <g id="Layer_1-2" data-name="Layer 1">
      <path class="cls-1" d="M12.37,6.67H3.63a.51.51,0,0,1-.5-.5.5.5,0,0,1,.5-.5h8.74a.5.5,0,0,1,.5.5A.51.51,0,0,1,12.37,6.67Z"/>
      <path class="cls-1" d="M12.37,4.12H3.63a.51.51,0,0,1-.5-.5.5.5,0,0,1,.5-.5h8.74a.5.5,0,0,1,.5.5A.51.51,0,0,1,12.37,4.12Z"/>
      <path class="cls-1" d="M8,12.88H7.77l-.19-.19L4.88,9.78H.75A.74.74,0,0,1,0,9V.75A.74.74,0,0,1,.75,0h14.5A.74.74,0,0,1,16,.75V9a.74.74,0,0,1-.75.74H11.13L8.26,12.86ZM1,8.78H5.31L8,11.67l2.69-2.89H15V1H1Z"/>
    </g>
  </g>
</svg>
