<svg xmlns="http://www.w3.org/2000/svg" viewBox="0 0 19.7 15.17" height="30" width="30">
  <defs>
    <style>
      .cls-1 {
        fill: #fff;
      }
    </style>
  </defs>
  <title>Truncate</title>
  <g id="Layer_2" data-name="Layer 2">
    <g id="Layer_1-2" data-name="Layer 1">
      <path class="cls-1" d="M19.44,11.69l-.13-.26a2.35,2.35,0,0,0-3-1.09h0a1.09,1.09,0,0,1-1-.09l2.21-3.69a1.67,1.67,0,0,0-.71-2.37L14.11,8.57,11.49,4.19a1.66,1.66,0,0,0-.72,2.37L13,10.25a1.09,1.09,0,0,1-1,.09h0a2.35,2.35,0,0,0-3,1.09l-.13.26a2.36,2.36,0,0,0,1,3.16l.09,0A2.36,2.36,0,0,0,13,14l1.12-1.88L15.23,14a2.36,2.36,0,0,0,3.14.87l.09,0A2.36,2.36,0,0,0,19.44,11.69Zm-8.57,1.94a.9.9,0,1,1,.9-.9A.9.9,0,0,1,10.87,13.63Zm3.24-2.93a.42.42,0,1,1,.42-.42A.42.42,0,0,1,14.11,10.7Zm3.24,2.93a.9.9,0,1,1,0-1.8.9.9,0,1,1,0,1.8Z"/>
      <path class="cls-1" d="M15,6l1-1.67V1a1,1,0,0,0-1-1H1A1,1,0,0,0,0,1V11.46a1,1,0,0,0,1,1H7.54a2.46,2.46,0,0,1,.24-.77l.13-.26a2.23,2.23,0,0,1,.59-.73V7.81h2.26l-.6-1H8.5V3.16H15V6ZM7.5,11.46H1V7.81H7.5ZM1,6.81V3.16H7.5V6.81Z"/>
    </g>
  </g>
</svg>
