<svg xmlns="http://www.w3.org/2000/svg" viewBox="0 0 17 5.91">
  <defs>
    <style>
      .cls-1 {
        fill: #231f20;
      }
    </style>
  </defs>
  <title>Undo</title>
  <g id="Layer_2" data-name="Layer 2">
    <g id="Layer_1-2" data-name="Layer 1">
      <path class="cls-1" d="M17,5A8.64,8.64,0,0,0,1.78,4L1,.88A.51.51,0,0,0,.38.52.51.51,0,0,0,0,1.13l1.11,4.4a.5.5,0,0,0,.48.38h.13l4.4-1.11a.5.5,0,1,0-.24-1L2.6,4.65a7.64,7.64,0,0,1,13.45.81.49.49,0,0,0,.45.29.54.54,0,0,0,.21,0A.49.49,0,0,0,17,5Z"/>
    </g>
  </g>
</svg>
