<svg xmlns="http://www.w3.org/2000/svg" width="30" height="30" viewBox="0 0 12.12 17.56">
  <defs>
    <style>
      .cls-1 {
        fill: #fff;
      }
    </style>
  </defs>
  <title>Unlock</title>
  <g id="Layer_2" data-name="Layer 2">
    <g id="Layer_1-2" data-name="Layer 1">
      <path class="cls-1" d="M11.15,7.11h-.47V5.38C10.68,2.5,9.21.47,6.84.07A4.68,4.68,0,0,0,1.45,3.89a.5.5,0,1,0,1,.17,3.68,3.68,0,0,1,4.25-3c1.88.32,3,1.94,3,4.33V7.11H1a1,1,0,0,0-1,1v5.24a4.26,4.26,0,0,0,4.25,4.25H7.87a4.26,4.26,0,0,0,4.25-4.25V8.07A1,1,0,0,0,11.15,7.11Zm0,6.2a3.26,3.26,0,0,1-3.25,3.25H4.25A3.26,3.26,0,0,1,1,13.31l0-5.2,10.16,0Z"/>
      <path class="cls-1" d="M5.59,12.52v.87a.47.47,0,1,0,.93,0v-.87A.93.93,0,0,0,7,11.73a.92.92,0,1,0-1.39.79Z"/>
    </g>
  </g>
</svg>
