<?xml version="1.0" encoding="utf-8"?>
<!-- Generator: Adobe Illustrator 23.0.3, SVG Export Plug-In . SVG Version: 6.00 Build 0)  -->
<svg version="1.1" id="Calque_1" xmlns="http://www.w3.org/2000/svg" xmlns:xlink="http://www.w3.org/1999/xlink" x="0px" y="0px"
	 viewBox="0 0 12.1 17" style="enable-background:new 0 0 12.1 17;" xml:space="preserve">
<style type="text/css">
	.st0{fill:#231F20;}
</style>
<title>Padlock</title>
<path class="st0" d="M5.6,12v0.9c0,0.3,0.2,0.5,0.5,0.5l0,0c0.3,0,0.5-0.2,0.5-0.5c0,0,0,0,0,0V12c0.4-0.3,0.6-0.8,0.3-1.3
	c-0.3-0.4-0.8-0.6-1.3-0.3S5,11.2,5.3,11.7C5.3,11.8,5.5,11.9,5.6,12z"/>
<path class="st0" d="M11.2,6.5h-0.4V4.7C10.7,2.1,8.6,0,6.1,0C4.2,0,2.6,1.1,1.9,2.6H3C3.7,1.7,4.8,1,6.1,1c2,0,3.7,1.6,3.7,3.7v1.9
	H1c-0.6,0-1,0.4-1,1v5.2C0,15.1,1.9,17,4.3,17h3.6c2.3,0,4.2-1.9,4.3-4.3V7.5C12.1,7,11.7,6.6,11.2,6.5z M11.1,12.8
	c0,1.8-1.5,3.2-3.3,3.3H4.3C2.5,16,1,14.5,1,12.8V7.5h10.2L11.1,12.8z"/>
</svg>
