<svg xmlns="http://www.w3.org/2000/svg" viewBox="0 0 12.85 15.75">
  <defs>
    <style>
      .cls-1 {
        fill: #fff;
      }
    </style>
  </defs>
  <title>User</title>
  <g id="Layer_2" data-name="Layer 2">
    <g id="Layer_1-2" data-name="Layer 1">
      <path class="cls-1" d="M8.51,7a3.8,3.8,0,1,0-4.2,0A6.57,6.57,0,0,0,2.1,8.28,6.47,6.47,0,0,0,0,13v1.62a1.09,1.09,0,0,0,1.09,1.09H11.76a1.09,1.09,0,0,0,1.09-1.09V13.29A6.71,6.71,0,0,0,8.51,7ZM3.62,3.81a2.81,2.81,0,1,1,2.8,2.8A2.81,2.81,0,0,1,3.62,3.81Zm8.23,10.85a.09.09,0,0,1-.09.09H1.09A.09.09,0,0,1,1,14.66V13A5.45,5.45,0,0,1,2.78,9,5.34,5.34,0,0,1,6.42,7.61l.54,0a5.6,5.6,0,0,1,4.89,5.65Z"/>
    </g>
  </g>
</svg>
