<svg viewBox="0 0 360 360" >
    <path d="M259.172,308.973l-160,0c0,0 0,-11.239 0,-25.571c0,-33.137 26.863,-60 60,-60c13.079,0 26.921,0 40,0c33.137,0 60,26.863 60,60l0,25.571Zm-160.845,-63l-98.327,0c0,0 0,-11.239 0,-25.571c0,-33.137 26.863,-60 60,-60c13.079,0 26.921,0 40,0c6.73,0 13.202,1.108 19.192,3.192l-0.02,0.808c0,23.393 13.416,43.676 32.967,53.571l-3.119,0c-21.354,0 -40.102,11.155 -50.693,28Zm261.673,0l-99.984,0c-10.59,-16.845 -29.338,-28 -50.692,-28l-3.119,0c19.551,-9.894 32.967,-30.178 32.967,-53.571l-0.005,-0.208c6.467,-2.475 13.496,-3.792 20.833,-3.792c13.079,0 26.921,0 40,0c33.137,0 60,26.863 60,60l0,25.571Zm-180.828,-131.571c27.596,0 50,22.404 50,50c0,27.596 -22.404,50 -50,50c-27.596,0 -50,-22.404 -50,-50c0,-27.596 22.404,-50 50,-50Zm100.828,-63c27.596,0 50,22.404 50,50c0,27.596 -22.404,50 -50,50c-27.596,0 -50,-22.404 -50,-50c0,-27.596 22.404,-50 50,-50Zm-200,0c27.596,0 50,22.404 50,50c0,27.596 -22.404,50 -50,50c-27.596,0 -50,-22.404 -50,-50c0,-27.596 22.404,-50 50,-50Z" />
  </svg>