<svg xmlns="http://www.w3.org/2000/svg" width="30" height="30" viewBox="0 0 16 12.46">
  <defs>
    <style>
      .cls-1 {
        fill: white;
      }
    </style>
  </defs>
  <title>View</title>
  <g id="Layer_2" data-name="Layer 2">
    <g id="Layer_1-2" data-name="Layer 1">
      <path class="cls-1" d="M15.5,3.67a.5.5,0,0,0-.5.5V5a.5.5,0,0,0,1,0V4.17A.5.5,0,0,0,15.5,3.67Z"/>
      <path class="cls-1" d="M7.16,11.46H5.48A.51.51,0,0,0,5,12a.5.5,0,0,0,.5.5H7.16a.5.5,0,0,0,.5-.5A.5.5,0,0,0,7.16,11.46Z"/>
      <path class="cls-1" d="M.5,8.87a.5.5,0,0,0,.5-.5V6.69a.5.5,0,0,0-.5-.5.5.5,0,0,0-.5.5V8.37A.5.5,0,0,0,.5,8.87Z"/>
      <path class="cls-1" d="M1,10.05a.5.5,0,0,0-.5-.5.5.5,0,0,0-.5.5v1.56A.84.84,0,0,0,.08,12a.51.51,0,0,0,.45.27.44.44,0,0,0,.22-.05A.5.5,0,0,0,1,11.56Z"/>
      <path class="cls-1" d="M3.8,11.46H2.12a.51.51,0,0,0-.5.5.5.5,0,0,0,.5.5H3.8a.5.5,0,0,0,.5-.5A.5.5,0,0,0,3.8,11.46Z"/>
      <path class="cls-1" d="M10.52,11.46H8.84a.51.51,0,0,0-.5.5.5.5,0,0,0,.5.5h1.68A.5.5,0,0,0,11,12,.5.5,0,0,0,10.52,11.46Z"/>
      <path class="cls-1" d="M15.5,9.54a.5.5,0,0,0-.5.5v1.52a.5.5,0,0,0,.26.61.54.54,0,0,0,.21.05.52.52,0,0,0,.46-.29.71.71,0,0,0,.07-.32V10A.5.5,0,0,0,15.5,9.54Z"/>
      <path class="cls-1" d="M15.5,6.18a.5.5,0,0,0-.5.5V8.36a.5.5,0,0,0,1,0V6.68A.5.5,0,0,0,15.5,6.18Z"/>
      <path class="cls-1" d="M13.88,11.46H12.2a.51.51,0,0,0-.5.5.5.5,0,0,0,.5.5h1.68a.5.5,0,0,0,.5-.5A.5.5,0,0,0,13.88,11.46Z"/>
      <path class="cls-1" d="M.5,5.5A.5.5,0,0,0,1,5V4.17a.5.5,0,0,0-.5-.5.5.5,0,0,0-.5.5V5A.5.5,0,0,0,.5,5.5Z"/>
      <path class="cls-1" d="M15,0H1A1,1,0,0,0,0,1V3.16H16V1A1,1,0,0,0,15,0Z"/>
      <path class="cls-1" d="M2.25,7.81H3.72a.5.5,0,0,0,.5-.5.5.5,0,0,0-.5-.5H2.25a.5.5,0,0,0-.5.5A.5.5,0,0,0,2.25,7.81Z"/>
      <path class="cls-1" d="M13.7,7.81a.5.5,0,0,0,.5-.5.51.51,0,0,0-.5-.5H12a.51.51,0,0,0-.5.5.5.5,0,0,0,.5.5Z"/>
      <path class="cls-1" d="M7,6.81H5.38a.51.51,0,0,0-.5.5.5.5,0,0,0,.5.5H7a.5.5,0,0,0,.5-.5A.5.5,0,0,0,7,6.81Z"/>
      <path class="cls-1" d="M8.21,7.31a.5.5,0,0,0,.5.5h1.66a.5.5,0,0,0,.5-.5.5.5,0,0,0-.5-.5H8.71A.5.5,0,0,0,8.21,7.31Z"/>
      <path class="cls-1" d="M8.5,10.49V9.15a.5.5,0,1,0-1,0v1.34a.5.5,0,1,0,1,0Z"/>
      <path class="cls-1" d="M8,3.67a.5.5,0,0,0-.5.5V5.5a.5.5,0,0,0,1,0V4.17A.5.5,0,0,0,8,3.67Z"/>
    </g>
  </g>
</svg>
