<svg xmlns="http://www.w3.org/2000/svg" viewBox="0 0 19.28 14.15" height="30" width="30">
  <defs>
    <style>
      .cls-1 {
        fill: #fff;
      }
    </style>
  </defs>
  <title>View</title>
  <g id="Layer_2" data-name="Layer 2">
    <g id="Layer_1-2" data-name="Layer 1">
      <g>
        <path class="cls-1" d="M12.2,14.15c-3.41,0-6.32-1.79-7.06-4.36a.71.71,0,0,1,0-.29c.74-2.56,3.65-4.35,7.06-4.35s6.32,1.79,7.06,4.35a.71.71,0,0,1,0,.29C18.52,12.36,15.61,14.15,12.2,14.15Zm-6-4.5c.68,2,3.17,3.45,6,3.45s5.33-1.44,6-3.45c-.68-2-3.17-3.46-6-3.46S6.87,7.63,6.19,9.65Z"/>
        <path class="cls-1" d="M5.05,11.34H1V7.73H5.21a6.63,6.63,0,0,1,.92-1H1V3.13H7.42V5.84a9.05,9.05,0,0,1,1-.47V3.13h6.43V5c.34.09.67.2,1,.32V1a1,1,0,0,0-1-1H1A1,1,0,0,0,0,1V11.34a1,1,0,0,0,1,1h4.9A6.48,6.48,0,0,1,5.05,11.34Z"/>
        <circle class="cls-1" cx="12.2" cy="9.65" r="1.97"/>
      </g>
    </g>
  </g>
</svg>
