<svg xmlns="http://www.w3.org/2000/svg" viewBox="0 0 18.5 13.58">
  <defs>
    <style>
      .cls-1 {
        fill: #fff;
      }
    </style>
  </defs>
  <title>View</title>
  <g id="Layer_2" data-name="Layer 2">
    <g id="Layer_1-2" data-name="Layer 1">
      <path class="cls-1" d="M11.71,13.58c-3.28,0-6.06-1.72-6.77-4.18a.45.45,0,0,1,0-.28c.71-2.46,3.49-4.18,6.77-4.18s6.06,1.72,6.77,4.18a.45.45,0,0,1,0,.28C17.77,11.86,15,13.58,11.71,13.58ZM5.94,9.26c.65,1.93,3.05,3.32,5.77,3.32s5.12-1.39,5.77-3.32c-.65-1.93-3.05-3.32-5.77-3.32S6.59,7.33,5.94,9.26Z"/>
      <path class="cls-1" d="M4.84,10.88H1V7.42H5a6.12,6.12,0,0,1,.89-1H1V3H7.12V5.61a7.58,7.58,0,0,1,1-.46V3h6.17V4.78a9.59,9.59,0,0,1,.95.31V1A1,1,0,0,0,14.24,0H1A1,1,0,0,0,0,1v9.93a1,1,0,0,0,1,.95h4.7A6.08,6.08,0,0,1,4.84,10.88Z"/>
      <circle class="cls-1" cx="11.71" cy="9.26" r="1.89"/>
    </g>
  </g>
</svg>
