<svg xmlns="http://www.w3.org/2000/svg" viewBox="0 0 16 15.86">
  <defs>
    <style>
      .cls-1 {
        fill: #fff;
      }
    </style>
  </defs>
  <title>Virtual</title>
  <g id="Layer_2" data-name="Layer 2">
    <g id="Layer_1-2" data-name="Layer 1">
      <path class="cls-1" d="M9.31,1.77l1.3.75a.57.57,0,0,0,.25.06.5.5,0,0,0,.25-.93L9.81.9a.5.5,0,0,0-.68.18A.51.51,0,0,0,9.31,1.77Z"/>
      <path class="cls-1" d="M12.35,3.52l1.29.75a.57.57,0,0,0,.25.06.5.5,0,0,0,.25-.93l-1.29-.75a.51.51,0,0,0-.69.18A.51.51,0,0,0,12.35,3.52Z"/>
      <path class="cls-1" d="M9.07,7.92l-1.3.75a.51.51,0,0,0-.18.69A.5.5,0,0,0,8,9.61a.59.59,0,0,0,.26-.07l1.29-.76a.5.5,0,0,0-.5-.86Z"/>
      <path class="cls-1" d="M13.64,5.84a.51.51,0,0,0,.44.25A.47.47,0,0,0,14.33,6l1.29-.75a.52.52,0,0,0,.19-.69.51.51,0,0,0-.69-.18l-1.29.76A.49.49,0,0,0,13.64,5.84Z"/>
      <path class="cls-1" d="M4.85,7.27A.49.49,0,0,0,5,8l1.3.75a.45.45,0,0,0,.25.07.5.5,0,0,0,.25-.93l-1.3-.75A.49.49,0,0,0,4.85,7.27Z"/>
      <path class="cls-1" d="M6.54,1.75a.57.57,0,0,0,.25-.06L8.08.93A.51.51,0,0,0,8.27.25.51.51,0,0,0,7.58.07L6.29.82a.51.51,0,0,0-.19.69A.5.5,0,0,0,6.54,1.75Z"/>
      <path class="cls-1" d="M.51,5.27a.46.46,0,0,0,.33-.13L2,4.45a.5.5,0,0,0,.18-.68.51.51,0,0,0-.68-.19L.25,4.33A.49.49,0,0,0,0,4.77a.52.52,0,0,0,.25.43A.47.47,0,0,0,.51,5.27Z"/>
      <path class="cls-1" d="M3.51,3.51a.54.54,0,0,0,.25-.06l1.3-.76a.5.5,0,1,0-.5-.86l-1.3.75a.5.5,0,0,0,.25.93Z"/>
      <path class="cls-1" d="M15.75,10.58,13.8,9.45l1.95-1.13A.48.48,0,0,0,16,7.89a.52.52,0,0,0-.25-.44L13.05,5.9a.49.49,0,0,0-.68.18s0,0,0,0a.48.48,0,0,0-.26.06l-1.3.75a.51.51,0,0,0-.18.69.5.5,0,0,0,.43.25.45.45,0,0,0,.25-.07L12.6,7a.54.54,0,0,0,.15-.15l1.75,1L8,11.65,1.5,7.89l1.7-1,.1,0A.45.45,0,0,0,3.55,7a.5.5,0,0,0,.25-.93L2.5,5.34A.5.5,0,1,0,2,6.2l.2.12L.25,7.45a.5.5,0,0,0,0,.87l2,1.13L.25,10.58A.5.5,0,0,0,0,11a.52.52,0,0,0,.25.44l7.52,4.34a.47.47,0,0,0,.25.07.48.48,0,0,0,.26-.07l7.47-4.34a.5.5,0,0,0,0-.87ZM8,14.78,1.5,11l1.7-1,4.57,2.64a.47.47,0,0,0,.25.07.48.48,0,0,0,.26-.07L12.8,10l1.7,1Z"/>
    </g>
  </g>
</svg>
