<svg xmlns="http://www.w3.org/2000/svg" viewBox="0 0 12.7 16">
  <defs>
    <style>
      .cls-1 {
        fill: #231f20;
      }
    </style>
  </defs>
  <title>Virtual database</title>
  <g id="Layer_2" data-name="Layer 2">
    <g id="Layer_1-2" data-name="Layer 1">
      <path class="cls-1" d="M7.21,0A16.26,16.26,0,0,0,5.5,0,.5.5,0,0,0,5,.55.48.48,0,0,0,5.55,1c.53,0,1.09,0,1.61,0h0a.51.51,0,0,0,.5-.47A.51.51,0,0,0,7.21,0Z"/>
      <path class="cls-1" d="M3.79.2A9.07,9.07,0,0,0,2.1.62a.49.49,0,0,0-.31.63.49.49,0,0,0,.47.34.45.45,0,0,0,.16,0A9.54,9.54,0,0,1,4,1.19.51.51,0,0,0,4.37.61.5.5,0,0,0,3.79.2Z"/>
      <path class="cls-1" d="M10.62.62A11.42,11.42,0,0,0,8.92.2a.49.49,0,0,0-.57.42.49.49,0,0,0,.41.57,9.5,9.5,0,0,1,1.53.38l.16,0a.52.52,0,0,0,.48-.33A.51.51,0,0,0,10.62.62Z"/>
      <path class="cls-1" d="M1,13.43a.5.5,0,0,0-1,0,1.42,1.42,0,0,0,.45,1,.46.46,0,0,0,.36.16.49.49,0,0,0,.34-.14.5.5,0,0,0,0-.71A.51.51,0,0,1,1,13.43Z"/>
      <path class="cls-1" d="M.5,6.17a.5.5,0,0,0,.5-.5V4.12a.5.5,0,0,0-.5-.5.5.5,0,0,0-.5.5V5.67A.5.5,0,0,0,.5,6.17Z"/>
      <path class="cls-1" d="M.5,9.28a.5.5,0,0,0,.5-.5V7.23a.5.5,0,0,0-.5-.5.5.5,0,0,0-.5.5V8.78A.5.5,0,0,0,.5,9.28Z"/>
      <path class="cls-1" d="M.5,12.38a.5.5,0,0,0,.5-.5V10.33a.5.5,0,0,0-.5-.5.5.5,0,0,0-.5.5v1.55A.5.5,0,0,0,.5,12.38Z"/>
      <path class="cls-1" d="M.45,1.56a1.41,1.41,0,0,0-.45,1,.5.5,0,0,0,.5.5.5.5,0,0,0,.5-.5.51.51,0,0,1,.17-.31.5.5,0,0,0,0-.71A.49.49,0,0,0,.45,1.56Z"/>
      <path class="cls-1" d="M7.15,15c-.53,0-1.09,0-1.62,0a.48.48,0,0,0-.52.47.51.51,0,0,0,.47.53l.87,0,.85,0a.5.5,0,0,0,.47-.53A.47.47,0,0,0,7.15,15Z"/>
      <path class="cls-1" d="M3.94,14.81a9.24,9.24,0,0,1-1.53-.38.5.5,0,1,0-.33,1,11.59,11.59,0,0,0,1.69.42h.09a.5.5,0,0,0,.08-1Z"/>
      <path class="cls-1" d="M10.28,14.44a9.67,9.67,0,0,1-1.54.37.51.51,0,0,0-.41.58.5.5,0,0,0,.49.42h.09a9.49,9.49,0,0,0,1.69-.42.5.5,0,0,0-.32-.94Z"/>
      <path class="cls-1" d="M12.2,12.93a.5.5,0,0,0-.5.5.51.51,0,0,1-.17.32.5.5,0,0,0,0,.71.52.52,0,0,0,.35.14.51.51,0,0,0,.36-.15,1.47,1.47,0,0,0,.45-1A.51.51,0,0,0,12.2,12.93Z"/>
      <path class="cls-1" d="M12.2,9.83a.5.5,0,0,0-.5.5v1.55a.5.5,0,0,0,.5.5.5.5,0,0,0,.5-.5V10.33A.5.5,0,0,0,12.2,9.83Z"/>
      <path class="cls-1" d="M12.2,3.62a.5.5,0,0,0-.5.5V5.67a.5.5,0,0,0,.5.5.5.5,0,0,0,.5-.5V4.12A.5.5,0,0,0,12.2,3.62Z"/>
      <path class="cls-1" d="M12.2,6.73a.5.5,0,0,0-.5.5V8.78a.5.5,0,0,0,.5.5.51.51,0,0,0,.5-.5V7.23A.5.5,0,0,0,12.2,6.73Z"/>
      <path class="cls-1" d="M11.7,2.56a.5.5,0,0,0,.5.5.5.5,0,0,0,.5-.5,1.5,1.5,0,0,0-.45-1,.51.51,0,0,0-.71,0,.5.5,0,0,0,0,.71A.51.51,0,0,1,11.7,2.56Z"/>
      <path class="cls-1" d="M10.29,7.19a9.54,9.54,0,0,1-1.53.37.5.5,0,0,0,.08,1h.08a10.31,10.31,0,0,0,1.7-.42.5.5,0,0,0,.31-.63A.5.5,0,0,0,10.29,7.19Z"/>
      <path class="cls-1" d="M4,7.57a9.5,9.5,0,0,1-1.53-.38.5.5,0,0,0-.32,1,10,10,0,0,0,1.69.41h.08a.5.5,0,0,0,.5-.42A.5.5,0,0,0,4,7.57Z"/>
      <path class="cls-1" d="M7.16,7.73a14.41,14.41,0,0,1-1.61,0A.47.47,0,0,0,5,8.21a.49.49,0,0,0,.47.52c.28,0,.56,0,.85,0s.58,0,.86,0a.5.5,0,0,0,.48-.52A.49.49,0,0,0,7.16,7.73Z"/>
      <path class="cls-1" d="M7.16,4.06a14.41,14.41,0,0,1-1.61,0A.48.48,0,0,0,5,4.54a.49.49,0,0,0,.47.52c.28,0,.56,0,.85,0s.58,0,.86,0a.5.5,0,1,0,0-1Z"/>
      <path class="cls-1" d="M10.29,3.52a9.54,9.54,0,0,1-1.53.37.5.5,0,0,0,.08,1h.08a10.31,10.31,0,0,0,1.7-.42.5.5,0,0,0,.31-.63A.5.5,0,0,0,10.29,3.52Z"/>
      <path class="cls-1" d="M4,3.9a9.5,9.5,0,0,1-1.53-.38.5.5,0,0,0-.32.95,10,10,0,0,0,1.69.41h.08a.5.5,0,0,0,.5-.42A.5.5,0,0,0,4,3.9Z"/>
      <path class="cls-1" d="M4,11.19a9.54,9.54,0,0,1-1.53-.37.49.49,0,0,0-.63.3.5.5,0,0,0,.3.64,11.42,11.42,0,0,0,1.7.42h.08a.5.5,0,0,0,.5-.42A.5.5,0,0,0,4,11.19Z"/>
      <path class="cls-1" d="M10.29,10.81a10.68,10.68,0,0,1-1.53.38.49.49,0,0,0-.41.57.5.5,0,0,0,.49.42h.08a9.39,9.39,0,0,0,1.7-.42.5.5,0,0,0,.31-.63A.51.51,0,0,0,10.29,10.81Z"/>
      <path class="cls-1" d="M7.16,11.36c-.53,0-1.08,0-1.61,0a.46.46,0,0,0-.52.47.48.48,0,0,0,.47.52c.28,0,.56,0,.85,0s.58,0,.86,0a.5.5,0,0,0,.48-.52A.48.48,0,0,0,7.16,11.36Z"/>
    </g>
  </g>
</svg>
