<svg xmlns="http://www.w3.org/2000/svg" viewBox="0 0 16 16" height="30" width="30">
  <defs>
    <style>
      .cls-1 {
        fill: #fff;
      }
    </style>
  </defs>
  <title>Waiting</title>
  <g id="Layer_2" data-name="Layer 2">
    <g id="Layer_1-2" data-name="Layer 1">
      <path class="cls-1" d="M8,0a8,8,0,1,0,8,8A8,8,0,0,0,8,0ZM8,15a7,7,0,1,1,7-7A7,7,0,0,1,8,15Z"/>
      <path class="cls-1" d="M10.69,11.25h-.26v-1a1.34,1.34,0,0,0-.31-.89L9.9,9a3.08,3.08,0,0,0-.63-.69C9.1,8.18,9,8.05,9,8s.07-.2.36-.45a6.09,6.09,0,0,0,.5-.46,2.07,2.07,0,0,0,.57-1.57V4.75h.24a.5.5,0,0,0,0-1H5.38a.5.5,0,1,0,0,1h.24v.68A2.11,2.11,0,0,0,6.19,7c.19.19.36.34.5.46s.36.32.36.44-.15.22-.32.36A3.32,3.32,0,0,0,6.1,9c-.08.14-.16.25-.22.34a1.34,1.34,0,0,0-.31.89v1H5.32a.5.5,0,0,0-.5.5.5.5,0,0,0,.5.5l5.36,0h0a.5.5,0,0,0,0-1Zm-4.62-1a.84.84,0,0,1,.23-.61l.23-.36a2.65,2.65,0,0,1,.53-.57c.25-.21.49-.42.49-.74S7.33,7.38,7,7.12c-.13-.12-.29-.25-.48-.44a1.62,1.62,0,0,1-.42-1.22V4.75H9.88v.76A1.59,1.59,0,0,1,9.46,6.7L9,7.13c-.31.27-.53.46-.53.83s.24.52.49.74a2.24,2.24,0,0,1,.53.57l.23.36a.87.87,0,0,1,.23.61v1H6.07Z"/>
      <path class="cls-1" d="M8,7.59H8A8.11,8.11,0,0,1,9.12,6.43a1.26,1.26,0,0,0,.34-.95A4.05,4.05,0,0,1,8,6.19a4,4,0,0,1-1.41-.73,1.28,1.28,0,0,0,.34,1h0A6.69,6.69,0,0,1,8,7.54Z"/>
      <path class="cls-1" d="M8.12,10l-.2-.11-.4.21a2.4,2.4,0,0,1-.7.23l-.35.08V11h3v-.58l-.18,0A3.89,3.89,0,0,1,8.12,10Z"/>
    </g>
  </g>
</svg>
