<svg xmlns="http://www.w3.org/2000/svg" height="30" width="30" viewBox="0 0 21 21.05">
  <defs>
    <style>
      .cls-1 {
        fill: #fff;
      }
    </style>
  </defs>
  <title>Wand</title>
  <g id="Layer_2" data-name="Layer 2">
    <g id="Layer_1-2" data-name="Layer 1">
      <path class="cls-1" d="M1.76,21.05h0a.69.69,0,0,1-.51-.21l-1-1a.74.74,0,0,1,0-1l11-11L13.32,9.8l-11,11A.72.72,0,0,1,1.76,21.05ZM2,20.13H2Zm-.84-.84.65.65L11.91,9.8l-.65-.65ZM.92,19.1Z"/>
      <path class="cls-1" d="M4.74,18.37l-.7-.7L14.53,7.17l-.65-.65L3.39,17l-.71-.71L13.36,5.63a.73.73,0,0,1,1,0l1.06,1.06a.74.74,0,0,1,0,1Z"/>
      <path class="cls-1" d="M16.52,5a.5.5,0,0,1-.35-.15.5.5,0,0,1,0-.71L18.09,2.2a.5.5,0,1,1,.71.71L16.88,4.83A.51.51,0,0,1,16.52,5Z"/>
      <g>
        <path class="cls-1" d="M13.48,3.71a.5.5,0,0,1-.5-.5V.5a.5.5,0,0,1,.5-.5.5.5,0,0,1,.5.5V3.21A.5.5,0,0,1,13.48,3.71Z"/>
        <path class="cls-1" d="M13.48,15.05a.5.5,0,0,1-.5-.5V11.84a.5.5,0,0,1,.5-.5.5.5,0,0,1,.5.5v2.71A.5.5,0,0,1,13.48,15.05Z"/>
      </g>
      <g>
        <path class="cls-1" d="M10.43,5a.51.51,0,0,1-.36-.15L8.15,2.91a.5.5,0,1,1,.71-.71l1.92,1.92a.5.5,0,0,1,0,.71A.49.49,0,0,1,10.43,5Z"/>
        <path class="cls-1" d="M18.44,13a.52.52,0,0,1-.35-.14l-1.92-1.92a.5.5,0,1,1,.71-.71l1.92,1.92a.51.51,0,0,1,0,.71A.54.54,0,0,1,18.44,13Z"/>
      </g>
      <g>
        <path class="cls-1" d="M9.17,8H6.45a.5.5,0,0,1-.5-.5.5.5,0,0,1,.5-.5H9.17a.5.5,0,0,1,.5.5A.51.51,0,0,1,9.17,8Z"/>
        <path class="cls-1" d="M20.5,8H17.79a.5.5,0,0,1-.5-.5.5.5,0,0,1,.5-.5H20.5a.5.5,0,0,1,.5.5A.5.5,0,0,1,20.5,8Z"/>
      </g>
    </g>
  </g>
</svg>
