<svg xmlns="http://www.w3.org/2000/svg" width="30" height="30" viewBox="0 0 17 15.46">
  <defs>
    <style>
      .cls-1 {
        fill: white;
      }
    </style>
  </defs>
  <title>Warning</title>
  <g id="Layer_2" data-name="Layer 2">
    <g id="Layer_1-2" data-name="Layer 1">
      <path class="cls-1" d="M16.9,14.36,9.12.33a.75.75,0,0,0-1.25,0l-7.76,14a.72.72,0,0,0,.62,1.11H16.27a.73.73,0,0,0,.64-.37A.76.76,0,0,0,16.9,14.36Zm-15.71.1L8.5,1.27l7.31,13.19Z"/>
      <path class="cls-1" d="M7.88,5.44v4.91a.62.62,0,0,0,1.24,0V5.44a.62.62,0,0,0-1.24,0Z"/>
      <path class="cls-1" d="M8.5,11.86h0a.63.63,0,0,0,0,1.25h0a.63.63,0,0,0,0-1.25Z"/>
    </g>
  </g>
</svg>
