<svg xmlns="http://www.w3.org/2000/svg" width="30" height="30" viewBox="0 0 16 14.45">
  <defs>
    <style>
      .cls-1 {
        fill: #fff;
      }
    </style>
  </defs>
  <title>WaterfallChart</title>
  <g id="Layer_2" data-name="Layer 2">
    <g id="Layer_1-2" data-name="Layer 1">
      <g id="Layer_1-2-2" data-name="Layer 1-2">
        <g>
          <path class="cls-1" d="M3.2,14.45H.5A.5.5,0,0,1,0,14V9.5A.5.5,0,0,1,.5,9H3.2a.5.5,0,0,1,.5.5V14A.51.51,0,0,1,3.2,14.45Zm-2.2-1H2.7V10H1Z"/>
          <path class="cls-1" d="M7.3,9.31H4.6a.5.5,0,0,1-.5-.5V5.14a.5.5,0,0,1,.5-.5H7.3a.5.5,0,0,1,.5.5V8.81A.5.5,0,0,1,7.3,9.31Zm-2.2-1H6.8V5.64H5.1Z"/>
          <path class="cls-1" d="M11.4,4.69H8.7a.5.5,0,0,1-.5-.5V.5A.5.5,0,0,1,8.7,0h2.7a.5.5,0,0,1,.5.5V4.19A.5.5,0,0,1,11.4,4.69Zm-2.2-1h1.7V1H9.2Z"/>
          <path class="cls-1" d="M15.5,10.55H12.8a.5.5,0,0,1-.5-.5V.5a.5.5,0,0,1,.5-.5h2.7a.5.5,0,0,1,.5.5v9.55A.5.5,0,0,1,15.5,10.55Zm-2.2-1H15V1H13.3Z"/>
        </g>
      </g>
    </g>
  </g>
</svg>
