<svg xmlns="http://www.w3.org/2000/svg" viewBox="0 0 17 21.5">
  <defs>
    <style>
      .cls-1 {
        fill: #231f20;
      }
    </style>
  </defs>
  <title>Workbench_1</title>
  <g id="Layer_2" data-name="Layer 2">
    <g id="Layer_1-2" data-name="Layer 1">
      <g>
        <path class="cls-1" d="M17,3.34C17,1.17,12.62,0,8.5,0S0,1.17,0,3.34V18.15c0,2.18,4.38,3.35,8.5,3.35S17,20.33,17,18.15V3.34ZM8.5,1.06c4.61,0,7.44,1.33,7.44,2.28S13.11,5.63,8.5,5.63,1.06,4.3,1.06,3.34,3.89,1.06,8.5,1.06Zm0,19.38c-4.61,0-7.44-1.33-7.44-2.29V5C2.61,6.11,5.62,6.69,8.5,6.69S14.39,6.11,15.94,5V18.15C15.94,19.11,13.11,20.44,8.5,20.44Z"/>
        <g>
          <path class="cls-1" d="M4.53,11.2a2.41,2.41,0,0,0-.74-.15.68.68,0,0,0-.37.09.29.29,0,0,0-.13.25.34.34,0,0,0,.12.26,1,1,0,0,0,.29.18c.11,0,.28.1.51.16a8.17,8.17,0,0,1,.82.29,1.54,1.54,0,0,1,.57.45,1.27,1.27,0,0,1,.23.78,1.34,1.34,0,0,1-.26.82,1.44,1.44,0,0,1-.69.51,2.64,2.64,0,0,1-1,.18,3.61,3.61,0,0,1-1.2-.21,3.39,3.39,0,0,1-1-.58l.48-1a3.43,3.43,0,0,0,.87.53,2.49,2.49,0,0,0,.88.2.83.83,0,0,0,.45-.1.35.35,0,0,0,.16-.3.38.38,0,0,0-.12-.28.87.87,0,0,0-.3-.17c-.13-.05-.3-.1-.52-.16a5.53,5.53,0,0,1-.82-.28,1.4,1.4,0,0,1-.55-.42A1.21,1.21,0,0,1,2,11.51a1.34,1.34,0,0,1,.24-.79,1.48,1.48,0,0,1,.67-.52,2.66,2.66,0,0,1,1-.18,3.67,3.67,0,0,1,1,.15,3.47,3.47,0,0,1,.89.39l-.47,1A4,4,0,0,0,4.53,11.2Z"/>
          <path class="cls-1" d="M11.62,15.55a1.89,1.89,0,0,1-.66.39,2,2,0,0,1-.75.15,1.59,1.59,0,0,1-.89-.28A2,2,0,0,1,8.67,15a2.54,2.54,0,0,1-1.28-.36,2.33,2.33,0,0,1-.9-.89,2.47,2.47,0,0,1-.33-1.26,2.39,2.39,0,0,1,.34-1.27,2.44,2.44,0,0,1,.94-.89A2.78,2.78,0,0,1,8.77,10a2.81,2.81,0,0,1,1.33.32,2.44,2.44,0,0,1,.94.89,2.49,2.49,0,0,1,.34,1.27,2.48,2.48,0,0,1-1.57,2.32.74.74,0,0,0,.54.29,1,1,0,0,0,.38-.09,2.68,2.68,0,0,0,.45-.27Zm-4-2.3a1.42,1.42,0,0,0,.48.52,1.24,1.24,0,0,0,1.32,0,1.31,1.31,0,0,0,.47-.52,1.63,1.63,0,0,0,0-1.45,1.35,1.35,0,0,0-.47-.51,1.3,1.3,0,0,0-1.32,0,1.41,1.41,0,0,0-.49.51,1.48,1.48,0,0,0-.18.72A1.4,1.4,0,0,0,7.64,13.25Z"/>
          <path class="cls-1" d="M12,10.12h1.26v3.75h2v1.07H12Z"/>
        </g>
      </g>
    </g>
  </g>
</svg>
