<svg xmlns="http://www.w3.org/2000/svg" width="30" height="30" viewBox="0 0 17 21.5">
  <defs>
    <style>
      .cls-1 {
        fill: #fff;
      }
    </style>
  </defs>
  <title>Workbench</title>
  <g id="Layer_2" data-name="Layer 2">
    <g id="Layer_1-2" data-name="Layer 1">
      <g id="Layer_1-2-2" data-name="Layer 1-2">
        <g>
          <path class="cls-1" d="M17,3.34C17,1.17,12.62,0,8.5,0S0,1.17,0,3.34V18.15c0,2.18,4.38,3.35,8.5,3.35S17,20.33,17,18.15ZM8.5,1.06c4.61,0,7.44,1.33,7.44,2.28S13.11,5.63,8.5,5.63,1.06,4.3,1.06,3.34,3.89,1.06,8.5,1.06Zm0,19.38c-4.61,0-7.44-1.33-7.44-2.29V5C2.61,6.11,5.62,6.69,8.5,6.69S14.39,6.11,15.94,5V18.15C15.94,19.11,13.11,20.44,8.5,20.44Z"/>
          <g>
            <path class="cls-1" d="M4.53,11.2a2.38,2.38,0,0,0-.74-.15.68.68,0,0,0-.37.09.31.31,0,0,0-.13.25.32.32,0,0,0,.12.26.88.88,0,0,0,.29.18,4.32,4.32,0,0,1,.51.16,8,8,0,0,1,.82.29,1.56,1.56,0,0,1,.57.45,1.28,1.28,0,0,1,.23.78,1.36,1.36,0,0,1-.26.82,1.41,1.41,0,0,1-.69.51,2.64,2.64,0,0,1-1,.18,3.53,3.53,0,0,1-1.2-.21,3.35,3.35,0,0,1-1-.58l.48-1a3.38,3.38,0,0,0,.87.53,2.45,2.45,0,0,0,.88.2.79.79,0,0,0,.45-.1.37.37,0,0,0,0-.58.9.9,0,0,0-.3-.17L3.58,13a6.1,6.1,0,0,1-.82-.28,1.42,1.42,0,0,1-.55-.42A1.23,1.23,0,0,1,2,11.51a1.32,1.32,0,0,1,.24-.79,1.49,1.49,0,0,1,.67-.52,2.85,2.85,0,0,1,1-.18,3.37,3.37,0,0,1,1,.15,3.71,3.71,0,0,1,.89.39l-.47,1A3.84,3.84,0,0,0,4.53,11.2Z"/>
            <path class="cls-1" d="M11.62,15.55a1.92,1.92,0,0,1-.66.39,1.93,1.93,0,0,1-.75.15,1.57,1.57,0,0,1-.89-.28A2.05,2.05,0,0,1,8.67,15a2.52,2.52,0,0,1-1.28-.36,2.33,2.33,0,0,1-.9-.89,2.52,2.52,0,0,1-.33-1.26,2.35,2.35,0,0,1,.34-1.27,2.44,2.44,0,0,1,.94-.89A2.82,2.82,0,0,1,8.77,10a2.93,2.93,0,0,1,1.33.32,2.44,2.44,0,0,1,.94.89A2.51,2.51,0,0,1,9.81,14.8a.73.73,0,0,0,.54.29,1,1,0,0,0,.38-.09,3.35,3.35,0,0,0,.45-.27Zm-4-2.3a1.41,1.41,0,0,0,.48.52,1.26,1.26,0,0,0,1.32,0,1.38,1.38,0,0,0,.47-.52,1.61,1.61,0,0,0,0-1.45,1.35,1.35,0,0,0-.47-.51,1.3,1.3,0,0,0-1.32,0,1.41,1.41,0,0,0-.67,1.23,1.35,1.35,0,0,0,.21.73Z"/>
            <path class="cls-1" d="M12,10.12h1.26v3.75h2v1.07H12Z"/>
          </g>
        </g>
      </g>
    </g>
  </g>
</svg>
