<svg xmlns="http://www.w3.org/2000/svg" height="30" width="30" viewBox="0 0 34.91 23.35">
  <defs>
    <style>
      .cls-1 {
        fill: #fff;
      }
    </style>
  </defs>
  <title>WorkbenchNavIcon</title>
  <g id="Layer_2" data-name="Layer 2">
    <g id="Layer_1-2" data-name="Layer 1">
      <g>
        <path class="cls-1" d="M34.37,2l-2-1.67a1.49,1.49,0,0,0-2.1.18l-.61.73L28.31,2.88l-7.87,9.38s0,0,0,0a.93.93,0,0,0-.05.1l0,.09v0l-.64,4.43a.48.48,0,0,0,.17.45.52.52,0,0,0,.37.12l.12,0L24.5,16h0l.09-.06a.24.24,0,0,0,.08-.06l0,0,7.88-9.38L34,4.85l.61-.73A1.49,1.49,0,0,0,34.37,2ZM20.8,16.26l.39-2.71,2.15,1.8Zm3.47-1.43-2.75-2.31L28.76,3.9l2.55,2.15.19.16Zm7.88-9.39L30.77,4.29,29.4,3.14l.72-.86,1.37,1.16,1.37,1.15Zm1.64-2-.29.34-2.74-2.3.29-.34a.49.49,0,0,1,.69-.07l2,1.67A.49.49,0,0,1,33.79,3.48Z"/>
        <path class="cls-1" d="M9.15,9.66a.49.49,0,0,0-.7-.06L4.29,13.11a.51.51,0,0,0,0,.76l4.16,3.51a.5.5,0,1,0,.64-.76l-3.7-3.13,3.7-3.13A.49.49,0,0,0,9.15,9.66Z"/>
        <path class="cls-1" d="M11.59,16.67a.5.5,0,0,0-.5.5.5.5,0,0,0,.5.5h6a.5.5,0,0,0,.5-.5.5.5,0,0,0-.5-.5Z"/>
        <path class="cls-1" d="M27.59,14.65a.5.5,0,0,0-.5.5l0,7.2L1,22.39,1,3.9H25.57a.5.5,0,0,0,.5-.5.5.5,0,0,0-.5-.5H1a1,1,0,0,0-1,1V22.39a1,1,0,0,0,1,1H27.13a1,1,0,0,0,1-1V15.15A.5.5,0,0,0,27.59,14.65Z"/>
      </g>
    </g>
  </g>
</svg>
