<svg xmlns="http://www.w3.org/2000/svg" viewBox="0 0 17 13.4" height="30" width="30">
  <defs>
    <style>
      .cls-1 {
        fill: #fff;
      }
    </style>
  </defs>
  <title>workbench</title>
  <g id="Layer_2" data-name="Layer 2">
    <g id="Layer_1-2" data-name="Layer 1">
      <path class="cls-1" d="M4.71,2.41a.49.49,0,0,0-.7,0L.14,6.35a.5.5,0,0,0,0,.7L4,11a.47.47,0,0,0,.35.15.5.5,0,0,0,.36-.85L1.2,6.7,4.72,3.12A.5.5,0,0,0,4.71,2.41Z"/>
      <path class="cls-1" d="M16.86,6.35,13,2.42a.49.49,0,0,0-.7,0,.5.5,0,0,0,0,.71L15.8,6.7l-3.52,3.58a.5.5,0,0,0,.36.85A.47.47,0,0,0,13,11l3.87-3.93A.5.5,0,0,0,16.86,6.35Z"/>
      <path class="cls-1" d="M9.77,0a.49.49,0,0,0-.58.4L6.83,12.8a.5.5,0,0,0,.4.59h.09A.5.5,0,0,0,7.81,13L10.17.59A.49.49,0,0,0,9.77,0Z"/>
    </g>
  </g>
</svg>
