<svg xmlns="http://www.w3.org/2000/svg" viewBox="0 0 17.25 16.47" height="30" width="30">
  <defs>
    <style>
      .cls-1 {
        fill: #fff;
      }
    </style>
  </defs>
  <title>workbench</title>
  <g id="Layer_2" data-name="Layer 2">
    <g id="Layer_1-2" data-name="Layer 1">
      <g>
        <path class="cls-1" d="M16.89,1.72,15.53.36a1.24,1.24,0,0,0-1.75,0l-.5.5L12.17,2,5.75,8.39l0,0-.06.08,0,.09s0,0,0,0l-.76,3.22a.5.5,0,0,0,.49.62l.12,0,3.16-.82h0l.09,0,.08-.05,0,0,6.42-6.42L16.39,4l.5-.5A1.24,1.24,0,0,0,16.89,1.72ZM6,11.28l.36-1.55,1.16,1.15Zm2.49-.84-1.7-1.7L12.53,3l1.69,1.69ZM14.93,4l-1.7-1.7.41-.4,1.69,1.69Zm1.25-1.26L16,2.91l-1.7-1.7.15-.14a.24.24,0,0,1,.33,0l1.36,1.36A.24.24,0,0,1,16.18,2.76Z"/>
        <path class="cls-1" d="M13.32,8.86a.74.74,0,0,0-.75.75V15H1.5V3.91H8.25a.75.75,0,0,0,0-1.5H.75A.76.76,0,0,0,0,3.16V15.72a.75.75,0,0,0,.75.75H13.32a.75.75,0,0,0,.75-.75V9.61A.75.75,0,0,0,13.32,8.86Z"/>
      </g>
    </g>
  </g>
</svg>
