<svg xmlns="http://www.w3.org/2000/svg" viewBox="0 0 16 16">
  <defs>
    <style>
      .cls-1 {
        fill: #231f20;
      }
    </style>
  </defs>
  <title>Column</title>
  <g id="Layer_2" data-name="Layer 2">
    <g id="Layer_1-2" data-name="Layer 1">
      <g>
        <path class="cls-1" d="M6.74,0H.5A.5.5,0,0,0,0,.5v15a.5.5,0,0,0,.5.5H6.74a.5.5,0,0,0,.5-.5V.5A.5.5,0,0,0,6.74,0Zm-.5,15H1V1H6.24Z"/>
        <path class="cls-1" d="M2.12,3.5h3a.5.5,0,1,0,0-1h-3a.5.5,0,0,0,0,1Z"/>
        <path class="cls-1" d="M2.12,6.83h3a.5.5,0,0,0,.5-.5.5.5,0,0,0-.5-.5h-3a.51.51,0,0,0-.5.5A.5.5,0,0,0,2.12,6.83Z"/>
        <path class="cls-1" d="M2.12,10.17h3a.5.5,0,0,0,.5-.5.5.5,0,0,0-.5-.5h-3a.5.5,0,0,0-.5.5A.51.51,0,0,0,2.12,10.17Z"/>
        <path class="cls-1" d="M2.12,13.5h3a.5.5,0,1,0,0-1h-3a.5.5,0,0,0,0,1Z"/>
        <path class="cls-1" d="M15.5,0H9.26a.5.5,0,0,0-.5.5V8.84a.5.5,0,0,0,.5.5H15.5a.5.5,0,0,0,.5-.5V.5A.5.5,0,0,0,15.5,0ZM15,8.34H9.76V1H15Z"/>
        <path class="cls-1" d="M10.88,3.5h3a.5.5,0,1,0,0-1h-3a.5.5,0,0,0,0,1Z"/>
        <path class="cls-1" d="M10.88,6.83h3a.5.5,0,0,0,.5-.5.5.5,0,0,0-.5-.5h-3a.5.5,0,0,0-.5.5A.5.5,0,0,0,10.88,6.83Z"/>
      </g>
    </g>
  </g>
</svg>
