<svg xmlns="http://www.w3.org/2000/svg" viewBox="0 0 16 15.12">
  <defs>
    <style>
      .cls-1 {
        fill: #231f20;
      }
    </style>
  </defs>
  <title>PieChart</title>
  <g id="Layer_2" data-name="Layer 2">
    <g id="Layer_1-2" data-name="Layer 1">
      <g>
        <path class="cls-1" d="M5.54,6.46H.5A.5.5,0,0,1,0,6a5.56,5.56,0,0,1,2.77-4.8.56.56,0,0,1,.38,0,.53.53,0,0,1,.31.24L6,5.71a.5.5,0,0,1,0,.5A.5.5,0,0,1,5.54,6.46ZM1,5.46H4.67L2.85,2.3A4.55,4.55,0,0,0,1,5.46Z"/>
        <path class="cls-1" d="M8.44,15.12A7.57,7.57,0,0,1,.88,7.56a.5.5,0,0,1,.5-.5h6.2L4.48,1.7A.5.5,0,0,1,4.66,1a7.56,7.56,0,1,1,3.78,14.1ZM1.9,8.06A6.56,6.56,0,1,0,8.44,1a6.45,6.45,0,0,0-2.83.65L8.87,7.31a.5.5,0,0,1-.43.75Z"/>
      </g>
    </g>
  </g>
</svg>
